<?xml version="1.0" standalone="no"?>
<!DOCTYPE svg PUBLIC "-//W3C//DTD SVG 1.1//EN" "http://www.w3.org/Graphics/SVG/1.1/DTD/svg11.dtd" >
<svg xmlns="http://www.w3.org/2000/svg">
<defs>
  <font id="icons" horiz-adv-x="12111.111111111111">
    <font-face font-family="icons"
      units-per-em="1000" ascent="1000"
      descent="0" />
    <missing-glyph horiz-adv-x="0" />
    <glyph glyph-name="arrow-108"
      unicode="&#xF101;"
      horiz-adv-x="12111.111111111111" d="M55.5555555555556 555.5555555555555H0V444.4444444444445H55.5555555555556V555.5555555555555zM12100.000000000002 455.5555555555555C12122.222222222223 477.7777777777777 12122.222222222223 511.1111111111111 12100.000000000002 533.3333333333333L11744.444444444445 888.8888888888889C11722.222222222223 911.111111111111 11688.888888888889 911.111111111111 11666.666666666668 888.8888888888889C11644.444444444445 866.6666666666666 11644.444444444445 833.3333333333333 11666.666666666668 811.1111111111111L11977.777777777777 500L11666.666666666668 188.8888888888889C11644.444444444445 166.6666666666666 11644.444444444445 133.3333333333334 11666.666666666668 111.1111111111111C11688.888888888889 88.8888888888889 11722.222222222223 88.8888888888889 11744.444444444445 111.1111111111111L12100.000000000002 455.5555555555555zM55.5555555555556 444.4444444444445H12055.555555555557V555.5555555555555H55.5555555555556V444.4444444444445z" />
    <glyph glyph-name="arrow-108-1"
      unicode="&#x61;&#x72;&#x72;&#x6F;&#x77;&#x2D;&#x31;&#x30;&#x38;"
      horiz-adv-x="12111.111111111111" d="M55.5555555555556 555.5555555555555H0V444.4444444444445H55.5555555555556V555.5555555555555zM12100.000000000002 455.5555555555555C12122.222222222223 477.7777777777777 12122.222222222223 511.1111111111111 12100.000000000002 533.3333333333333L11744.444444444445 888.8888888888889C11722.222222222223 911.111111111111 11688.888888888889 911.111111111111 11666.666666666668 888.8888888888889C11644.444444444445 866.6666666666666 11644.444444444445 833.3333333333333 11666.666666666668 811.1111111111111L11977.777777777777 500L11666.666666666668 188.8888888888889C11644.444444444445 166.6666666666666 11644.444444444445 133.3333333333334 11666.666666666668 111.1111111111111C11688.888888888889 88.8888888888889 11722.222222222223 88.8888888888889 11744.444444444445 111.1111111111111L12100.000000000002 455.5555555555555zM55.5555555555556 444.4444444444445H12055.555555555557V555.5555555555555H55.5555555555556V444.4444444444445z" />
    <glyph glyph-name="arrow-26"
      unicode="&#xF102;"
      horiz-adv-x="3530.8" d="M67.8 508H3462.8H67.8zM67.8 575.8H0V440H67.8V575.8zM3510.8 460C3537.4 486.6 3537.4 529.6 3510.8 556L3078.8 988.2C3052.2000000000003 1014.8 3009.2000000000003 1014.8 2982.8 988.2C2956.2000000000003 961.6 2956.2000000000003 918.6 2982.8 892.2L3366.8 508.2L2982.8 124.2000000000001C2956.2000000000003 97.6 2956.2000000000003 54.6 2982.8 28.2C3009.4 1.6 3052.4 1.6 3078.8 28.2L3510.8 460zM67.8 440.2000000000001H3462.8V576H67.8V440.2000000000001z" />
    <glyph glyph-name="arrow-26-1"
      unicode="&#x61;&#x72;&#x72;&#x6F;&#x77;&#x2D;&#x32;&#x36;"
      horiz-adv-x="3530.8" d="M67.8 508H3462.8H67.8zM67.8 575.8H0V440H67.8V575.8zM3510.8 460C3537.4 486.6 3537.4 529.6 3510.8 556L3078.8 988.2C3052.2000000000003 1014.8 3009.2000000000003 1014.8 2982.8 988.2C2956.2000000000003 961.6 2956.2000000000003 918.6 2982.8 892.2L3366.8 508.2L2982.8 124.2000000000001C2956.2000000000003 97.6 2956.2000000000003 54.6 2982.8 28.2C3009.4 1.6 3052.4 1.6 3078.8 28.2L3510.8 460zM67.8 440.2000000000001H3462.8V576H67.8V440.2000000000001z" />
    <glyph glyph-name="basket"
      unicode="&#xF103;"
      horiz-adv-x="1047.6190476190477" d="M290.4761904761905 719.047619047619L357.1428571428572 380.952380952381C361.904761904762 366.6666666666667 366.6666666666667 357.1428571428571 376.1904761904762 347.6190476190476C385.7142857142857 338.0952380952382 400 333.3333333333333 414.2857142857144 333.3333333333333H857.1428571428571C871.4285714285714 333.3333333333333 885.7142857142858 338.0952380952381 895.2380952380953 347.6190476190476C904.7619047619048 357.1428571428571 914.2857142857144 366.6666666666668 914.2857142857144 380.952380952381L980.9523809523808 719.047619047619H290.4761904761905zM342.8571428571429 295.2380952380952C319.0476190476191 314.2857142857142 304.7619047619048 338.0952380952381 300 366.6666666666667L223.8095238095238 738.0952380952381C223.8095238095238 738.0952380952381 223.8095238095238 738.0952380952381 223.8095238095238 742.8571428571429L185.7142857142857 942.8571428571428H28.5714285714286C14.2857142857143 942.8571428571428 0 952.3809523809524 0 971.4285714285714S14.2857142857143 1000 28.5714285714286 1000H209.5238095238095C223.8095238095238 1000 233.3333333333334 990.4761904761904 238.0952380952381 976.1904761904761L276.1904761904762 776.1904761904761H1014.2857142857144C1023.8095238095239 776.1904761904761 1033.3333333333333 771.4285714285714 1038.095238095238 766.6666666666666C1047.6190476190477 757.1428571428571 1047.6190476190477 747.6190476190476 1047.6190476190477 742.8571428571429L976.1904761904761 366.6666666666667C971.4285714285714 338.0952380952381 957.1428571428572 314.2857142857142 933.3333333333334 295.2380952380952C909.5238095238096 276.1904761904762 885.7142857142858 271.4285714285714 857.1428571428571 266.6666666666667H419.0476190476191C419.0476190476191 266.6666666666667 419.0476190476191 266.6666666666667 419.0476190476191 266.6666666666667C390.4761904761905 271.4285714285714 361.904761904762 280.952380952381 342.8571428571429 295.2380952380952zM390.4761904761905 90.4761904761904C380.9523809523809 90.4761904761904 376.1904761904762 85.7142857142856 376.1904761904762 76.190476190476C376.1904761904762 66.6666666666666 380.9523809523809 61.9047619047617 390.4761904761905 61.9047619047617C400 61.9047619047617 404.7619047619048 66.6666666666666 404.7619047619048 76.190476190476C404.7619047619048 85.7142857142857 395.2380952380953 90.4761904761904 390.4761904761905 90.4761904761904zM390.4761904761905 0C347.6190476190476 0 314.2857142857143 33.3333333333333 314.2857142857143 76.1904761904763C314.2857142857143 119.047619047619 347.6190476190477 152.3809523809525 390.4761904761905 152.3809523809525C433.3333333333333 152.3809523809525 466.6666666666666 119.0476190476192 466.6666666666666 76.1904761904763C461.9047619047619 33.3333333333333 428.5714285714286 0 390.4761904761905 0zM880.952380952381 90.4761904761904C871.4285714285714 90.4761904761904 866.6666666666666 85.7142857142856 866.6666666666666 76.190476190476C866.6666666666666 66.6666666666666 871.4285714285714 61.9047619047617 880.952380952381 61.9047619047617C890.4761904761905 61.9047619047617 895.2380952380953 66.6666666666666 895.2380952380953 76.190476190476C900 85.7142857142857 890.4761904761905 90.4761904761904 880.952380952381 90.4761904761904zM880.952380952381 0C838.0952380952382 0 804.7619047619047 33.3333333333333 804.7619047619047 76.1904761904763C804.7619047619047 119.047619047619 838.0952380952381 152.3809523809525 880.952380952381 152.3809523809525C923.8095238095239 152.3809523809525 957.1428571428572 119.0476190476192 957.1428571428572 76.1904761904763C957.1428571428572 33.3333333333333 923.8095238095239 0 880.952380952381 0z" />
    <glyph glyph-name="basket-1"
      unicode="&#x62;&#x61;&#x73;&#x6B;&#x65;&#x74;"
      horiz-adv-x="1047.6190476190477" d="M290.4761904761905 719.047619047619L357.1428571428572 380.952380952381C361.904761904762 366.6666666666667 366.6666666666667 357.1428571428571 376.1904761904762 347.6190476190476C385.7142857142857 338.0952380952382 400 333.3333333333333 414.2857142857144 333.3333333333333H857.1428571428571C871.4285714285714 333.3333333333333 885.7142857142858 338.0952380952381 895.2380952380953 347.6190476190476C904.7619047619048 357.1428571428571 914.2857142857144 366.6666666666668 914.2857142857144 380.952380952381L980.9523809523808 719.047619047619H290.4761904761905zM342.8571428571429 295.2380952380952C319.0476190476191 314.2857142857142 304.7619047619048 338.0952380952381 300 366.6666666666667L223.8095238095238 738.0952380952381C223.8095238095238 738.0952380952381 223.8095238095238 738.0952380952381 223.8095238095238 742.8571428571429L185.7142857142857 942.8571428571428H28.5714285714286C14.2857142857143 942.8571428571428 0 952.3809523809524 0 971.4285714285714S14.2857142857143 1000 28.5714285714286 1000H209.5238095238095C223.8095238095238 1000 233.3333333333334 990.4761904761904 238.0952380952381 976.1904761904761L276.1904761904762 776.1904761904761H1014.2857142857144C1023.8095238095239 776.1904761904761 1033.3333333333333 771.4285714285714 1038.095238095238 766.6666666666666C1047.6190476190477 757.1428571428571 1047.6190476190477 747.6190476190476 1047.6190476190477 742.8571428571429L976.1904761904761 366.6666666666667C971.4285714285714 338.0952380952381 957.1428571428572 314.2857142857142 933.3333333333334 295.2380952380952C909.5238095238096 276.1904761904762 885.7142857142858 271.4285714285714 857.1428571428571 266.6666666666667H419.0476190476191C419.0476190476191 266.6666666666667 419.0476190476191 266.6666666666667 419.0476190476191 266.6666666666667C390.4761904761905 271.4285714285714 361.904761904762 280.952380952381 342.8571428571429 295.2380952380952zM390.4761904761905 90.4761904761904C380.9523809523809 90.4761904761904 376.1904761904762 85.7142857142856 376.1904761904762 76.190476190476C376.1904761904762 66.6666666666666 380.9523809523809 61.9047619047617 390.4761904761905 61.9047619047617C400 61.9047619047617 404.7619047619048 66.6666666666666 404.7619047619048 76.190476190476C404.7619047619048 85.7142857142857 395.2380952380953 90.4761904761904 390.4761904761905 90.4761904761904zM390.4761904761905 0C347.6190476190476 0 314.2857142857143 33.3333333333333 314.2857142857143 76.1904761904763C314.2857142857143 119.047619047619 347.6190476190477 152.3809523809525 390.4761904761905 152.3809523809525C433.3333333333333 152.3809523809525 466.6666666666666 119.0476190476192 466.6666666666666 76.1904761904763C461.9047619047619 33.3333333333333 428.5714285714286 0 390.4761904761905 0zM880.952380952381 90.4761904761904C871.4285714285714 90.4761904761904 866.6666666666666 85.7142857142856 866.6666666666666 76.190476190476C866.6666666666666 66.6666666666666 871.4285714285714 61.9047619047617 880.952380952381 61.9047619047617C890.4761904761905 61.9047619047617 895.2380952380953 66.6666666666666 895.2380952380953 76.190476190476C900 85.7142857142857 890.4761904761905 90.4761904761904 880.952380952381 90.4761904761904zM880.952380952381 0C838.0952380952382 0 804.7619047619047 33.3333333333333 804.7619047619047 76.1904761904763C804.7619047619047 119.047619047619 838.0952380952381 152.3809523809525 880.952380952381 152.3809523809525C923.8095238095239 152.3809523809525 957.1428571428572 119.0476190476192 957.1428571428572 76.1904761904763C957.1428571428572 33.3333333333333 923.8095238095239 0 880.952380952381 0z" />
    <glyph glyph-name="burger-close"
      unicode="&#xF104;"
      horiz-adv-x="1000.0000000000001" d="M906.896551724138 824.1379310344829L931.0344827586208 800.0000000000001L955.1724137931034 824.1379310344829L931.0344827586208 848.2758620689656L906.896551724138 824.1379310344829zM882.7586206896553 800.0000000000001L858.6206896551726 824.1379310344829L858.6206896551726 824.1379310344829L882.7586206896553 800.0000000000001zM858.6206896551724 875.8620689655173L882.7586206896552 900.0000000000001L858.6206896551724 924.137931034483L834.4827586206897 900.0000000000001L858.6206896551724 875.8620689655173zM834.4827586206897 848.2758620689656L810.344827586207 872.4137931034484L810.344827586207 872.4137931034484L834.4827586206897 848.2758620689656zM517.2413793103449 534.4827586206898L493.1034482758621 510.344827586207L517.2413793103449 482.7586206896552L541.3793103448276 506.896551724138L517.2413793103449 534.4827586206898zM200 848.2758620689656L224.1379310344828 872.4137931034484L200 848.2758620689656zM175.8620689655173 875.8620689655173L200 900.0000000000001L175.8620689655173 924.137931034483L151.7241379310345 900.0000000000001L175.8620689655173 875.8620689655173zM124.1379310344828 824.1379310344829L100 848.2758620689656L75.8620689655173 824.1379310344829L100 800.0000000000001L124.1379310344828 824.1379310344829zM151.7241379310345 800.0000000000001L124.1379310344828 775.8620689655173L151.7241379310345 800.0000000000001zM465.5172413793104 482.7586206896552L489.6551724137931 458.6206896551726L517.2413793103449 482.7586206896552L493.1034482758621 506.896551724138L465.5172413793104 482.7586206896552zM151.7241379310345 165.5172413793105L127.5862068965518 189.6551724137932L127.5862068965518 189.6551724137932L151.7241379310345 165.5172413793105zM124.1379310344828 141.3793103448277L100 165.5172413793105L75.8620689655173 141.3793103448277L100 117.2413793103449L124.1379310344828 141.3793103448277zM175.8620689655173 93.1034482758621L151.7241379310345 68.9655172413793L175.8620689655173 44.8275862068966L200 68.9655172413793L175.8620689655173 93.1034482758621zM200 117.2413793103448L224.1379310344828 93.1034482758621L224.1379310344828 93.1034482758621L200 117.2413793103448zM517.2413793103449 434.4827586206898L541.3793103448276 458.6206896551726L517.2413793103449 482.7586206896552L493.1034482758621 458.6206896551726L517.2413793103449 434.4827586206898zM834.4827586206897 117.2413793103448L810.344827586207 93.1034482758621L810.344827586207 93.1034482758621L834.4827586206897 117.2413793103448zM858.6206896551724 93.1034482758621L834.4827586206897 68.9655172413793L858.6206896551724 44.8275862068966L882.7586206896552 68.9655172413793L858.6206896551724 93.1034482758621zM906.896551724138 141.3793103448277L931.0344827586208 117.2413793103449L955.1724137931034 141.3793103448277L931.0344827586208 165.5172413793105L906.896551724138 141.3793103448277zM882.7586206896553 165.5172413793105L906.896551724138 189.6551724137932L906.896551724138 189.6551724137932L882.7586206896553 165.5172413793105zM565.5172413793103 482.7586206896552L541.3793103448276 506.896551724138L517.2413793103449 482.7586206896552L541.3793103448276 458.6206896551726L565.5172413793103 482.7586206896552zM882.7586206896553 848.2758620689656L858.6206896551726 824.1379310344828L906.896551724138 775.8620689655173L931.0344827586208 800.0000000000001L882.7586206896553 848.2758620689656zM834.4827586206897 848.2758620689656L882.7586206896552 800L931.0344827586208 848.2758620689656L882.7586206896553 896.5517241379312L834.4827586206897 848.2758620689656zM858.6206896551724 824.1379310344829L882.7586206896552 848.2758620689656L834.4827586206897 896.5517241379312L810.344827586207 872.4137931034484L858.6206896551724 824.1379310344829zM541.3793103448276 506.896551724138L858.6206896551724 824.1379310344828L810.344827586207 872.4137931034484L493.1034482758621 555.1724137931035L541.3793103448276 506.896551724138zM175.8620689655173 824.1379310344829L493.1034482758621 506.896551724138L541.3793103448276 555.1724137931035L224.1379310344828 875.8620689655173L175.8620689655173 824.1379310344829zM151.7241379310345 848.2758620689656L175.8620689655173 824.1379310344828L224.1379310344828 872.4137931034484L200 900.0000000000001L151.7241379310345 848.2758620689656zM151.7241379310345 800.0000000000001L200.0000000000001 848.2758620689656L151.7241379310345 900.0000000000001L100 848.2758620689656L151.7241379310345 800.0000000000001zM175.8620689655173 824.1379310344829L151.7241379310345 848.2758620689656L100 800.0000000000001L124.1379310344828 775.8620689655173L175.8620689655173 824.1379310344829zM493.1034482758621 506.896551724138L175.8620689655173 824.1379310344829L124.1379310344828 775.8620689655173L441.3793103448276 458.6206896551726L493.1034482758621 506.896551724138zM175.8620689655173 141.3793103448277L493.1034482758621 458.6206896551726L444.8275862068966 506.896551724138L127.5862068965517 189.6551724137932L175.8620689655173 141.3793103448277zM151.7241379310345 117.2413793103448L175.8620689655173 141.3793103448276L127.5862068965518 189.655172413793L103.448275862069 165.5172413793102L151.7241379310345 117.2413793103448zM200 117.2413793103448L151.7241379310345 165.5172413793102L103.448275862069 117.2413793103448L151.7241379310345 68.9655172413793L200 117.2413793103448zM175.8620689655173 141.3793103448277L151.7241379310345 117.2413793103449L200 68.9655172413793L224.1379310344828 93.1034482758621L175.8620689655173 141.3793103448277zM493.1034482758621 458.6206896551726L175.8620689655173 141.3793103448277L224.1379310344829 93.1034482758622L541.3793103448277 410.344827586207L493.1034482758621 458.6206896551726zM858.6206896551724 141.3793103448277L541.3793103448276 458.6206896551726L493.1034482758621 410.344827586207L810.344827586207 93.1034482758622L858.6206896551724 141.3793103448277zM882.7586206896553 117.2413793103448L858.6206896551726 141.3793103448276L810.3448275862071 93.1034482758621L834.4827586206899 68.9655172413793L882.7586206896553 117.2413793103448zM882.7586206896553 165.5172413793105L834.4827586206899 117.2413793103449L882.7586206896553 68.9655172413794L931.0344827586208 117.2413793103449L882.7586206896553 165.5172413793105zM858.6206896551724 141.3793103448277L882.7586206896552 117.2413793103449L931.0344827586206 165.5172413793105L906.896551724138 189.6551724137932L858.6206896551724 141.3793103448277zM541.3793103448276 458.6206896551726L858.6206896551724 141.3793103448277L906.896551724138 189.6551724137932L589.6551724137931 506.896551724138L541.3793103448276 458.6206896551726zM858.6206896551724 824.1379310344829L541.3793103448276 506.896551724138L589.6551724137931 458.6206896551726L906.896551724138 775.8620689655173L858.6206896551724 824.1379310344829z" />
    <glyph glyph-name="burger-close-1"
      unicode="&#x62;&#x75;&#x72;&#x67;&#x65;&#x72;&#x2D;&#x63;&#x6C;&#x6F;&#x73;&#x65;"
      horiz-adv-x="1000.0000000000001" d="M906.896551724138 824.1379310344829L931.0344827586208 800.0000000000001L955.1724137931034 824.1379310344829L931.0344827586208 848.2758620689656L906.896551724138 824.1379310344829zM882.7586206896553 800.0000000000001L858.6206896551726 824.1379310344829L858.6206896551726 824.1379310344829L882.7586206896553 800.0000000000001zM858.6206896551724 875.8620689655173L882.7586206896552 900.0000000000001L858.6206896551724 924.137931034483L834.4827586206897 900.0000000000001L858.6206896551724 875.8620689655173zM834.4827586206897 848.2758620689656L810.344827586207 872.4137931034484L810.344827586207 872.4137931034484L834.4827586206897 848.2758620689656zM517.2413793103449 534.4827586206898L493.1034482758621 510.344827586207L517.2413793103449 482.7586206896552L541.3793103448276 506.896551724138L517.2413793103449 534.4827586206898zM200 848.2758620689656L224.1379310344828 872.4137931034484L200 848.2758620689656zM175.8620689655173 875.8620689655173L200 900.0000000000001L175.8620689655173 924.137931034483L151.7241379310345 900.0000000000001L175.8620689655173 875.8620689655173zM124.1379310344828 824.1379310344829L100 848.2758620689656L75.8620689655173 824.1379310344829L100 800.0000000000001L124.1379310344828 824.1379310344829zM151.7241379310345 800.0000000000001L124.1379310344828 775.8620689655173L151.7241379310345 800.0000000000001zM465.5172413793104 482.7586206896552L489.6551724137931 458.6206896551726L517.2413793103449 482.7586206896552L493.1034482758621 506.896551724138L465.5172413793104 482.7586206896552zM151.7241379310345 165.5172413793105L127.5862068965518 189.6551724137932L127.5862068965518 189.6551724137932L151.7241379310345 165.5172413793105zM124.1379310344828 141.3793103448277L100 165.5172413793105L75.8620689655173 141.3793103448277L100 117.2413793103449L124.1379310344828 141.3793103448277zM175.8620689655173 93.1034482758621L151.7241379310345 68.9655172413793L175.8620689655173 44.8275862068966L200 68.9655172413793L175.8620689655173 93.1034482758621zM200 117.2413793103448L224.1379310344828 93.1034482758621L224.1379310344828 93.1034482758621L200 117.2413793103448zM517.2413793103449 434.4827586206898L541.3793103448276 458.6206896551726L517.2413793103449 482.7586206896552L493.1034482758621 458.6206896551726L517.2413793103449 434.4827586206898zM834.4827586206897 117.2413793103448L810.344827586207 93.1034482758621L810.344827586207 93.1034482758621L834.4827586206897 117.2413793103448zM858.6206896551724 93.1034482758621L834.4827586206897 68.9655172413793L858.6206896551724 44.8275862068966L882.7586206896552 68.9655172413793L858.6206896551724 93.1034482758621zM906.896551724138 141.3793103448277L931.0344827586208 117.2413793103449L955.1724137931034 141.3793103448277L931.0344827586208 165.5172413793105L906.896551724138 141.3793103448277zM882.7586206896553 165.5172413793105L906.896551724138 189.6551724137932L906.896551724138 189.6551724137932L882.7586206896553 165.5172413793105zM565.5172413793103 482.7586206896552L541.3793103448276 506.896551724138L517.2413793103449 482.7586206896552L541.3793103448276 458.6206896551726L565.5172413793103 482.7586206896552zM882.7586206896553 848.2758620689656L858.6206896551726 824.1379310344828L906.896551724138 775.8620689655173L931.0344827586208 800.0000000000001L882.7586206896553 848.2758620689656zM834.4827586206897 848.2758620689656L882.7586206896552 800L931.0344827586208 848.2758620689656L882.7586206896553 896.5517241379312L834.4827586206897 848.2758620689656zM858.6206896551724 824.1379310344829L882.7586206896552 848.2758620689656L834.4827586206897 896.5517241379312L810.344827586207 872.4137931034484L858.6206896551724 824.1379310344829zM541.3793103448276 506.896551724138L858.6206896551724 824.1379310344828L810.344827586207 872.4137931034484L493.1034482758621 555.1724137931035L541.3793103448276 506.896551724138zM175.8620689655173 824.1379310344829L493.1034482758621 506.896551724138L541.3793103448276 555.1724137931035L224.1379310344828 875.8620689655173L175.8620689655173 824.1379310344829zM151.7241379310345 848.2758620689656L175.8620689655173 824.1379310344828L224.1379310344828 872.4137931034484L200 900.0000000000001L151.7241379310345 848.2758620689656zM151.7241379310345 800.0000000000001L200.0000000000001 848.2758620689656L151.7241379310345 900.0000000000001L100 848.2758620689656L151.7241379310345 800.0000000000001zM175.8620689655173 824.1379310344829L151.7241379310345 848.2758620689656L100 800.0000000000001L124.1379310344828 775.8620689655173L175.8620689655173 824.1379310344829zM493.1034482758621 506.896551724138L175.8620689655173 824.1379310344829L124.1379310344828 775.8620689655173L441.3793103448276 458.6206896551726L493.1034482758621 506.896551724138zM175.8620689655173 141.3793103448277L493.1034482758621 458.6206896551726L444.8275862068967 506.896551724138L127.5862068965517 189.6551724137932L175.8620689655173 141.3793103448277zM151.7241379310345 117.2413793103448L175.8620689655173 141.3793103448276L127.5862068965518 189.655172413793L103.448275862069 165.5172413793102L151.7241379310345 117.2413793103448zM200 117.2413793103448L151.7241379310345 165.5172413793102L103.448275862069 117.2413793103448L151.7241379310345 68.9655172413793L200 117.2413793103448zM175.8620689655173 141.3793103448277L151.7241379310345 117.2413793103449L200 68.9655172413793L224.1379310344828 93.1034482758621L175.8620689655173 141.3793103448277zM493.1034482758621 458.6206896551726L175.8620689655173 141.3793103448277L224.1379310344829 93.1034482758622L541.3793103448277 410.344827586207L493.1034482758621 458.6206896551726zM858.6206896551724 141.3793103448277L541.3793103448276 458.6206896551726L493.1034482758621 410.344827586207L810.344827586207 93.1034482758622L858.6206896551724 141.3793103448277zM882.7586206896553 117.2413793103448L858.6206896551726 141.3793103448276L810.3448275862071 93.1034482758621L834.4827586206899 68.9655172413793L882.7586206896553 117.2413793103448zM882.7586206896553 165.5172413793105L834.4827586206899 117.2413793103449L882.7586206896553 68.9655172413794L931.0344827586208 117.2413793103449L882.7586206896553 165.5172413793105zM858.6206896551724 141.3793103448277L882.7586206896552 117.2413793103449L931.0344827586206 165.5172413793105L906.896551724138 189.6551724137932L858.6206896551724 141.3793103448277zM541.3793103448276 458.6206896551726L858.6206896551724 141.3793103448277L906.896551724138 189.6551724137932L589.6551724137931 506.896551724138L541.3793103448276 458.6206896551726zM858.6206896551724 824.1379310344829L541.3793103448276 506.896551724138L589.6551724137931 458.6206896551726L906.896551724138 775.8620689655173L858.6206896551724 824.1379310344829z" />
    <glyph glyph-name="burger"
      unicode="&#xF105;"
      horiz-adv-x="1000" d="M0 833.4H1000V766.8H0V833.4zM0 533.4H1000V466.8H0V533.4zM0 233.4H733.4V166.8H0V233.4z" />
    <glyph glyph-name="burger-1"
      unicode="&#x62;&#x75;&#x72;&#x67;&#x65;&#x72;"
      horiz-adv-x="1000" d="M0 833.4H1000V766.8H0V833.4zM0 533.4H1000V466.8H0V533.4zM0 233.4H733.4V166.8H0V233.4z" />
    <glyph glyph-name="facebook"
      unicode="&#xF106;"
      horiz-adv-x="1000" d="M1000 497C1000 774.8 776 1000 500 1000C223.8 1000 0 774.8 0 497C0 245.8 182.8 37.8 421.8 0V351.4H294.8V496.8H421.8V607.8C421.8 733.8 496.4 803.4 610.6 803.4C665.4 803.4 722.6 793.5999999999999 722.6 793.5999999999999V669.8H659.4C597.4 669.8 578 631 578 591.1999999999999V496.8H716.6L694.4 351.4H578V0C817 37.8 1000 245.8 1000 497z" />
    <glyph glyph-name="facebook-1"
      unicode="&#x66;&#x61;&#x63;&#x65;&#x62;&#x6F;&#x6F;&#x6B;"
      horiz-adv-x="1000" d="M1000 497C1000 774.8 776 1000 500 1000C223.8 1000 0 774.8 0 497C0 245.8 182.8 37.8 421.8 0V351.4H294.8V496.8H421.8V607.8C421.8 733.8 496.4 803.4 610.6 803.4C665.4 803.4 722.6 793.5999999999999 722.6 793.5999999999999V669.8H659.4C597.4 669.8 578 631 578 591.1999999999999V496.8H716.6L694.4 351.4H578V0C817 37.8 1000 245.8 1000 497z" />
    <glyph glyph-name="five"
      unicode="&#xF107;"
      horiz-adv-x="593.2203389830509" d="M262.7118644067797 5.0847457627119C207.6271186440678 5.0847457627119 160.1694915254237 14.4067796610169 121.1864406779661 32.2033898305085C82.2033898305085 50 51.6949152542373 72.0338983050848 30.5084745762712 98.3050847457628C10.1694915254237 125.4237288135594 0 152.542372881356 0 179.6610169491526C0 204.2372881355932 7.6271186440678 226.271186440678 22.8813559322034 245.7627118644067C38.135593220339 265.2542372881356 59.3220338983051 275.4237288135593 85.5932203389831 276.2711864406779C106.7796610169492 277.1186440677965 122.8813559322034 272.8813559322033 134.7457627118645 263.5593220338982C146.6101694915254 255.0847457627118 155.0847457627119 244.0677966101695 160.1694915254238 231.3559322033898C165.2542372881357 218.6440677966101 167.7966101694916 205.9322033898304 167.7966101694916 194.0677966101694C167.7966101694916 187.2881355932202 166.9491525423729 178.8135593220338 163.5593220338983 168.64406779661C161.8644067796611 159.322033898305 158.4745762711864 150.8474576271186 153.3898305084746 142.3728813559321C159.3220338983051 127.9661016949151 172.8813559322034 116.1016949152543 194.0677966101695 107.6271186440678S234.7457627118645 94.9152542372881 252.542372881356 94.9152542372881C286.4406779661018 94.9152542372881 313.5593220338984 104.2372881355932 333.8983050847459 122.0338983050848C355.0847457627119 139.8305084745762 370.3389830508475 162.7118644067797 379.6610169491526 190.6779661016949C388.9830508474577 218.6440677966101 393.2203389830509 247.4576271186441 393.2203389830509 276.2711864406779C393.2203389830509 295.7627118644067 392.3728813559323 317.7966101694915 388.9830508474577 342.3728813559321C386.4406779661018 366.9491525423728 380.5084745762713 391.5254237288134 369.4915254237289 415.2542372881354C360.1694915254239 438.9830508474575 344.9152542372883 458.4745762711863 323.7288135593222 473.7288135593219C303.3898305084747 488.9830508474574 275.4237288135594 496.6101694915253 239.8305084745764 496.6101694915253C222.0338983050849 496.6101694915253 199.1525423728815 493.2203389830507 172.8813559322035 486.4406779661015S116.949152542373 466.9491525423728 87.2881355932205 449.1525423728812L32.2033898305086 491.5254237288134L29.6610169491525 915.2542372881358H359.3220338983051C388.9830508474577 915.2542372881358 412.7118644067797 920.3389830508476 429.6610169491526 928.813559322034C447.4576271186442 938.9830508474578 456.7796610169492 961.8644067796612 456.7796610169492 997.4576271186442H537.2881355932204L528.8135593220339 791.5254237288136L129.6610169491526 783.8983050847459V557.6271186440679C149.1525423728814 566.1016949152543 173.7288135593221 573.7288135593221 202.542372881356 579.6610169491526C231.3559322033899 585.5932203389832 258.4745762711865 588.135593220339 283.8983050847459 588.135593220339C354.2372881355934 588.135593220339 411.8644067796611 574.5762711864407 457.6271186440679 547.4576271186442C503.3898305084746 521.1864406779662 537.2881355932204 486.4406779661018 559.3220338983051 443.2203389830509C581.3559322033898 400.0000000000001 592.3728813559322 352.542372881356 592.3728813559322 301.6949152542374C592.3728813559322 236.4406779661017 576.271186440678 181.3559322033898 544.0677966101696 136.4406779661017C512.7118644067797 92.3728813559322 472.0338983050848 59.3220338983051 422.0338983050848 37.2881355932203S317.7966101694916 5.0847457627119 262.7118644067797 5.0847457627119z" />
    <glyph glyph-name="five-1"
      unicode="&#x66;&#x69;&#x76;&#x65;"
      horiz-adv-x="593.2203389830509" d="M262.7118644067797 5.0847457627119C207.6271186440678 5.0847457627119 160.1694915254237 14.4067796610169 121.1864406779661 32.2033898305085C82.2033898305085 50 51.6949152542373 72.0338983050848 30.5084745762712 98.3050847457628C10.1694915254237 125.4237288135594 0 152.542372881356 0 179.6610169491526C0 204.2372881355932 7.6271186440678 226.271186440678 22.8813559322034 245.7627118644067C38.135593220339 265.2542372881356 59.3220338983051 275.4237288135593 85.5932203389831 276.2711864406779C106.7796610169492 277.1186440677965 122.8813559322034 272.8813559322033 134.7457627118645 263.5593220338982C146.6101694915254 255.0847457627118 155.0847457627119 244.0677966101695 160.1694915254238 231.3559322033898C165.2542372881357 218.6440677966101 167.7966101694916 205.9322033898304 167.7966101694916 194.0677966101694C167.7966101694916 187.2881355932202 166.9491525423729 178.8135593220338 163.5593220338983 168.64406779661C161.8644067796611 159.322033898305 158.4745762711864 150.8474576271186 153.3898305084746 142.3728813559321C159.3220338983051 127.9661016949151 172.8813559322034 116.1016949152543 194.0677966101695 107.6271186440678S234.7457627118645 94.9152542372881 252.542372881356 94.9152542372881C286.4406779661018 94.9152542372881 313.5593220338984 104.2372881355932 333.8983050847459 122.0338983050848C355.0847457627119 139.8305084745762 370.3389830508475 162.7118644067797 379.6610169491526 190.6779661016949C388.9830508474577 218.6440677966101 393.2203389830509 247.4576271186441 393.2203389830509 276.2711864406779C393.2203389830509 295.7627118644067 392.3728813559323 317.7966101694915 388.9830508474577 342.3728813559321C386.4406779661018 366.9491525423728 380.5084745762713 391.5254237288134 369.4915254237289 415.2542372881354C360.1694915254239 438.9830508474575 344.9152542372883 458.4745762711863 323.7288135593222 473.7288135593219C303.3898305084747 488.9830508474574 275.4237288135594 496.6101694915253 239.8305084745764 496.6101694915253C222.0338983050849 496.6101694915253 199.1525423728815 493.2203389830507 172.8813559322035 486.4406779661015S116.949152542373 466.9491525423728 87.2881355932205 449.1525423728812L32.2033898305086 491.5254237288134L29.6610169491525 915.2542372881358H359.3220338983051C388.9830508474577 915.2542372881358 412.7118644067797 920.3389830508476 429.6610169491526 928.813559322034C447.4576271186442 938.9830508474578 456.7796610169492 961.8644067796612 456.7796610169492 997.4576271186442H537.2881355932204L528.8135593220339 791.5254237288136L129.6610169491526 783.8983050847459V557.6271186440679C149.1525423728814 566.1016949152543 173.7288135593221 573.7288135593221 202.542372881356 579.6610169491526C231.3559322033899 585.5932203389832 258.4745762711865 588.135593220339 283.8983050847459 588.135593220339C354.2372881355934 588.135593220339 411.8644067796611 574.5762711864407 457.6271186440679 547.4576271186442C503.3898305084746 521.1864406779662 537.2881355932204 486.4406779661018 559.3220338983051 443.2203389830509C581.3559322033898 400.0000000000001 592.3728813559322 352.542372881356 592.3728813559322 301.6949152542374C592.3728813559322 236.4406779661017 576.271186440678 181.3559322033898 544.0677966101696 136.4406779661017C512.7118644067797 92.3728813559322 472.0338983050848 59.3220338983051 422.0338983050848 37.2881355932203S317.7966101694916 5.0847457627119 262.7118644067797 5.0847457627119z" />
    <glyph glyph-name="glass"
      unicode="&#xF108;"
      horiz-adv-x="1000" d="M753.1235294117647 330.6529411764707C804.4117647058823 398.6117647058824 832.9058823529411 477.8941176470588 832.9058823529411 568.5058823529412C832.9058823529411 789.3679411764706 656.25 970.5882352941176 434.0058823529412 970.5882352941176C211.7647058823529 970.5882352941176 29.4117647058824 789.3679411764706 29.4117647058824 568.5058823529412C29.4117647058824 347.6441176470589 211.7647058823529 166.4235294117648 434.0058823529412 166.4235294117648C525.185294117647 166.4235294117648 610.6617647058823 194.7382352941177 673.3470588235293 245.7058823529412L844.3029411764705 75.8117647058824C855.7 64.4852941176471 872.7941176470588 58.8235294117648 884.1911764705882 58.8235294117648C895.5882352941176 58.8235294117648 912.6823529411764 64.4852941176471 924.079411764706 75.8117647058824C946.8764705882352 98.464705882353 946.8764705882352 132.4441176470589 924.079411764706 155.0970588235294L753.1235294117647 330.6529411764707zM434.0058823529412 285.35C274.4485294117647 285.35 143.3823529411765 409.9382352941177 143.3823529411765 568.5058823529412C143.3823529411765 727.0735294117646 274.4485294117647 857.3255882352942 434.0058823529412 857.3255882352942C593.5647058823529 857.3255882352942 724.6323529411765 727.0735294117646 724.6323529411765 568.5058823529412C724.6323529411765 409.9382352941177 593.5647058823529 285.35 434.0058823529412 285.35z" />
    <glyph glyph-name="glass-1"
      unicode="&#x67;&#x6C;&#x61;&#x73;&#x73;"
      horiz-adv-x="1000" d="M753.1235294117647 330.6529411764707C804.4117647058823 398.6117647058824 832.9058823529411 477.8941176470588 832.9058823529411 568.5058823529412C832.9058823529411 789.3679411764706 656.25 970.5882352941176 434.0058823529413 970.5882352941176C211.7647058823529 970.5882352941176 29.4117647058824 789.3679411764706 29.4117647058824 568.5058823529412C29.4117647058824 347.6441176470589 211.7647058823529 166.4235294117648 434.0058823529413 166.4235294117648C525.185294117647 166.4235294117648 610.6617647058823 194.7382352941177 673.3470588235293 245.7058823529412L844.3029411764705 75.8117647058824C855.7 64.4852941176471 872.7941176470588 58.8235294117648 884.1911764705882 58.8235294117648C895.5882352941176 58.8235294117648 912.6823529411764 64.4852941176471 924.079411764706 75.8117647058824C946.8764705882352 98.464705882353 946.8764705882352 132.4441176470589 924.079411764706 155.0970588235294L753.1235294117647 330.6529411764707zM434.0058823529413 285.35C274.4485294117647 285.35 143.3823529411765 409.9382352941177 143.3823529411765 568.5058823529412C143.3823529411765 727.0735294117646 274.4485294117647 857.3255882352942 434.0058823529413 857.3255882352942C593.5647058823529 857.3255882352942 724.6323529411765 727.0735294117646 724.6323529411765 568.5058823529412C724.6323529411765 409.9382352941177 593.5647058823529 285.35 434.0058823529413 285.35z" />
    <glyph glyph-name="heart"
      unicode="&#xF109;"
      horiz-adv-x="1166.6" d="M583.4 865.8C649 956.8 731.6 1000 841 1000C1020.8 1000 1166.6 844.2 1166.6 652.2C1166.6 474.8 1037.8 364.4 908.9999999999998 259C897.3999999999999 250.8 886.9999999999999 241.6 876.1999999999999 232C870.9999999999999 227.4 865.8 222.8 860.4 218.2000000000001L811.8 175C690.1999999999999 64.6 646.5999999999999 26.4 622.1999999999999 12C609.9999999999999 4.8 597.8 0 583.4 0C571.1999999999999 0 556.6 4.8 544.6 12C523.6 24.4 481 61.8 401.4000000000001 131.6C388.6 142.8000000000001 374.8 155 360.0000000000001 167.8000000000001L304.0000000000001 215.8000000000001C289.4000000000001 230.2000000000001 272.4000000000001 244.6 257.8000000000001 256.6C131.2 364.6 0 477.2 0 652.2C0 844.2 145.8 1000 325.6 997.6C435 997.6 517.8 954.4 583.4 865.8zM1093.8 652.2C1093.8 803.4 979.6 928 841 928C739 928 683 880 644.2 824.8C618 789.4 604.4000000000001 764.2 596 748.8C589.6 737.2 586.6 731.2 583.4 731.2C580.1999999999999 731.2 577 737 570.8 748.8C562.5999999999999 764.2 548.8 789.4 522.5999999999999 824.8C483.6 880 427.8 928 325.6 928C187.2 928 73 803.4 73 652.2C73 506.2 186 410.2000000000001 309.2 305.5999999999999C323.6 293.3999999999999 338 280.9999999999999 352.6 268.5999999999999C373.8 249.8 394.2 231.8 413.2 214.8C499 138.5999999999999 561.6 83.1999999999999 583.4 69.4C601.8 80.4 646.8 120.1999999999999 726.8 191.1999999999999C752.4 213.8 781.4 239.5999999999999 814.1999999999999 268.5999999999999C830.5999999999999 282.9999999999999 847.1999999999999 297.2 863.5999999999999 311.2C982.8 413.8 1093.8 508.8 1093.8 652.2z" />
    <glyph glyph-name="heart-1"
      unicode="&#x68;&#x65;&#x61;&#x72;&#x74;"
      horiz-adv-x="1166.6" d="M583.4 865.8C649 956.8 731.6 1000 841 1000C1020.8 1000 1166.6 844.2 1166.6 652.2C1166.6 474.8 1037.8 364.4 908.9999999999998 259C897.3999999999999 250.8 886.9999999999999 241.6 876.1999999999999 232C870.9999999999999 227.4 865.8 222.8 860.4 218.2000000000001L811.8 175C690.1999999999999 64.6 646.5999999999999 26.4 622.1999999999999 12C609.9999999999999 4.8 597.8 0 583.4 0C571.1999999999999 0 556.6 4.8 544.6 12C523.6 24.4 481 61.8 401.4000000000001 131.6C388.6 142.8000000000001 374.8 155 360.0000000000001 167.8000000000001L304.0000000000001 215.8000000000001C289.4000000000001 230.2000000000001 272.4000000000001 244.6 257.8000000000002 256.6C131.2 364.6 0 477.2 0 652.2C0 844.2 145.8 1000 325.6 997.6C435 997.6 517.8 954.4 583.4 865.8zM1093.8 652.2C1093.8 803.4 979.6 928 841 928C739 928 683 880 644.2 824.8C618 789.4 604.4000000000001 764.2 596 748.8C589.6 737.2 586.6 731.2 583.4 731.2C580.1999999999999 731.2 577 737 570.8 748.8C562.5999999999999 764.2 548.8 789.4 522.5999999999999 824.8C483.6 880 427.8 928 325.6 928C187.2 928 73 803.4 73 652.2C73 506.2 186 410.2000000000001 309.2 305.5999999999999C323.6 293.3999999999999 338 280.9999999999999 352.6 268.5999999999999C373.8 249.8 394.2 231.8 413.2 214.8C499 138.5999999999999 561.6 83.1999999999999 583.4 69.4C601.8 80.4 646.8 120.1999999999999 726.8 191.1999999999999C752.4 213.8 781.4 239.5999999999999 814.1999999999999 268.5999999999999C830.5999999999999 282.9999999999999 847.1999999999999 297.2 863.5999999999999 311.2C982.8 413.8 1093.8 508.8 1093.8 652.2z" />
    <glyph glyph-name="instagram"
      unicode="&#xF10A;"
      horiz-adv-x="1000" d="M724 0H276C123.8 0 0 123.8 0 276V724C0 876.2 123.8 1000 276 1000H724C876.2 1000 1000 876.2 1000 724V276C1000 123.8 876.2 0 724 0zM911.2 276V724C911.2 827.2 827.2 911.2 724 911.2H276C172.8 911.2 88.8 827.2 88.8 724V276C88.8 172.8 172.8 88.8 276 88.8H724C827.2 88.8 911.2 172.8 911.2 276zM768.4 702.8C751.4 702.8 734.6 709.8 722.4 721.8C710.1999999999999 734 703.1999999999999 750.8 703.1999999999999 767.8S710.1999999999999 801.8 722.4 813.8C734.4 826 751.1999999999999 832.8 768.4 832.8C785.6 832.8 802.4 825.8 814.4 813.8C826.6 801.8 833.4 785 833.4 767.8S826.4 733.8 814.4 721.8C802.4 709.8 785.6 702.8 768.4 702.8zM500 242.4C358 242.4 242.4 358 242.4 500S358 757.6 500 757.6S757.6 642 757.6 500S642 242.4 500 242.4zM500 669C406.8 669 331 593.2 331 500C331 406.8 406.8 331 500 331S669 406.8 669 500C669 593.2 593.2 669 500 669z" />
    <glyph glyph-name="instagram-1"
      unicode="&#x69;&#x6E;&#x73;&#x74;&#x61;&#x67;&#x72;&#x61;&#x6D;"
      horiz-adv-x="1000" d="M724 0H276C123.8 0 0 123.8 0 276V724C0 876.2 123.8 1000 276 1000H724C876.2 1000 1000 876.2 1000 724V276C1000 123.8 876.2 0 724 0zM911.2 276V724C911.2 827.2 827.2 911.2 724 911.2H276C172.8 911.2 88.8 827.2 88.8 724V276C88.8 172.8 172.8 88.8 276 88.8H724C827.2 88.8 911.2 172.8 911.2 276zM768.4 702.8C751.4 702.8 734.6 709.8 722.4 721.8C710.1999999999999 734 703.1999999999999 750.8 703.1999999999999 767.8S710.1999999999999 801.8 722.4 813.8C734.4 826 751.1999999999999 832.8 768.4 832.8C785.6 832.8 802.4 825.8 814.4 813.8C826.6 801.8 833.4 785 833.4 767.8S826.4 733.8 814.4 721.8C802.4 709.8 785.6 702.8 768.4 702.8zM500 242.4C358 242.4 242.4 358 242.4 500S358 757.6 500 757.6S757.6 642 757.6 500S642 242.4 500 242.4zM500 669C406.8 669 331 593.2 331 500C331 406.8 406.8 331 500 331S669 406.8 669 500C669 593.2 593.2 669 500 669z" />
    <glyph glyph-name="kontora"
      unicode="&#xF10B;"
      horiz-adv-x="6639.6" d="M371 368.4L269.4 260V19.6H0V980.8H269.4V581.6L641.4 980.8H940.6L548 555.2L961.2 19.5999999999999H645.4L371 368.4zM914.8 243.6C961 167.6 1024.8 108 1105.8 65C1186.8 22 1277.8 0.6 1379.4 0.6C1481 0.6 1572 22 1653 65C1734 108 1797.6 167.4 1844 243.6S1913.4 405.6 1913.4 500.6C1913.4 596.4000000000001 1890.2 681.6 1844 757.6S1734 893.2 1653 936.2C1572 979 1481 1000.6 1379.4 1000.6C1277.8000000000002 1000.6 1186.8000000000002 979.2 1105.8000000000002 936.2C1024.8000000000002 893.2 961.2000000000002 833.8 914.8000000000002 757.6C868.6000000000001 681.6 845.4000000000002 595.6 845.4000000000002 500.6C845.4 404.8 868.6 319.6 914.8 243.6zM1605 356.8C1581.8 315.4 1551.2 283.2 1511.6 260.2C1472 236.9999999999999 1428.1999999999998 225.4 1380.1999999999998 225.4C1332.1999999999998 225.4 1288.3999999999999 237 1248.7999999999997 260.2C1209.1999999999998 283.4 1178.5999999999997 315.5999999999999 1155.3999999999996 356.8C1132.1999999999996 399 1120.5999999999997 446.8 1120.5999999999997 500.6C1120.5999999999997 555.2 1132.1999999999996 603 1155.3999999999996 644.4C1178.5999999999997 685.8 1209.1999999999996 718 1248.7999999999997 741C1287.5999999999997 764.2 1331.3999999999996 775.8 1380.1999999999998 775.8C1428.1999999999998 775.8 1471.9999999999998 764.2 1511.6 741S1581.8 685.6 1605 644.4C1628.2 602.2 1639.8 554.4 1639.8 500.6C1639.6 446 1628.2 398.2000000000001 1605 356.8zM2989.2 414.6V19.6H2681H2664.4L2240.4 532V19.6H1974.4V980.8H2198.4L2622.4 468.4V980.8H2978.6L2733.2 414.5999999999999H2989.2zM3686 980.8V765H3392.6V19.6H3251.2H3002.3999999999996L3242.7999999999997 585.8000000000001L2988.9999999999995 585V980.8H3686zM3691 243.6C3737.2 167.6 3801 108 3882 65C3963 22 4054 0.6 4155.6 0.6S4348.200000000001 22 4429.200000000001 65C4510.200000000001 108 4573.800000000001 167.4 4620.200000000001 243.6C4666.400000000001 319.6 4689.6 405.6 4689.6 500.6C4689.6 596.4000000000001 4666.400000000001 681.6 4620.200000000001 757.6C4574.000000000001 833.6 4510.200000000001 893.2 4429.200000000001 936.2C4348.200000000001 979.2 4257.200000000001 1000.6 4155.6 1000.6S3963.000000000001 979.2 3882.000000000001 936.2C3801.000000000001 893.2 3737.400000000001 833.8 3691.000000000001 757.6C3644.8000000000006 681.6 3621.6 595.6 3621.6 500.6C3621.4 404.8 3644.6 319.6 3691 243.6zM4381 356.8C4357.8 315.4 4327.2 283.2 4287.6 260.2C4248 236.9999999999999 4204.200000000001 225.4 4156.200000000001 225.4C4108.200000000001 225.4 4064.400000000001 237 4024.8000000000006 260.2C3985.2000000000007 283.4 3954.600000000001 315.5999999999999 3931.400000000001 356.8C3908.2000000000007 399 3896.6 446.8 3896.6 500.6C3896.6 555.2 3908.2 603 3931.400000000001 644.4C3954.6 685.8 3985.2000000000007 718 4024.8000000000006 741C4063.600000000001 764.2 4107.400000000001 775.8 4156.200000000001 775.8C4204.200000000001 775.8 4248.000000000001 764.2 4287.6 741S4357.8 685.6 4381 644.4C4404.2 602.2 4415.8 554.4 4415.8 500.6C4415.6 446 4404.2 398.2000000000001 4381 356.8zM6239.6 980.8H5971.8L5581.8 98.1999999999999L5428 322.2C5488.4 351.9999999999999 5534.6 391.5999999999999 5567.6 443.5999999999999C5599.8 495.5999999999999 5616.400000000001 555.9999999999999 5616.400000000001 625.3999999999999C5616.400000000001 697.3999999999999 5599.000000000001 760.9999999999999 5564.400000000001 813.8C5529.6 867.5999999999999 5480.200000000001 908.8 5416.400000000001 937.8C5352 966.6 5276.8 980.8 5190 980.8H4750.4V19.5999999999999H5022.2V275H5170.2L5344.599999999999 19.6H5824.799999999999L5900.799999999999 206.4000000000001H6307.4L6382.599999999999 19.6000000000001H6665.2L6239.6 980.8zM5299.2 521.2C5271.2 497.2 5229 484.8 5172.8 484.8H5021.6V766.6H5172.8C5229 766.6 5271.2 754.2 5299.2 729.4S5341.4 669.8 5341.4 625.2C5342.2 580 5327.2 545.2 5299.2 521.2zM6104.2 713.8L5980.2 406.4000000000001H6228.2L6104.2 713.8z" />
    <glyph glyph-name="kontora-1"
      unicode="&#x6B;&#x6F;&#x6E;&#x74;&#x6F;&#x72;&#x61;"
      horiz-adv-x="6639.6" d="M371 368.4L269.4 260V19.6H0V980.8H269.4V581.6L641.4 980.8H940.6L548 555.2L961.2 19.5999999999999H645.4L371 368.4zM914.8 243.6C961 167.6 1024.8 108 1105.8 65C1186.8 22 1277.8 0.6 1379.4 0.6C1481 0.6 1572 22 1653 65C1734 108 1797.6 167.4 1844 243.6S1913.4 405.6 1913.4 500.6C1913.4 596.4000000000001 1890.2 681.6 1844 757.6S1734 893.2 1653 936.2C1572 979 1481 1000.6 1379.4 1000.6C1277.8000000000002 1000.6 1186.8000000000002 979.2 1105.8000000000002 936.2C1024.8000000000002 893.2 961.2000000000002 833.8 914.8000000000002 757.6C868.6000000000001 681.6 845.4000000000002 595.6 845.4000000000002 500.6C845.4 404.8 868.6 319.6 914.8 243.6zM1605 356.8C1581.8 315.4 1551.2 283.2 1511.6 260.2C1472 236.9999999999999 1428.1999999999998 225.4 1380.1999999999998 225.4C1332.1999999999998 225.4 1288.3999999999999 237 1248.7999999999997 260.2C1209.1999999999998 283.4 1178.5999999999997 315.5999999999999 1155.3999999999996 356.8C1132.1999999999996 399 1120.5999999999997 446.8 1120.5999999999997 500.6C1120.5999999999997 555.2 1132.1999999999996 603 1155.3999999999996 644.4C1178.5999999999997 685.8 1209.1999999999996 718 1248.7999999999997 741C1287.5999999999997 764.2 1331.3999999999996 775.8 1380.1999999999998 775.8C1428.1999999999998 775.8 1471.9999999999998 764.2 1511.6 741S1581.8 685.6 1605 644.4C1628.2 602.2 1639.8 554.4 1639.8 500.6C1639.6 446 1628.2 398.2000000000001 1605 356.8zM2989.2 414.6V19.6H2681H2664.4L2240.4 532V19.6H1974.4V980.8H2198.4L2622.4 468.4V980.8H2978.6L2733.2 414.5999999999999H2989.2zM3686 980.8V765H3392.6V19.6H3251.2H3002.3999999999996L3242.7999999999997 585.8000000000001L2988.9999999999995 585V980.8H3686zM3691 243.6C3737.2 167.6 3801 108 3882 65C3963 22 4054 0.6 4155.6 0.6S4348.200000000001 22 4429.200000000001 65C4510.200000000001 108 4573.800000000001 167.4 4620.200000000001 243.6C4666.400000000001 319.6 4689.6 405.6 4689.6 500.6C4689.6 596.4000000000001 4666.400000000001 681.6 4620.200000000001 757.6C4574.000000000001 833.6 4510.200000000001 893.2 4429.200000000001 936.2C4348.200000000001 979.2 4257.200000000001 1000.6 4155.6 1000.6S3963.000000000001 979.2 3882.000000000001 936.2C3801.000000000001 893.2 3737.400000000001 833.8 3691.000000000001 757.6C3644.8000000000006 681.6 3621.6 595.6 3621.6 500.6C3621.4 404.8 3644.6 319.6 3691 243.6zM4381 356.8C4357.8 315.4 4327.2 283.2 4287.6 260.2C4248 236.9999999999999 4204.200000000001 225.4 4156.200000000001 225.4C4108.200000000001 225.4 4064.400000000001 237 4024.8000000000006 260.2C3985.2000000000007 283.4 3954.600000000001 315.5999999999999 3931.400000000001 356.8C3908.2000000000007 399 3896.6 446.8 3896.6 500.6C3896.6 555.2 3908.2 603 3931.400000000001 644.4C3954.6 685.8 3985.2000000000007 718 4024.8000000000006 741C4063.600000000001 764.2 4107.400000000001 775.8 4156.200000000001 775.8C4204.200000000001 775.8 4248.000000000001 764.2 4287.6 741S4357.8 685.6 4381 644.4C4404.2 602.2 4415.8 554.4 4415.8 500.6C4415.6 446 4404.2 398.2000000000001 4381 356.8zM6239.6 980.8H5971.8L5581.8 98.1999999999999L5428 322.2C5488.4 351.9999999999999 5534.6 391.5999999999999 5567.6 443.5999999999999C5599.8 495.5999999999999 5616.400000000001 555.9999999999999 5616.400000000001 625.3999999999999C5616.400000000001 697.3999999999999 5599.000000000001 760.9999999999999 5564.400000000001 813.8C5529.6 867.5999999999999 5480.200000000001 908.8 5416.400000000001 937.8C5352 966.6 5276.8 980.8 5190 980.8H4750.4V19.5999999999999H5022.2V275H5170.2L5344.599999999999 19.6H5824.799999999999L5900.799999999999 206.4000000000001H6307.4L6382.599999999999 19.6000000000001H6665.2L6239.6 980.8zM5299.2 521.2C5271.2 497.2 5229 484.8 5172.8 484.8H5021.6V766.6H5172.8C5229 766.6 5271.2 754.2 5299.2 729.4S5341.4 669.8 5341.4 625.2C5342.2 580 5327.2 545.2 5299.2 521.2zM6104.2 713.8L5980.2 406.4000000000001H6228.2L6104.2 713.8z" />
    <glyph glyph-name="language-be"
      unicode="&#xF10C;"
      horiz-adv-x="1000" d="M0 496C0 773 223 996 500 996S1000 773 1000 496S777 -4 500 -4S0 219 0 496zM953.8 496C953.8 746 750 949.8 500 949.8C250 949.8 46.2 746 46.2 496S250 42.2 500 42.2S953.8 246 953.8 496zM265 685.6C284.6 689.8 315.6 692.8 347 692.8C391.8 692.8 420.8 685 442.4 667.6C460.4 654.2 471.2 633.6 471.2 606.2C471.2 572.6 449 543.2 412.4 529.8000000000001V528.8000000000001C445.4 520.6000000000001 484.2 493.2 484.2 441.6C484.2 411.6 472.4 389 454.8 372C430.6 349.8 391.4000000000001 339.4 334.6 339.4C303.6 339.4 280 341.4 265 343.6V685.6zM310 543.2H350.8C398.2 543.2 426.2000000000001 568 426.2000000000001 601.5999999999999C426.2000000000001 642.4 395.2000000000001 658.4 349.8000000000001 658.4C329.2000000000001 658.4 317.2000000000001 656.8 310.0000000000001 655.4V543.2zM310 376.6C318.8 375 331.6 374.6 347.6 374.6C394 374.6 436.8 391.6 436.8 442.2000000000001C436.8 489.6 396 509.2 347 509.2H310V376.6zM570.6 459.2C571.6 397.8000000000001 610.8000000000001 372.6 656.2 372.6C688.8000000000001 372.6 708.4000000000001 378.2000000000001 725.4000000000001 385.4L733.2 352.8C717.2 345.5999999999999 689.8000000000001 337.4 650.2 337.4C573.4000000000001 337.4 527.4000000000001 388 527.4000000000001 463.4S571.8000000000001 598 644.6000000000001 598C726.2000000000002 598 747.8000000000002 526.2 747.8000000000002 480.4C747.8000000000002 471.1999999999999 746.8000000000002 463.8 746.2000000000002 459.1999999999999H570.6zM703.6 491.6C704.2 520.4000000000001 691.8000000000001 565.4000000000001 640.6 565.4000000000001C594.6 565.4000000000001 574.6 523 571 491.6H703.6z" />
    <glyph glyph-name="language-be-1"
      unicode="&#x6C;&#x61;&#x6E;&#x67;&#x75;&#x61;&#x67;&#x65;&#x2D;&#x62;&#x65;"
      horiz-adv-x="1000" d="M0 496C0 773 223 996 500 996S1000 773 1000 496S777 -4 500 -4S0 219 0 496zM953.8 496C953.8 746 750 949.8 500 949.8C250 949.8 46.2 746 46.2 496S250 42.2 500 42.2S953.8 246 953.8 496zM265 685.6C284.6 689.8 315.6 692.8 347 692.8C391.8 692.8 420.8 685 442.4 667.6C460.4 654.2 471.2 633.6 471.2 606.2C471.2 572.6 449 543.2 412.4 529.8000000000001V528.8000000000001C445.4 520.6000000000001 484.2 493.2 484.2 441.6C484.2 411.6 472.4 389 454.8 372C430.6 349.8 391.4000000000001 339.4 334.6 339.4C303.6 339.4 280 341.4 265 343.6V685.6zM310 543.2H350.8C398.2 543.2 426.2000000000001 568 426.2000000000001 601.5999999999999C426.2000000000001 642.4 395.2000000000001 658.4 349.8000000000002 658.4C329.2000000000001 658.4 317.2000000000001 656.8 310.0000000000001 655.4V543.2zM310 376.6C318.8 375 331.6 374.6 347.6 374.6C394 374.6 436.8 391.6 436.8 442.2000000000001C436.8 489.6 396 509.2 347 509.2H310V376.6zM570.6 459.2C571.6 397.8000000000002 610.8000000000001 372.6 656.2 372.6C688.8000000000001 372.6 708.4000000000001 378.2000000000001 725.4000000000001 385.4L733.2 352.8C717.2 345.5999999999999 689.8000000000001 337.4 650.2 337.4C573.4000000000001 337.4 527.4000000000001 388 527.4000000000001 463.4S571.8000000000001 598 644.6000000000001 598C726.2000000000002 598 747.8000000000002 526.2 747.8000000000002 480.4C747.8000000000002 471.1999999999999 746.8000000000002 463.8 746.2000000000002 459.1999999999999H570.6zM703.6 491.6C704.2 520.4000000000001 691.8000000000001 565.4000000000001 640.6 565.4000000000001C594.6 565.4000000000001 574.6 523 571 491.6H703.6z" />
    <glyph glyph-name="language-en"
      unicode="&#xF10D;"
      horiz-adv-x="1000" d="M0 500C0 777 223 1000 500 1000S1000 777 1000 500S777 0 500 0S0 223 0 500zM953.8 500C953.8 750 750 953.8 500 953.8C250 953.8 46.2 750 46.2 500S250 46.2 500 46.2S953.8 250 953.8 500zM457.2 503.6H322V378.2000000000001H472.6V340.6H277V688.4H464.8V650.8H322V540.8H457.2V503.6zM529.4 522.6C529.4 548.4000000000001 528.8 569.6 527.4 590.2H567.6L570.2 549H571.2C583.6 572.8000000000001 612.4000000000001 596 653.8000000000001 596C688.4000000000001 596 742.0000000000001 575.4000000000001 742.0000000000001 489.8000000000001V340.6000000000002H696.6000000000001V484.6000000000001C696.6000000000001 524.8000000000002 681.6000000000001 558.4000000000001 638.8000000000002 558.4000000000001C608.8000000000002 558.4000000000001 585.6000000000001 537.2000000000002 578.0000000000002 512.0000000000002C576.0000000000002 506.4000000000001 575.0000000000002 498.6000000000002 575.0000000000002 490.8000000000002V340.6000000000002H529.6000000000003V522.6z" />
    <glyph glyph-name="language-en-1"
      unicode="&#x6C;&#x61;&#x6E;&#x67;&#x75;&#x61;&#x67;&#x65;&#x2D;&#x65;&#x6E;"
      horiz-adv-x="1000" d="M0 500C0 777 223 1000 500 1000S1000 777 1000 500S777 0 500 0S0 223 0 500zM953.8 500C953.8 750 750 953.8 500 953.8C250 953.8 46.2 750 46.2 500S250 46.2 500 46.2S953.8 250 953.8 500zM457.2 503.6H322V378.2000000000001H472.6V340.6H277V688.4H464.8V650.8H322V540.8H457.2V503.6zM529.4 522.6C529.4 548.4000000000001 528.8 569.6 527.4 590.2H567.6L570.2 549H571.2C583.6 572.8000000000001 612.4000000000001 596 653.8000000000001 596C688.4000000000001 596 742.0000000000001 575.4000000000001 742.0000000000001 489.8000000000001V340.6000000000002H696.6000000000001V484.6000000000001C696.6000000000001 524.8000000000002 681.6000000000001 558.4000000000001 638.8000000000002 558.4000000000001C608.8000000000002 558.4000000000001 585.6000000000001 537.2000000000002 578.0000000000002 512.0000000000002C576.0000000000002 506.4000000000001 575.0000000000002 498.6000000000002 575.0000000000002 490.8000000000002V340.6000000000002H529.6000000000003V522.6z" />
    <glyph glyph-name="language"
      unicode="&#xF10E;"
      horiz-adv-x="1000" d="M0 500C0 776.9230769230769 223.0769230769231 1000 500 1000C776.9230769230769 1000 1000 776.9230769230769 1000 500C1000 223.0769230769231 776.9230769230769 0 500 0C223.0769230769231 0 0 223.0769230769231 0 500zM953.8461538461538 500C953.8461538461538 750 750 953.846153846154 500 953.846153846154C250 953.8461538461538 46.1538461538462 750 46.1538461538462 500C46.1538461538462 250 250 46.1538461538462 500 46.1538461538462C750 46.1538461538462 953.8461538461538 250 953.8461538461538 500zM300 484.6153846153846V346.1538461538462H261.5384615384616V676.9230769230769H350C392.3076923076923 676.9230769230769 419.2307692307693 669.2307692307693 438.4615384615384 653.8461538461538C457.6923076923076 638.4615384615385 469.2307692307692 615.3846153846155 469.2307692307692 584.6153846153845C469.2307692307692 542.3076923076924 446.1538461538462 511.5384615384615 403.8461538461538 496.1538461538461L492.3076923076923 350H446.1538461538462L365.3846153846154 488.4615384615384H300zM300 515.3846153846155H353.8461538461538C380.7692307692307 515.3846153846155 400 519.2307692307693 411.5384615384615 530.7692307692308C423.0769230769231 542.3076923076924 430.7692307692307 557.6923076923077 430.7692307692307 580.7692307692308C430.7692307692307 603.8461538461539 423.0769230769231 619.2307692307693 411.5384615384615 626.9230769230769C400 638.4615384615386 376.9230769230769 642.3076923076924 350 642.3076923076924H300V515.3846153846155zM576.9230769230769 592.3076923076924V430.7692307692307C576.9230769230769 411.5384615384616 580.7692307692307 396.1538461538462 592.3076923076923 384.6153846153847C600 373.0769230769231 615.3846153846154 369.2307692307693 634.6153846153846 369.2307692307693C661.5384615384614 369.2307692307693 680.7692307692307 376.923076923077 692.3076923076923 392.3076923076924C703.8461538461538 407.6923076923078 711.5384615384615 430.7692307692309 711.5384615384615 461.5384615384617V592.3076923076924H750V346.1538461538462H719.2307692307692L715.3846153846152 380.7692307692307H711.5384615384613C703.8461538461537 369.2307692307692 692.3076923076922 357.6923076923076 680.7692307692306 353.8461538461538C665.3846153846152 346.1538461538462 649.9999999999998 342.3076923076923 634.6153846153844 342.3076923076923C603.8461538461537 342.3076923076923 580.7692307692306 350 565.3846153846152 365.3846153846154C549.9999999999998 380.7692307692307 542.3076923076922 403.8461538461539 542.3076923076922 434.6153846153847V596.1538461538462H576.9230769230769z" />
    <glyph glyph-name="language-1"
      unicode="&#x6C;&#x61;&#x6E;&#x67;&#x75;&#x61;&#x67;&#x65;"
      horiz-adv-x="1000" d="M0 500C0 776.9230769230769 223.0769230769231 1000 500 1000C776.9230769230769 1000 1000 776.9230769230769 1000 500C1000 223.0769230769231 776.9230769230769 0 500 0C223.0769230769231 0 0 223.0769230769231 0 500zM953.8461538461538 500C953.8461538461538 750 750 953.846153846154 500 953.846153846154C250 953.8461538461538 46.1538461538462 750 46.1538461538462 500C46.1538461538462 250 250 46.1538461538462 500 46.1538461538462C750 46.1538461538462 953.8461538461538 250 953.8461538461538 500zM300 484.6153846153846V346.1538461538462H261.5384615384616V676.9230769230769H350C392.3076923076923 676.9230769230769 419.2307692307693 669.2307692307693 438.4615384615384 653.8461538461538C457.6923076923076 638.4615384615385 469.2307692307692 615.3846153846155 469.2307692307692 584.6153846153845C469.2307692307692 542.3076923076924 446.1538461538462 511.5384615384615 403.8461538461538 496.1538461538461L492.3076923076923 350H446.1538461538462L365.3846153846154 488.4615384615384H300zM300 515.3846153846155H353.8461538461538C380.7692307692307 515.3846153846155 400 519.2307692307693 411.5384615384615 530.7692307692308C423.0769230769231 542.3076923076924 430.7692307692307 557.6923076923077 430.7692307692307 580.7692307692308C430.7692307692307 603.8461538461539 423.0769230769231 619.2307692307693 411.5384615384615 626.9230769230769C400 638.4615384615386 376.9230769230769 642.3076923076924 350 642.3076923076924H300V515.3846153846155zM576.9230769230769 592.3076923076924V430.7692307692307C576.9230769230769 411.5384615384616 580.7692307692307 396.1538461538462 592.3076923076923 384.6153846153847C600 373.0769230769231 615.3846153846154 369.2307692307693 634.6153846153846 369.2307692307693C661.5384615384614 369.2307692307693 680.7692307692307 376.923076923077 692.3076923076923 392.3076923076924C703.8461538461538 407.6923076923078 711.5384615384615 430.7692307692309 711.5384615384615 461.5384615384617V592.3076923076924H750V346.1538461538462H719.2307692307692L715.3846153846152 380.7692307692307H711.5384615384613C703.8461538461537 369.2307692307693 692.3076923076922 357.6923076923076 680.7692307692306 353.8461538461538C665.3846153846152 346.1538461538462 649.9999999999998 342.3076923076923 634.6153846153844 342.3076923076923C603.8461538461537 342.3076923076923 580.7692307692306 350 565.3846153846152 365.3846153846154C549.9999999999998 380.7692307692307 542.3076923076922 403.8461538461539 542.3076923076922 434.6153846153847V596.1538461538462H576.9230769230769z" />
    <glyph glyph-name="like-white"
      unicode="&#xF10F;"
      horiz-adv-x="1055.4" d="M965 904.6C935.8 934.8 901 958.8 862.6 975.2C824.2 991.6 783 1000 741.6 1000C663 1000 587.4000000000001 969.8 529.4000000000001 915.2C471.6 969.8 395.8 1000 317.2 1000C275.6 1000 234.4 991.4 196 975C157.6 958.6 122.8 934.6 93.4 904.2C-31.6 775.6 -31.4 574.4 93.6 446.4L529.4 0L965 446.6C1090 574.6 1090.2 775.8 965 904.6z" />
    <glyph glyph-name="like-white-1"
      unicode="&#x6C;&#x69;&#x6B;&#x65;&#x2D;&#x77;&#x68;&#x69;&#x74;&#x65;"
      horiz-adv-x="1055.4" d="M965 904.6C935.8 934.8 901 958.8 862.6 975.2C824.2 991.6 783 1000 741.6 1000C663 1000 587.4000000000001 969.8 529.4000000000001 915.2C471.6 969.8 395.8 1000 317.2 1000C275.6 1000 234.4 991.4 196 975C157.6 958.6 122.8 934.6 93.4 904.2C-31.6 775.6 -31.4 574.4 93.6 446.4L529.4 0L965 446.6C1090 574.6 1090.2 775.8 965 904.6z" />
    <glyph glyph-name="like"
      unicode="&#xF110;"
      horiz-adv-x="1166.6666666666667" d="M583.3333333333334 866.6666666666666C650 955.5555555555557 733.3333333333334 1000 838.8888888888889 1000C1022.2222222222222 1000 1166.6666666666667 844.4444444444445 1166.6666666666667 650C1166.6666666666667 472.2222222222222 1038.888888888889 361.1111111111111 911.111111111111 255.5555555555557C900 250.0000000000001 888.8888888888888 238.8888888888889 877.7777777777777 227.7777777777779C872.2222222222222 222.2222222222223 866.6666666666666 216.6666666666668 861.1111111111111 216.6666666666668L811.111111111111 172.2222222222223C688.8888888888888 61.1111111111112 644.4444444444443 22.2222222222223 622.2222222222221 11.1111111111112C611.1111111111111 5.5555555555557 600 0 583.3333333333334 0C572.2222222222223 0 555.5555555555555 5.5555555555557 544.4444444444445 11.1111111111111C522.2222222222223 22.2222222222222 483.3333333333334 61.111111111111 400.0000000000001 133.3333333333333C388.8888888888889 144.4444444444445 372.2222222222223 155.5555555555556 361.1111111111112 166.6666666666666L305.5555555555556 216.6666666666666C288.8888888888889 233.3333333333334 272.2222222222223 244.4444444444445 261.1111111111112 255.5555555555556C133.3333333333334 366.6666666666667 0 477.7777777777777 0 650C0 844.4444444444445 144.4444444444445 1000 327.7777777777779 1000C433.3333333333333 1000 516.6666666666667 955.5555555555557 583.3333333333334 866.6666666666666zM1094.4444444444443 650C1094.4444444444443 800 977.7777777777778 927.7777777777778 838.8888888888889 927.7777777777778C738.8888888888888 927.7777777777778 683.3333333333334 877.7777777777778 644.4444444444445 822.2222222222222C616.6666666666666 788.8888888888889 605.5555555555555 761.1111111111111 594.4444444444445 744.4444444444445C588.8888888888889 733.3333333333333 583.3333333333334 727.7777777777778 583.3333333333334 727.7777777777778S577.7777777777778 733.3333333333333 572.2222222222223 744.4444444444445C566.6666666666667 761.1111111111111 550 783.3333333333334 522.2222222222223 822.2222222222222C483.3333333333334 877.7777777777778 427.7777777777778 927.7777777777778 327.7777777777779 927.7777777777778C188.8888888888889 927.7777777777778 72.2222222222223 805.5555555555555 72.2222222222223 650C72.2222222222223 505.5555555555555 183.3333333333334 405.5555555555556 311.1111111111112 305.5555555555556C327.7777777777779 294.4444444444445 338.8888888888889 283.3333333333333 355.5555555555556 266.6666666666667C377.7777777777779 250 394.4444444444445 227.7777777777779 416.6666666666667 211.1111111111111C500 133.3333333333334 566.6666666666666 77.7777777777778 588.8888888888889 66.6666666666666C605.5555555555555 77.7777777777777 650 116.6666666666666 733.3333333333334 188.8888888888888C761.1111111111111 211.1111111111111 788.8888888888889 238.8888888888888 822.2222222222222 266.6666666666667C838.8888888888889 283.3333333333333 855.5555555555555 294.4444444444444 872.2222222222222 311.1111111111111C983.3333333333334 411.1111111111111 1094.4444444444443 511.1111111111111 1094.4444444444443 650z" />
    <glyph glyph-name="like-1"
      unicode="&#x6C;&#x69;&#x6B;&#x65;"
      horiz-adv-x="1166.6666666666667" d="M583.3333333333334 866.6666666666666C650 955.5555555555557 733.3333333333334 1000 838.8888888888889 1000C1022.2222222222222 1000 1166.6666666666667 844.4444444444445 1166.6666666666667 650C1166.6666666666667 472.2222222222222 1038.888888888889 361.1111111111111 911.111111111111 255.5555555555557C900 250.0000000000001 888.8888888888888 238.8888888888889 877.7777777777777 227.7777777777779C872.2222222222222 222.2222222222223 866.6666666666666 216.6666666666668 861.1111111111111 216.6666666666668L811.111111111111 172.2222222222223C688.8888888888888 61.1111111111112 644.4444444444443 22.2222222222223 622.2222222222221 11.1111111111112C611.1111111111111 5.5555555555557 600 0 583.3333333333334 0C572.2222222222223 0 555.5555555555555 5.5555555555557 544.4444444444445 11.1111111111111C522.2222222222223 22.2222222222222 483.3333333333334 61.111111111111 400.0000000000001 133.3333333333333C388.8888888888889 144.4444444444445 372.2222222222223 155.5555555555556 361.1111111111112 166.6666666666666L305.5555555555556 216.6666666666666C288.8888888888889 233.3333333333334 272.2222222222223 244.4444444444445 261.1111111111112 255.5555555555556C133.3333333333334 366.6666666666667 0 477.7777777777777 0 650C0 844.4444444444445 144.4444444444445 1000 327.7777777777779 1000C433.3333333333333 1000 516.6666666666667 955.5555555555557 583.3333333333334 866.6666666666666zM1094.4444444444443 650C1094.4444444444443 800 977.7777777777778 927.7777777777778 838.8888888888889 927.7777777777778C738.8888888888888 927.7777777777778 683.3333333333334 877.7777777777778 644.4444444444445 822.2222222222222C616.6666666666666 788.8888888888889 605.5555555555555 761.1111111111111 594.4444444444445 744.4444444444445C588.8888888888889 733.3333333333333 583.3333333333334 727.7777777777778 583.3333333333334 727.7777777777778S577.7777777777778 733.3333333333333 572.2222222222223 744.4444444444445C566.6666666666667 761.1111111111111 550 783.3333333333334 522.2222222222223 822.2222222222222C483.3333333333334 877.7777777777778 427.7777777777779 927.7777777777778 327.7777777777779 927.7777777777778C188.8888888888889 927.7777777777778 72.2222222222223 805.5555555555555 72.2222222222223 650C72.2222222222223 505.5555555555555 183.3333333333334 405.5555555555556 311.1111111111112 305.5555555555556C327.7777777777779 294.4444444444445 338.8888888888889 283.3333333333333 355.5555555555556 266.6666666666667C377.7777777777779 250 394.4444444444445 227.7777777777779 416.6666666666667 211.1111111111111C500 133.3333333333334 566.6666666666666 77.7777777777778 588.8888888888889 66.6666666666666C605.5555555555555 77.7777777777777 650 116.6666666666666 733.3333333333334 188.8888888888888C761.1111111111111 211.1111111111111 788.8888888888889 238.8888888888888 822.2222222222222 266.6666666666667C838.8888888888889 283.3333333333333 855.5555555555555 294.4444444444444 872.2222222222222 311.1111111111111C983.3333333333334 411.1111111111111 1094.4444444444443 511.1111111111111 1094.4444444444443 650z" />
    <glyph glyph-name="location"
      unicode="&#xF111;"
      horiz-adv-x="1000" d="M0 500C0 776.9230769230769 223.0769230769231 1000 500 1000C776.9230769230769 1000 1000 776.9230769230769 1000 500C1000 223.0769230769231 776.9230769230769 0 500 0C223.0769230769231 0 0 223.0769230769231 0 500zM953.8461538461538 500C953.8461538461538 750 750 953.846153846154 500 953.846153846154C250 953.8461538461538 46.1538461538462 750 46.1538461538462 500C46.1538461538462 250 250 46.1538461538462 500 46.1538461538462C750 46.1538461538462 953.8461538461538 250 953.8461538461538 500zM680.7692307692307 703.8461538461538C680.7692307692307 703.8461538461538 676.9230769230768 703.8461538461538 676.9230769230768 703.8461538461538L265.3846153846154 565.3846153846154C257.6923076923077 561.5384615384615 250 553.8461538461538 250 546.1538461538462C250 538.4615384615385 253.8461538461538 526.9230769230769 265.3846153846154 523.0769230769231L450 446.1538461538462L526.9230769230769 261.5384615384616C530.7692307692307 253.8461538461539 538.4615384615385 246.1538461538463 549.9999999999999 246.1538461538463C557.6923076923076 246.1538461538463 569.2307692307692 253.8461538461539 569.2307692307692 261.5384615384616L703.8461538461537 669.2307692307693C707.6923076923076 676.9230769230769 703.8461538461537 684.6153846153846 699.9999999999998 692.3076923076924C696.1538461538462 703.8461538461538 688.4615384615383 703.8461538461538 680.7692307692307 703.8461538461538zM542.3076923076923 338.4615384615386L646.1538461538462 646.1538461538462L338.4615384615385 542.3076923076924L476.9230769230769 484.6153846153846C480.7692307692308 480.7692307692308 488.4615384615385 476.923076923077 488.4615384615385 473.0769230769231L542.3076923076923 338.4615384615386z" />
    <glyph glyph-name="location-1"
      unicode="&#x6C;&#x6F;&#x63;&#x61;&#x74;&#x69;&#x6F;&#x6E;"
      horiz-adv-x="1000" d="M0 500C0 776.9230769230769 223.0769230769231 1000 500 1000C776.9230769230769 1000 1000 776.9230769230769 1000 500C1000 223.0769230769231 776.9230769230769 0 500 0C223.0769230769231 0 0 223.0769230769231 0 500zM953.8461538461538 500C953.8461538461538 750 750 953.846153846154 500 953.846153846154C250 953.8461538461538 46.1538461538462 750 46.1538461538462 500C46.1538461538462 250 250 46.1538461538462 500 46.1538461538462C750 46.1538461538462 953.8461538461538 250 953.8461538461538 500zM680.7692307692307 703.8461538461538C680.7692307692307 703.8461538461538 676.9230769230768 703.8461538461538 676.9230769230768 703.8461538461538L265.3846153846154 565.3846153846154C257.6923076923077 561.5384615384615 250 553.8461538461538 250 546.1538461538462C250 538.4615384615385 253.8461538461538 526.9230769230769 265.3846153846154 523.0769230769231L450 446.1538461538462L526.9230769230769 261.5384615384616C530.7692307692307 253.8461538461539 538.4615384615385 246.1538461538463 549.9999999999999 246.1538461538463C557.6923076923076 246.1538461538463 569.2307692307692 253.8461538461539 569.2307692307692 261.5384615384616L703.8461538461537 669.2307692307693C707.6923076923076 676.9230769230769 703.8461538461537 684.6153846153846 699.9999999999998 692.3076923076924C696.1538461538462 703.8461538461538 688.4615384615383 703.8461538461538 680.7692307692307 703.8461538461538zM542.3076923076923 338.4615384615386L646.1538461538462 646.1538461538462L338.4615384615385 542.3076923076924L476.9230769230769 484.6153846153846C480.7692307692308 480.7692307692308 488.4615384615385 476.923076923077 488.4615384615385 473.0769230769231L542.3076923076923 338.4615384615386z" />
    <glyph glyph-name="logo-gradient"
      unicode="&#xF112;"
      horiz-adv-x="1000" d="M123.7956521739131 128.6304347826088H871.3695652173913V876.204347826087H123.7956521739131V128.6304347826088zM247.8373913043479 366.1478260869565H681.3739130434783L747.3347826086957 242.3391304347826H247.8373913043479V366.1478260869565zM645.9347826086957 562.6695652173912H247.8373913043479V438.8739130434782H645.9608695652174L645.9347826086957 562.6695652173912zM247.8373913043479 762.4947826086957H747.3347826086957L680.104347826087 638.6800000000001H247.8373913043479V762.4947826086957zM0 4.8391304347825H995.1652173913044V1000H0V4.8391304347825z" />
    <glyph glyph-name="logo-gradient-1"
      unicode="&#x6C;&#x6F;&#x67;&#x6F;&#x2D;&#x67;&#x72;&#x61;&#x64;&#x69;&#x65;&#x6E;&#x74;"
      horiz-adv-x="1000" d="M123.7956521739131 128.6304347826088H871.3695652173913V876.204347826087H123.7956521739131V128.6304347826088zM247.8373913043479 366.1478260869565H681.3739130434783L747.3347826086957 242.3391304347826H247.8373913043479V366.1478260869565zM645.9347826086957 562.6695652173912H247.8373913043479V438.8739130434782H645.9608695652174L645.9347826086957 562.6695652173912zM247.8373913043479 762.4947826086957H747.3347826086957L680.104347826087 638.6800000000001H247.8373913043479V762.4947826086957zM0 4.8391304347825H995.1652173913044V1000H0V4.8391304347825z" />
    <glyph glyph-name="logo-white"
      unicode="&#xF113;"
      horiz-adv-x="1000" d="M248.6 362L683.2 362L748.6 236.4L246 236.4L246 362zM248.6 560.6H648V435H248.6V560.6zM248.6 761.6L751 761.6L683.2 635.8L248.6 635.8zM-2.8 1000V0H997.2V1000H-2.8zM873 124.4H121.6V875.6H872.8000000000001V124.4z" />
    <glyph glyph-name="logo-white-1"
      unicode="&#x6C;&#x6F;&#x67;&#x6F;&#x2D;&#x77;&#x68;&#x69;&#x74;&#x65;"
      horiz-adv-x="1000" d="M248.6 362L683.2 362L748.6 236.4L246 236.4L246 362zM248.6 560.6H648V435H248.6V560.6zM248.6 761.6L751 761.6L683.2 635.8L248.6 635.8zM-2.8 1000V0H997.2V1000H-2.8zM873 124.4H121.6V875.6H872.8000000000001V124.4z" />
    <glyph glyph-name="loupe"
      unicode="&#xF114;"
      horiz-adv-x="1000" d="M414.2857142857143 176.1904761904762C185.7142857142857 176.1904761904762 0 361.904761904762 0 590.4761904761905C0 814.2857142857142 185.7142857142857 1000 414.2857142857143 1000S828.5714285714286 814.2857142857142 828.5714285714286 590.4761904761905C828.5714285714286 485.7142857142857 790.4761904761904 395.2380952380953 728.5714285714286 319.0476190476191L985.7142857142856 61.9047619047617C1000 47.6190476190475 1000 33.3333333333331 985.7142857142856 19.0476190476189C980.9523809523808 14.2857142857141 971.4285714285714 9.5238095238095 966.6666666666669 9.5238095238095S952.3809523809524 9.5238095238095 942.8571428571428 19.0476190476189L685.7142857142858 276.1904761904762C609.5238095238095 214.2857142857142 514.2857142857143 176.1904761904762 414.2857142857143 176.1904761904762zM414.2857142857143 938.095238095238C219.047619047619 938.095238095238 61.9047619047619 780.952380952381 61.9047619047619 585.7142857142857S219.047619047619 238.0952380952381 414.2857142857143 238.0952380952381C609.5238095238095 238.0952380952381 766.6666666666667 395.2380952380953 766.6666666666667 590.4761904761905S604.7619047619047 938.095238095238 414.2857142857143 938.095238095238z" />
    <glyph glyph-name="loupe-1"
      unicode="&#x6C;&#x6F;&#x75;&#x70;&#x65;"
      horiz-adv-x="1000" d="M414.2857142857143 176.1904761904762C185.7142857142857 176.1904761904762 0 361.904761904762 0 590.4761904761905C0 814.2857142857142 185.7142857142857 1000 414.2857142857143 1000S828.5714285714286 814.2857142857142 828.5714285714286 590.4761904761905C828.5714285714286 485.7142857142857 790.4761904761904 395.2380952380953 728.5714285714286 319.0476190476191L985.7142857142856 61.9047619047617C1000 47.6190476190475 1000 33.3333333333331 985.7142857142856 19.0476190476189C980.9523809523808 14.2857142857141 971.4285714285714 9.5238095238095 966.6666666666669 9.5238095238095S952.3809523809524 9.5238095238095 942.8571428571428 19.0476190476189L685.7142857142858 276.1904761904762C609.5238095238095 214.2857142857142 514.2857142857143 176.1904761904762 414.2857142857143 176.1904761904762zM414.2857142857143 938.095238095238C219.047619047619 938.095238095238 61.9047619047619 780.952380952381 61.9047619047619 585.7142857142857S219.047619047619 238.0952380952381 414.2857142857143 238.0952380952381C609.5238095238095 238.0952380952381 766.6666666666667 395.2380952380953 766.6666666666667 590.4761904761905S604.7619047619047 938.095238095238 414.2857142857143 938.095238095238z" />
    <glyph glyph-name="map-pin"
      unicode="&#xF115;"
      horiz-adv-x="797.6" d="M693.4 402.2000000000001L667 422.6L667 422.6L693.4 402.2000000000001zM416.4 41L440 17.4L441.6 19L443 20.8L416.4 41zM412.2 36.8L432.2 10.1999999999999L434 11.5999999999999L435.6 13.1999999999999L412.2 36.8zM383.8 41L410.4000000000001 61L410.2000000000001 61.2000000000001L383.8 41zM106.6 402.2000000000001L133 422.4000000000001L133 422.4000000000001L106.6 402.2000000000001zM371.4 475.4L378.6 508L378.2 508L371.4 475.4zM259.4 641.8L226.8 648.6L259.4 641.8zM426.4 475.4L420.2 508.2L419.6 508.2L419 508L426.4 475.4zM538.6 641.8L505.8 636L505.8 635.8L538.6 641.8zM426.4 753.6L433.4 786.2L433.2 786.2L426.4 753.6zM400 1000C181.2 1000 0 828 0 613.4H66.6C66.6 788.5999999999999 215.4 933.4 400 933.4V1000zM800 613.4C800 828 618.8 1000 400 1000V933.4C584.4 933.4 733.4 788.8 733.4 613.4H800zM719.8 382C770.8 448.4 800 528.6 800 613.4H733.4C733.4 544 709.6 478 667 422.5999999999999L719.8 382zM442.8 20.6L719.8 382L666.8 422.6L389.8 61.2000000000001L442.8 20.6zM435.8 13.2L439.8 17.2L392.8 64.4000000000001L388.8 60.4000000000001L435.8 13.2zM357 20.8C366.6 8 380.6 2.1999999999999 392.4 0.4C404.2 -1.2 419.4 0.4 432 10L392 63.4C396.6 66.8 400.4 66.6 401.6 66.4C402.8 66.1999999999999 406.6 65.4 410 60.8L357 20.8zM80.2 382L357.2 20.6L410.2 61.2000000000001L133.2 422.6L80.2 382zM0 613.4C0 528.4 29.2 448.2000000000001 80.2 382L133 422.6C90.4 478 66.6 544 66.6 613.4H0zM378.4 508C317.8 520.8 279.8 577 292.2 635L227 648.8C206.6 552.4 270.6 462.6 364.8 442.8L378.4 508zM419.2 508C405.6 505 392.2 505 378.6 508L364.2 443C387.2 437.8 410.6 437.8 433.6 443L419.2 508zM505.8 635.8C516.8 576.2 477.2 518.8 420.4 508.2L432.8 442.6C526.5999999999999 460.2 589 553.2 571.4 647.8L505.8 635.8zM419.6 721C464.8 711.4 498.2 678.2 505.8 636L571.4 647.8C558.6 719.2 502.4 771.4 433.6 786.2L419.6 721zM292 635C304.8 695.2 361.2 733.2 419.6 721L433.2000000000001 786.2C336.8000000000001 806.4 246.6000000000001 743 226.8000000000001 648.8L292 635z" />
    <glyph glyph-name="map-pin-1"
      unicode="&#x6D;&#x61;&#x70;&#x2D;&#x70;&#x69;&#x6E;"
      horiz-adv-x="797.6" d="M693.4 402.2000000000001L667 422.6L667 422.6L693.4 402.2000000000001zM416.4 41L440 17.4L441.6 19L443 20.8L416.4 41zM412.2 36.8L432.2 10.1999999999999L434 11.5999999999999L435.6 13.1999999999999L412.2 36.8zM383.8 41L410.4000000000001 61L410.2000000000001 61.2000000000001L383.8 41zM106.6 402.2000000000001L133 422.4000000000001L133 422.4000000000001L106.6 402.2000000000001zM371.4 475.4L378.6 508L378.2 508L371.4 475.4zM259.4 641.8L226.8 648.6L259.4 641.8zM426.4 475.4L420.2 508.2L419.6 508.2L419 508L426.4 475.4zM538.6 641.8L505.8 636L505.8 635.8L538.6 641.8zM426.4 753.6L433.4 786.2L433.2 786.2L426.4 753.6zM400 1000C181.2 1000 0 828 0 613.4H66.6C66.6 788.5999999999999 215.4 933.4 400 933.4V1000zM800 613.4C800 828 618.8 1000 400 1000V933.4C584.4 933.4 733.4 788.8 733.4 613.4H800zM719.8 382C770.8 448.4 800 528.6 800 613.4H733.4C733.4 544 709.6 478 667 422.5999999999999L719.8 382zM442.8 20.6L719.8 382L666.8 422.6L389.8 61.2000000000001L442.8 20.6zM435.8 13.2L439.8 17.2L392.8 64.4000000000001L388.8 60.4000000000001L435.8 13.2zM357 20.8C366.6 8 380.6 2.1999999999999 392.4 0.4C404.2 -1.2 419.4 0.4 432 10L392 63.4C396.6 66.8 400.4 66.6 401.6 66.4C402.8 66.1999999999999 406.6 65.4 410 60.8L357 20.8zM80.2 382L357.2 20.6L410.2 61.2000000000001L133.2 422.6L80.2 382zM0 613.4C0 528.4 29.2 448.2000000000001 80.2 382L133 422.6C90.4 478 66.6 544 66.6 613.4H0zM378.4 508C317.8 520.8 279.8 577 292.2 635L227 648.8C206.6 552.4 270.6 462.6 364.8 442.8L378.4 508zM419.2 508C405.6 505 392.2 505 378.6 508L364.2 443C387.2 437.8 410.6 437.8 433.6 443L419.2 508zM505.8 635.8C516.8 576.2 477.2 518.8 420.4 508.2L432.8 442.6C526.5999999999999 460.2 589 553.2 571.4 647.8L505.8 635.8zM419.6 721C464.8 711.4 498.2 678.2 505.8 636L571.4 647.8C558.6 719.2 502.4 771.4 433.6 786.2L419.6 721zM292 635C304.8 695.2 361.2 733.2 419.6 721L433.2000000000001 786.2C336.8000000000002 806.4 246.6000000000001 743 226.8000000000001 648.8L292 635z" />
    <glyph glyph-name="next-arrow"
      unicode="&#xF116;"
      horiz-adv-x="6775.067750677506" d="M55.5555555555556 555.5555555555557H0V444.4444444444445H55.5555555555556V555.5555555555557zM6758.807588075881 460.7046070460705C6780.487804878049 482.3848238482385 6780.487804878049 517.6151761517616 6758.807588075881 539.2953929539295L6405.1490514905145 892.9539295392954C6383.468834688347 914.6341463414634 6348.238482384824 914.6341463414634 6326.558265582656 892.9539295392954C6304.878048780487 871.2737127371274 6304.878048780487 836.0433604336043 6326.558265582656 814.3631436314363L6640.921409214092 500L6326.558265582656 185.6368563685637C6304.878048780487 163.9566395663957 6304.878048780487 128.7262872628727 6326.558265582656 107.0460704607048C6348.238482384824 85.3658536585368 6383.468834688347 85.3658536585368 6405.1490514905145 107.0460704607048L6758.807588075881 460.7046070460706zM55.5555555555556 444.4444444444445H6719.512195121952V555.5555555555557H55.5555555555556V444.4444444444445z" />
    <glyph glyph-name="next-arrow-1"
      unicode="&#x6E;&#x65;&#x78;&#x74;&#x2D;&#x61;&#x72;&#x72;&#x6F;&#x77;"
      horiz-adv-x="6775.067750677506" d="M55.5555555555556 555.5555555555557H0V444.4444444444445H55.5555555555556V555.5555555555557zM6758.807588075881 460.7046070460705C6780.487804878049 482.3848238482385 6780.487804878049 517.6151761517616 6758.807588075881 539.2953929539295L6405.1490514905145 892.9539295392954C6383.468834688347 914.6341463414634 6348.238482384824 914.6341463414634 6326.558265582656 892.9539295392954C6304.878048780487 871.2737127371274 6304.878048780487 836.0433604336043 6326.558265582656 814.3631436314363L6640.921409214092 500L6326.558265582656 185.6368563685637C6304.878048780487 163.9566395663957 6304.878048780487 128.7262872628727 6326.558265582656 107.0460704607048C6348.238482384824 85.3658536585368 6383.468834688347 85.3658536585368 6405.1490514905145 107.0460704607048L6758.807588075881 460.7046070460706zM55.5555555555556 444.4444444444445H6719.512195121952V555.5555555555557H55.5555555555556V444.4444444444445z" />
    <glyph glyph-name="phone"
      unicode="&#xF117;"
      horiz-adv-x="1050" d="M0 767.754C13.3946 841.0615 73.7565 918.5275 133.5975 975.46V975.4646C178.9315 1005.9477 224.9365 1010.51075 271.732 974.9723L407.85 845.9355C439.3785000000001 814.8340000000001 440.0325 759.6355 419.9495 716.9C406.0255 697.955 391.2645 678.856 376.5355 659.799C367.743 648.4225 358.962 637.0615 350.378 625.7570000000001C344.411 603.8815 355.2445 581.1815 372.56 560.0415C394.837 531.4805 428.4165 499.815 459.318 470.6800000000001C464.966 465.355 470.525 460.11 475.9089999999999 454.99C510.15 422.405 552.77 382.86 589.845 357.61C590.975 356.8450000000001 592.16 356.035 593.395 355.195C609.38 344.2650000000001 633.485 327.78 654.88 335.075L746.63 399.35C790.86 420.43 845.5899999999999 421.975 887.7900000000001 388.8L1024.415 258.805C1057.165 226.5450000000001 1059.865 163.65 1024.415 129.7650000000001C970.665 81.5649999999999 882.045 9.595 810.155 2.165C728.7 -9.6 643.38 27.8299999999999 557.58 83.7149999999999C471.7815 139.6000000000001 384.83 216.425 304.5015 292.86C142.3025 447.19 2.018585 614.086 0 767.754zM361.975 802.292L226.361 931.8105L226.362 931.8125C208.431 940.094 195.8145 943.6645 177.965 930.8585C116.8245 869.054 74.627 812.494 65.0375 765.8444999999999C68.502 650.2045 193.4275 485.385 350.3815 336.0400000000001C429.4105 260.8450000000001 514.01 186.595 593.88 134.5700000000001C673.52 82.7000000000001 747.36 55.2199999999999 800.075 62.6200000000001C848.0600000000001 71.6049999999999 892.51 106.7500000000001 935.465 140.7199999999999C950.31 152.4599999999999 964.975 164.055 979.55 174.385C986.525 189.5949999999999 988.41 200.8250000000001 978.54 215.64L842.4200000000001 345.155C821.9350000000001 355.245 803.57 355.605 780.915 347.075C773.09 341.6 765.26 336.125 757.43 330.65C736.005 315.67 714.58 300.695 693.1949999999999 285.665C650.31 258.62 592.8 279.76 552.035 307.25C510.815 335.3250000000001 470.2325 374 437.0415000000001 405.63C434.8405 407.725 432.672 409.795 430.5380000000001 411.825C423.7155 418.3150000000001 416.4445 425.0750000000001 408.921 432.0700000000001C379.438 459.48 346.0795 490.49 320.6355 523.1134999999999C290.0055 562.732 268.439 611.8119999999999 298.453 662.2215L362.983 746.169C369.419 765.8585 374.086 783.7660000000001 361.975 802.292z" />
    <glyph glyph-name="phone-1"
      unicode="&#x70;&#x68;&#x6F;&#x6E;&#x65;"
      horiz-adv-x="1050" d="M0 767.754C13.3946 841.0615 73.7565 918.5275 133.5975 975.46V975.4646C178.9315 1005.9477 224.9365 1010.51075 271.7320000000001 974.9723L407.85 845.9355C439.3785000000001 814.8340000000001 440.0325000000001 759.6355 419.9495 716.9C406.0255 697.955 391.2645 678.856 376.5355 659.799C367.743 648.4225 358.962 637.0615 350.378 625.7570000000001C344.411 603.8815 355.2445 581.1815 372.56 560.0415C394.837 531.4805 428.4165 499.815 459.318 470.6800000000001C464.966 465.355 470.525 460.11 475.9089999999999 454.99C510.15 422.405 552.77 382.86 589.845 357.61C590.975 356.8450000000001 592.16 356.0350000000001 593.395 355.195C609.38 344.2650000000001 633.485 327.78 654.88 335.075L746.63 399.35C790.86 420.43 845.5899999999999 421.975 887.7900000000001 388.8L1024.415 258.805C1057.165 226.5450000000001 1059.865 163.65 1024.415 129.7650000000001C970.665 81.5649999999999 882.045 9.595 810.155 2.165C728.7 -9.6 643.38 27.8299999999999 557.58 83.7149999999999C471.7815 139.6000000000001 384.83 216.425 304.5015 292.86C142.3025 447.19 2.018585 614.086 0 767.754zM361.975 802.292L226.361 931.8105L226.362 931.8125C208.431 940.094 195.8145 943.6645 177.965 930.8585C116.8245 869.054 74.627 812.494 65.0375 765.8444999999999C68.502 650.2045 193.4275 485.385 350.3815 336.0400000000001C429.4105 260.8450000000001 514.01 186.595 593.88 134.5700000000001C673.52 82.7000000000001 747.36 55.2199999999999 800.075 62.6200000000001C848.0600000000001 71.6049999999999 892.51 106.7500000000001 935.465 140.7199999999999C950.31 152.4599999999999 964.975 164.055 979.55 174.385C986.525 189.5949999999999 988.41 200.8250000000001 978.54 215.64L842.4200000000001 345.155C821.9350000000001 355.245 803.57 355.605 780.915 347.075C773.09 341.6 765.26 336.125 757.43 330.65C736.005 315.67 714.58 300.695 693.1949999999999 285.665C650.31 258.62 592.8 279.76 552.035 307.25C510.815 335.3250000000001 470.2325 374 437.0415000000001 405.63C434.8405 407.725 432.6720000000001 409.795 430.5380000000001 411.825C423.7155 418.3150000000001 416.4445 425.0750000000001 408.921 432.0700000000001C379.438 459.48 346.0795 490.49 320.6355 523.1134999999999C290.0055 562.732 268.439 611.8119999999999 298.453 662.2215L362.983 746.169C369.419 765.8585 374.086 783.7660000000001 361.975 802.292z" />
    <glyph glyph-name="prev-arrow"
      unicode="&#xF118;"
      horiz-adv-x="6775.067750677506" d="M6719.512195121951 555.5555555555557H6775.067750677506V444.4444444444445H6719.512195121951V555.5555555555557zM16.260162601626 460.7046070460705C-5.420054200542 482.3848238482385 -5.420054200542 517.6151761517616 16.260162601626 539.2953929539295L369.9186991869919 892.9539295392954C391.59891598916 914.6341463414634 426.8292682926829 914.6341463414634 448.509485094851 892.9539295392954C470.189701897019 871.2737127371274 470.189701897019 836.0433604336043 448.509485094851 814.3631436314363L134.1463414634147 500L448.509485094851 185.6368563685637C470.189701897019 163.9566395663957 470.189701897019 128.7262872628727 448.509485094851 107.0460704607048C426.8292682926829 85.3658536585368 391.59891598916 85.3658536585368 369.9186991869919 107.0460704607048L16.260162601626 460.7046070460705zM6719.512195121951 444.4444444444445H55.5555555555556V555.5555555555557H6719.512195121952V444.4444444444445z" />
    <glyph glyph-name="prev-arrow-1"
      unicode="&#x70;&#x72;&#x65;&#x76;&#x2D;&#x61;&#x72;&#x72;&#x6F;&#x77;"
      horiz-adv-x="6775.067750677506" d="M6719.512195121951 555.5555555555557H6775.067750677506V444.4444444444445H6719.512195121951V555.5555555555557zM16.260162601626 460.7046070460705C-5.420054200542 482.3848238482385 -5.420054200542 517.6151761517616 16.260162601626 539.2953929539295L369.9186991869919 892.9539295392954C391.59891598916 914.6341463414634 426.8292682926829 914.6341463414634 448.509485094851 892.9539295392954C470.189701897019 871.2737127371274 470.189701897019 836.0433604336043 448.509485094851 814.3631436314363L134.1463414634147 500L448.509485094851 185.6368563685637C470.189701897019 163.9566395663957 470.189701897019 128.7262872628727 448.509485094851 107.0460704607048C426.8292682926829 85.3658536585368 391.59891598916 85.3658536585368 369.9186991869919 107.0460704607048L16.260162601626 460.7046070460705zM6719.512195121951 444.4444444444445H55.5555555555556V555.5555555555557H6719.512195121952V444.4444444444445z" />
    <glyph glyph-name="shape"
      unicode="&#xF119;"
      horiz-adv-x="1000" d="M500 1000C224.2 1000 0 775.8 0 500S224.2 0 500 0S1000 224.2000000000001 1000 500S775.8 1000 500 1000zM500 45.4C248.6 45.4 45.4 248.6 45.4 500S248.6 954.6 500 954.6S954.6 751.4 954.6 500S751.4 45.4 500 45.4zM679.4 704.6C677.8 704.4000000000001 676.1999999999999 704 674.8 703.6L265.8 567.2C256.8 564.2 250.6 555.8000000000001 250.2 546.4000000000001C249.8 536.8 255.6 528.2 264.4 524.6L448.8 448.6L524.8 264.2000000000001C528.4 255.4000000000001 537 249.8000000000001 546.5999999999999 250C556.1999999999999 250.4 564.3999999999999 256.6 567.3999999999999 265.6L703.7999999999998 674.6C706.1999999999998 682 704.7999999999998 690.2 699.9999999999999 696.2C694.8 702.4 687 705.4 679.4 704.6zM543 338L486.8 474.8C484.4 480.4 480 485 474.4 487.1999999999999L337.6 543.3999999999999L645.4000000000001 646.3999999999999L543 338z" />
    <glyph glyph-name="shape-1"
      unicode="&#x73;&#x68;&#x61;&#x70;&#x65;"
      horiz-adv-x="1000" d="M500 1000C224.2 1000 0 775.8 0 500S224.2 0 500 0S1000 224.2000000000001 1000 500S775.8 1000 500 1000zM500 45.4C248.6 45.4 45.4 248.6 45.4 500S248.6 954.6 500 954.6S954.6 751.4 954.6 500S751.4 45.4 500 45.4zM679.4 704.6C677.8 704.4000000000001 676.1999999999999 704 674.8 703.6L265.8 567.2C256.8 564.2 250.6 555.8000000000001 250.2 546.4000000000001C249.8 536.8 255.6 528.2 264.4 524.6L448.8 448.6L524.8 264.2000000000001C528.4 255.4000000000001 537 249.8000000000001 546.5999999999999 250C556.1999999999999 250.4 564.3999999999999 256.6 567.3999999999999 265.6L703.7999999999998 674.6C706.1999999999998 682 704.7999999999998 690.2 699.9999999999999 696.2C694.8 702.4 687 705.4 679.4 704.6zM543 338L486.8 474.8C484.4 480.4 480 485 474.4 487.1999999999999L337.6 543.3999999999999L645.4000000000001 646.3999999999999L543 338z" />
    <glyph glyph-name="small-arrow"
      unicode="&#xF11A;"
      horiz-adv-x="567.8183613030603" d="M0.0375518262586 74.1051924975321L493.6813030602172 567.7489437314907L567.8116288252714 493.6186179664363L74.1678775913129 -0.0251332675223L0.0375518262586 74.105192497532zM-0.0318460019743 912.9922408687067L74.09847976308 987.122566633761L567.7422309970385 493.4788153998024L493.6119052319842 419.3484896347482L-0.0318460019743 912.9922408687067z" />
    <glyph glyph-name="small-arrow-1"
      unicode="&#x73;&#x6D;&#x61;&#x6C;&#x6C;&#x2D;&#x61;&#x72;&#x72;&#x6F;&#x77;"
      horiz-adv-x="567.8183613030603" d="M0.0375518262586 74.1051924975321L493.6813030602172 567.7489437314907L567.8116288252714 493.6186179664363L74.1678775913129 -0.0251332675223L0.0375518262586 74.105192497532zM-0.0318460019743 912.9922408687067L74.09847976308 987.122566633761L567.7422309970385 493.4788153998024L493.6119052319842 419.3484896347482L-0.0318460019743 912.9922408687067z" />
    <glyph glyph-name="telegram"
      unicode="&#xF11B;"
      horiz-adv-x="1000" d="M932.4 883.8L46.6 567C-13.8 544.4 -13.6 513.2 35.6 499.2L263 433.4L789.2 741.2C814 755.2 836.8000000000001 747.6 818.2 732.4L391.8 375.6L376.2 158.2000000000001C399.2 158.2000000000001 409.4 168 422.2 179.6L532.6 279.2000000000001L762.4000000000001 121.8000000000001C804.8000000000001 100.2000000000001 835.2 111.2000000000001 845.8000000000001 158.2000000000001L996.6000000000003 817.4000000000001C1012 874.8 973 900.8 932.4 883.8z" />
    <glyph glyph-name="telegram-1"
      unicode="&#x74;&#x65;&#x6C;&#x65;&#x67;&#x72;&#x61;&#x6D;"
      horiz-adv-x="1000" d="M932.4 883.8L46.6 567C-13.8 544.4 -13.6 513.2 35.6 499.2L263 433.4L789.2 741.2C814 755.2 836.8000000000001 747.6 818.2 732.4L391.8 375.6L376.2 158.2000000000001C399.2 158.2000000000001 409.4 168 422.2 179.6L532.6 279.2000000000001L762.4000000000001 121.8000000000001C804.8000000000001 100.2000000000001 835.2 111.2000000000001 845.8000000000001 158.2000000000001L996.6000000000003 817.4000000000001C1012 874.8 973 900.8 932.4 883.8z" />
    <glyph glyph-name="tiny-arrow"
      unicode="&#xF11C;"
      horiz-adv-x="706.6" d="M655 551.8L603.2 500L603.2 500L655 551.8L603.2 603.6L551.4 655.4L310.2 896.4L258.4 948.2L206.6 1000L155 948.2L206.6 896.4L206.6 896.4L155 948.2L51.4 844.6L103.2 792.8L103.2 792.8L51.4 844.6L-0.4 792.8L51.4 741.2L103.2 689.4L292.4 500L103.2 310.6L51.4 258.8L103.2 207.2000000000001L103.2 207.2000000000001L51.4 258.8L-0.4 207.2000000000001L51.4 155.4L155 51.8L206.6 103.6L206.6 103.6L155 51.8L206.6 0L258.4 51.8L310.2 103.6L551.4 344.6L603.2 396.4L655 448.2000000000001L706.6 500z" />
    <glyph glyph-name="tiny-arrow-1"
      unicode="&#x74;&#x69;&#x6E;&#x79;&#x2D;&#x61;&#x72;&#x72;&#x6F;&#x77;"
      horiz-adv-x="706.6" d="M655 551.8L603.2 500L603.2 500L655 551.8L603.2 603.6L551.4 655.4L310.2 896.4L258.4 948.2L206.6 1000L155 948.2L206.6 896.4L206.6 896.4L155 948.2L51.4 844.6L103.2 792.8L103.2 792.8L51.4 844.6L-0.4 792.8L51.4 741.2L103.2 689.4L292.4 500L103.2 310.6L51.4 258.8L103.2 207.2000000000001L103.2 207.2000000000001L51.4 258.8L-0.4 207.2000000000001L51.4 155.4L155 51.8L206.6 103.6L206.6 103.6L155 51.8L206.6 0L258.4 51.8L310.2 103.6L551.4 344.6L603.2 396.4L655 448.2000000000001L706.6 500z" />
    <glyph glyph-name="viber"
      unicode="&#xF11D;"
      horiz-adv-x="1000" d="M854.2 854.6C760.2 948.4 635.2 1000 502 1000C227.6 1000 4.2 777.8 4 504.6C4 417.2000000000001 27 332 70.4 256.8L-0.2 0L263.6 68.8C336.4000000000001 29.1999999999999 418.4000000000001 8.4 501.8 8.4C776.4000000000001 8.4 999.6 230.8 999.8 504C1000 636.4 948.2 761 854.2 854.6zM501.8 92.2000000000001C413.2000000000001 92.4000000000001 346.2000000000001 117.2000000000001 276 158.6L119.4 117.6L161.2 269.6C115.4 342.2000000000001 88.2 411.6 88.2 504.4C88.2 731.4000000000001 274 916.2 502.2 916.2C731 916 915.8 731.6 915.8 504C915.6 277 729.8 92.2000000000001 501.8 92.2000000000001zM735.8 397.4C733.5999999999999 398.4 731.4 399.6 729 400.6C716.6 406.8000000000001 655.4 436.6 644 440.8000000000001C632.6 445.0000000000001 624.4 447.0000000000001 616 434.6C607.8 422.2000000000001 583.8 394.2000000000001 576.6 386C569.4 377.8 562 376.8 549.6 383C547.6 384.2000000000001 544.8000000000001 385.4 541.4 386.8C523.8 394.4 489.4 409.4 449.6 444.5999999999999C412.6 477.3999999999999 387.6 517.9999999999999 380.4 530.3999999999999C373.2 542.8 379.6 549.3999999999999 385.8 555.5999999999999C389.4 559.1999999999999 393.8 564.3999999999999 398 569.5999999999999C400.2 572.1999999999999 402.3999999999999 574.8 404.3999999999999 577.1999999999999C409.7999999999999 583.1999999999999 412 587.8 415.2 594.1999999999999C415.8 595.3999999999999 416.3999999999999 596.5999999999999 417 597.8C421.2 606.1999999999999 419.2 613.4 416 619.5999999999999C413.8 624 401.2 654.4 390.2 681C385.3999999999999 692.8 380.8 704 377.5999999999999 711.5999999999999C368.5999999999999 732.8 359.5999999999999 732.8 352.3999999999999 732.8C351.3999999999999 732.8 350.3999999999999 732.8 349.5999999999999 732.8L325.7999999999999 733.1999999999999C317.3999999999999 733.1999999999999 303.9999999999999 730 292.5999999999999 717.5999999999999C291.7999999999999 716.8 290.9999999999999 715.9999999999999 289.9999999999999 714.9999999999999C276.9999999999999 701.1999999999998 248.9999999999999 671.3999999999999 248.9999999999999 614.3999999999999C248.9999999999999 553.9999999999999 292.7999999999999 495.5999999999999 299.5999999999999 486.5999999999999L299.7999999999999 486.3999999999999C300.1999999999999 485.7999999999998 300.9999999999999 484.7999999999998 301.9999999999999 483.1999999999998C316.9999999999999 461.5999999999998 395.7999999999999 349.3999999999999 512.1999999999998 299.3999999999999C541.9999999999998 286.7999999999999 565.1999999999998 279.1999999999998 583.1999999999998 273.3999999999999C612.9999999999998 263.9999999999999 640.1999999999998 265.1999999999998 661.5999999999998 268.3999999999999C685.5999999999998 271.7999999999999 735.1999999999998 298.1999999999998 745.5999999999998 327.1999999999998S755.9999999999998 380.9999999999998 752.7999999999998 386.1999999999998C750.4 390.4 744.4 393.2000000000001 735.8 397.4z" />
    <glyph glyph-name="viber-1"
      unicode="&#x76;&#x69;&#x62;&#x65;&#x72;"
      horiz-adv-x="1000" d="M854.2 854.6C760.2 948.4 635.2 1000 502 1000C227.6 1000 4.2 777.8 4 504.6C4 417.2000000000001 27 332 70.4 256.8L-0.2 0L263.6 68.8C336.4000000000001 29.1999999999999 418.4000000000001 8.4 501.8 8.4C776.4000000000001 8.4 999.6 230.8 999.8 504C1000 636.4 948.2 761 854.2 854.6zM501.8 92.2000000000001C413.2000000000001 92.4000000000001 346.2000000000001 117.2000000000001 276 158.6L119.4 117.6L161.2 269.6C115.4 342.2000000000001 88.2 411.6 88.2 504.4C88.2 731.4000000000001 274 916.2 502.2 916.2C731 916 915.8 731.6 915.8 504C915.6 277 729.8 92.2000000000001 501.8 92.2000000000001zM735.8 397.4C733.5999999999999 398.4 731.4 399.6 729 400.6C716.6 406.8000000000002 655.4 436.6 644 440.8000000000002C632.6 445.0000000000001 624.4 447.0000000000001 616 434.6C607.8 422.2000000000001 583.8 394.2000000000001 576.6 386C569.4 377.8 562 376.8 549.6 383C547.6 384.2000000000001 544.8000000000001 385.4 541.4 386.8C523.8 394.4 489.4 409.4 449.6 444.5999999999999C412.6 477.3999999999999 387.6 517.9999999999999 380.4 530.3999999999999C373.2 542.8 379.6 549.3999999999999 385.8 555.5999999999999C389.4 559.1999999999999 393.8 564.3999999999999 398 569.5999999999999C400.2 572.1999999999999 402.3999999999999 574.8 404.3999999999999 577.1999999999999C409.7999999999999 583.1999999999999 412 587.8 415.2 594.1999999999999C415.8 595.3999999999999 416.3999999999999 596.5999999999999 417 597.8C421.2 606.1999999999999 419.2 613.4 416 619.5999999999999C413.8 624 401.2 654.4 390.2 681C385.3999999999999 692.8 380.8 704 377.5999999999999 711.5999999999999C368.5999999999999 732.8 359.5999999999999 732.8 352.3999999999999 732.8C351.3999999999999 732.8 350.3999999999999 732.8 349.5999999999999 732.8L325.7999999999999 733.1999999999999C317.3999999999999 733.1999999999999 303.9999999999999 730 292.5999999999999 717.5999999999999C291.7999999999999 716.8 290.9999999999999 715.9999999999999 289.9999999999999 714.9999999999999C276.9999999999999 701.1999999999998 248.9999999999999 671.3999999999999 248.9999999999999 614.3999999999999C248.9999999999999 553.9999999999999 292.7999999999999 495.5999999999999 299.5999999999999 486.5999999999999L299.7999999999999 486.3999999999999C300.1999999999999 485.7999999999998 300.9999999999999 484.7999999999998 301.9999999999999 483.1999999999998C316.9999999999999 461.5999999999998 395.7999999999999 349.3999999999999 512.1999999999998 299.3999999999999C541.9999999999998 286.7999999999999 565.1999999999998 279.1999999999998 583.1999999999998 273.3999999999999C612.9999999999998 263.9999999999999 640.1999999999998 265.1999999999998 661.5999999999998 268.3999999999999C685.5999999999998 271.7999999999999 735.1999999999998 298.1999999999998 745.5999999999998 327.1999999999998S755.9999999999998 380.9999999999998 752.7999999999998 386.1999999999998C750.4 390.4 744.4 393.2000000000001 735.8 397.4z" />
    <glyph glyph-name="video"
      unicode="&#xF11E;"
      horiz-adv-x="1000" d="M608.2 487.6L454.0000000000001 588.6C450.0000000000001 591.2 445.2000000000001 591.2 441.4000000000001 588.6C437.4000000000001 586 435.0000000000001 581.4000000000001 435.0000000000001 576.2V374.2000000000001C435.0000000000001 369 437.4000000000001 364.4000000000001 441.4000000000001 361.8000000000001C443.4000000000001 360.6 445.6 359.8000000000001 447.8 359.8000000000001S452.2 360.4000000000001 454.2 361.8000000000001L608.4 462.8000000000001C612.4 465.4000000000001 614.8 470.2 614.8 475.2S612.4 485 608.4 487.6zM-0.8 500.8C-0.8 225 223.4 0.8 499.2 0.8S999.2 225 999.2 500.8S774.8 1000.8 499.2 1000.8S-0.8 776.6 -0.8 500.8zM48.6 500.8C48.6 749.4 250.6 951.4 499.2 951.4S949.8 749.2 949.8 500.8S747.5999999999999 50.1999999999999 499.1999999999999 50.1999999999999S48.6 252.2000000000001 48.6 500.8z" />
    <glyph glyph-name="video-1"
      unicode="&#x76;&#x69;&#x64;&#x65;&#x6F;"
      horiz-adv-x="1000" d="M608.2 487.6L454.0000000000001 588.6C450.0000000000001 591.2 445.2000000000001 591.2 441.4000000000001 588.6C437.4000000000001 586 435.0000000000001 581.4000000000001 435.0000000000001 576.2V374.2000000000001C435.0000000000001 369 437.4000000000001 364.4000000000001 441.4000000000001 361.8000000000002C443.4000000000001 360.6 445.6 359.8000000000002 447.8 359.8000000000002S452.2 360.4000000000001 454.2 361.8000000000002L608.4 462.8000000000001C612.4 465.4000000000001 614.8 470.2 614.8 475.2S612.4 485 608.4 487.6zM-0.8 500.8C-0.8 225 223.4 0.8 499.2 0.8S999.2 225 999.2 500.8S774.8 1000.8 499.2 1000.8S-0.8 776.6 -0.8 500.8zM48.6 500.8C48.6 749.4 250.6 951.4 499.2 951.4S949.8 749.2 949.8 500.8S747.5999999999999 50.1999999999999 499.1999999999999 50.1999999999999S48.6 252.2000000000001 48.6 500.8z" />
    </font>
</defs>
</svg>
