<?xml version="1.0" encoding="utf-8"?>
<!-- Generator: Adobe Illustrator 23.0.6, SVG Export Plug-In . SVG Version: 6.00 Build 0)  -->
<svg version="1.1" id="Слой_1" xmlns="http://www.w3.org/2000/svg" xmlns:xlink="http://www.w3.org/1999/xlink" x="0px" y="0px"
	 width="1765.4px" height="500px" viewBox="0 0 1765.4 500" enable-background="new 0 0 1765.4 500" xml:space="preserve">
<path fill-rule="evenodd" clip-rule="evenodd" fill="#D8D8D8" d="M1731.4,250H33.9H1731.4z"/>
<path fill="#1E8A47" d="M1731.4,216.1h33.9v67.9h-33.9V216.1z M9.9,274c-13.3-13.3-13.3-34.8,0-48L226,9.9c13.3-13.3,34.8-13.3,48,0
	c13.3,13.3,13.3,34.8,0,48L82,250l192,192c13.3,13.3,13.3,34.8,0,48c-13.3,13.3-34.8,13.3-48,0L9.9,274z M1731.4,283.9H33.9v-67.9
	h1697.5V283.9z"/>
</svg>
