<?xml version="1.0" encoding="utf-8"?>
<!-- Generator: Adobe Illustrator 23.0.6, SVG Export Plug-In . SVG Version: 6.00 Build 0)  -->
<svg version="1.1" id="Слой_1" xmlns="http://www.w3.org/2000/svg" xmlns:xlink="http://www.w3.org/1999/xlink" x="0px" y="0px"
	 width="1765.4px" height="500px" viewBox="0 0 1765.4 500" enable-background="new 0 0 1765.4 500" xml:space="preserve">
<g>
	<path fill-rule="evenodd" clip-rule="evenodd" fill="#FFFFFF" d="M33.9,246h1697.5H33.9z"/>
	<path fill="#FFFFFF" d="M33.9,212.1H0v67.9h33.9V212.1z M1755.4,270c13.3-13.3,13.3-34.8,0-48L1539.4,5.9
		c-13.3-13.3-34.8-13.3-48,0c-13.3,13.3-13.3,34.8,0,48l192,192l-192,192c-13.3,13.3-13.3,34.8,0,48c13.3,13.3,34.8,13.3,48,0
		L1755.4,270z M33.9,279.9h1697.5v-67.9H33.9V279.9z"/>
</g>
</svg>
