<?xml version="1.0" encoding="utf-8"?>
<!-- Generator: Adobe Illustrator 23.0.6, SVG Export Plug-In . SVG Version: 6.00 Build 0)  -->
<svg version="1.1" id="Слой_1" xmlns="http://www.w3.org/2000/svg" xmlns:xlink="http://www.w3.org/1999/xlink" x="0px" y="0px"
	 width="22px" height="21px" viewBox="0 0 22 21" enable-background="new 0 0 22 21" xml:space="preserve">
<path fill-rule="evenodd" clip-rule="evenodd" fill="#FFFFFF" d="M6.1,5.9l1.4,7.1c0.1,0.3,0.2,0.5,0.4,0.7c0.2,0.2,0.5,0.3,0.8,0.3
	H18c0.3,0,0.6-0.1,0.8-0.3c0.2-0.2,0.4-0.4,0.4-0.7l1.4-7.1H6.1z M7.2,14.8c-0.5-0.4-0.8-0.9-0.9-1.5L4.7,5.5c0,0,0,0,0-0.1L3.9,1.2
	H0.6C0.3,1.2,0,1,0,0.6S0.3,0,0.6,0h3.8C4.7,0,4.9,0.2,5,0.5l0.8,4.2h15.5c0.2,0,0.4,0.1,0.5,0.2C22,5.1,22,5.3,22,5.4l-1.5,7.9
	c-0.1,0.6-0.4,1.1-0.9,1.5c-0.5,0.4-1,0.5-1.6,0.6H8.8c0,0,0,0,0,0C8.2,15.3,7.6,15.1,7.2,14.8z M8.2,19.1c-0.2,0-0.3,0.1-0.3,0.3
	c0,0.2,0.1,0.3,0.3,0.3c0.2,0,0.3-0.1,0.3-0.3C8.5,19.2,8.3,19.1,8.2,19.1z M8.2,21c-0.9,0-1.6-0.7-1.6-1.6c0-0.9,0.7-1.6,1.6-1.6
	c0.9,0,1.6,0.7,1.6,1.6C9.7,20.3,9,21,8.2,21z M18.5,19.1c-0.2,0-0.3,0.1-0.3,0.3c0,0.2,0.1,0.3,0.3,0.3c0.2,0,0.3-0.1,0.3-0.3
	C18.9,19.2,18.7,19.1,18.5,19.1z M18.5,21c-0.9,0-1.6-0.7-1.6-1.6c0-0.9,0.7-1.6,1.6-1.6c0.9,0,1.6,0.7,1.6,1.6
	C20.1,20.3,19.4,21,18.5,21z"/>
</svg>
