<?xml version="1.0" encoding="utf-8"?>
<!-- Generator: Adobe Illustrator 23.0.6, SVG Export Plug-In . SVG Version: 6.00 Build 0)  -->
<svg version="1.1" id="Слой_1" xmlns="http://www.w3.org/2000/svg" xmlns:xlink="http://www.w3.org/1999/xlink" x="0px" y="0px"
	 width="29px" height="29px" viewBox="0 0 29 29" enable-background="new 0 0 29 29" xml:space="preserve">
<path fill="#FFFFFF" d="M26.3,5.1L27,5.8l0.7-0.7L27,4.4L26.3,5.1z M25.6,5.8l-0.7-0.7l0,0L25.6,5.8z M24.9,3.6l0.7-0.7l-0.7-0.7
	l-0.7,0.7L24.9,3.6z M24.2,4.4l-0.7-0.7l0,0L24.2,4.4z M15,13.5l-0.7,0.7L15,15l0.7-0.7L15,13.5z M5.8,4.4l0.7-0.7L5.8,4.4z
	 M5.1,3.6l0.7-0.7L5.1,2.2L4.4,2.9L5.1,3.6z M3.6,5.1L2.9,4.4L2.2,5.1l0.7,0.7L3.6,5.1z M4.4,5.8L3.6,6.5L4.4,5.8z M13.5,15l0.7,0.7
	L15,15l-0.7-0.7L13.5,15z M4.4,24.2l-0.7-0.7l0,0L4.4,24.2z M3.6,24.9l-0.7-0.7l-0.7,0.7l0.7,0.7L3.6,24.9z M5.1,26.3L4.4,27
	l0.7,0.7L5.8,27L5.1,26.3z M5.8,25.6l0.7,0.7l0,0L5.8,25.6z M15,16.4l0.7-0.7L15,15l-0.7,0.7L15,16.4z M24.2,25.6l-0.7,0.7l0,0
	L24.2,25.6z M24.9,26.3L24.2,27l0.7,0.7l0.7-0.7L24.9,26.3z M26.3,24.9l0.7,0.7l0.7-0.7L27,24.2L26.3,24.9z M25.6,24.2l0.7-0.7l0,0
	L25.6,24.2z M16.4,15l-0.7-0.7L15,15l0.7,0.7L16.4,15z M25.6,4.4l-0.7,0.7l1.4,1.4L27,5.8L25.6,4.4z M24.2,4.4l1.4,1.4L27,4.4
	l-1.4-1.4L24.2,4.4z M24.9,5.1l0.7-0.7l-1.4-1.4l-0.7,0.7L24.9,5.1z M15.7,14.3l9.2-9.2l-1.4-1.4l-9.2,9.2L15.7,14.3z M5.1,5.1
	l9.2,9.2l1.4-1.4L6.5,3.6L5.1,5.1z M4.4,4.4l0.7,0.7l1.4-1.4L5.8,2.9L4.4,4.4z M4.4,5.8l1.4-1.4L4.4,2.9L2.9,4.4L4.4,5.8z M5.1,5.1
	L4.4,4.4L2.9,5.8l0.7,0.7L5.1,5.1z M14.3,14.3L5.1,5.1L3.6,6.5l9.2,9.2L14.3,14.3z M5.1,24.9l9.2-9.2l-1.4-1.4l-9.2,9.2L5.1,24.9z
	 M4.4,25.6l0.7-0.7l-1.4-1.4l-0.7,0.7L4.4,25.6z M5.8,25.6l-1.4-1.4l-1.4,1.4L4.4,27L5.8,25.6z M5.1,24.9l-0.7,0.7L5.8,27l0.7-0.7
	L5.1,24.9z M14.3,15.7l-9.2,9.2l1.4,1.4l9.2-9.2L14.3,15.7z M24.9,24.9l-9.2-9.2l-1.4,1.4l9.2,9.2L24.9,24.9z M25.6,25.6l-0.7-0.7
	l-1.4,1.4l0.7,0.7L25.6,25.6z M25.6,24.2l-1.4,1.4l1.4,1.4l1.4-1.4L25.6,24.2z M24.9,24.9l0.7,0.7l1.4-1.4l-0.7-0.7L24.9,24.9z
	 M15.7,15.7l9.2,9.2l1.4-1.4l-9.2-9.2L15.7,15.7z M24.9,5.1l-9.2,9.2l1.4,1.4l9.2-9.2L24.9,5.1z"/>
</svg>
