<?xml version="1.0" encoding="utf-8"?>
<!-- Generator: Adobe Illustrator 23.0.6, SVG Export Plug-In . SVG Version: 6.00 Build 0)  -->
<svg version="1.1" id="Слой_1" xmlns="http://www.w3.org/2000/svg" xmlns:xlink="http://www.w3.org/1999/xlink" x="0px" y="0px"
	 width="500px" height="500px" viewBox="0 0 500 500" enable-background="new 0 0 500 500" xml:space="preserve">
<path id="Path" fill="#FFFFFF" d="M500,251.5C500,112.6,388,0,250,0C111.9,0,0,112.6,0,251.5C0,377.1,91.4,481.1,210.9,500V324.3
	h-63.5v-72.7h63.5v-55.5c0-63,37.3-97.8,94.4-97.8c27.4,0,56,4.9,56,4.9v61.9h-31.6c-31,0-40.7,19.4-40.7,39.3v47.2h69.3l-11.1,72.7
	h-58.2V500C408.5,481.1,500,377.1,500,251.5z"/>
</svg>
