<?xml version="1.0" encoding="utf-8"?>
<!-- Generator: Adobe Illustrator 27.3.1, SVG Export Plug-In . SVG Version: 6.00 Build 0)  -->
<svg version="1.1" id="Слой_1" xmlns="http://www.w3.org/2000/svg" xmlns:xlink="http://www.w3.org/1999/xlink" x="0px" y="0px"
	 width="500px" height="500px" viewBox="0 0 500 500" enable-background="new 0 0 500 500" xml:space="preserve">
<g>
	<g>
		<path d="M38.2,168.8c0.3,0.4,0.6,0.9,0.9,1.3l0.1,0.1c-0.7-1-1-1.5-1.2-1.7C38.1,168.6,38.1,168.7,38.2,168.8z"/>
		<path d="M92.7,130.5c-0.3-0.4-0.6-0.9-0.9-1.3l-0.1-0.1c0.7,1,1,1.5,1.2,1.7C92.9,130.7,92.8,130.6,92.7,130.5z"/>
		<path d="M130.6,149.6c-0.1-12.8-3.9-26-11.5-36.4c-8.4-11.5-19.1-19.8-32.5-24.6c-1.7-0.6-3.5-1.2-5.3-1.7c0-20.3,0-40.6,0-60.9
			c0-3.5,0-6.9,0-10.4c0-8.3-7.3-16.2-15.9-15.8c-8.7,0.4-15.9,7-15.9,15.8c0,23.8,0,47.5,0,71.3c-13.1,3.3-25.3,10.4-33.7,20.8
			C6.7,118.9,1.3,131.6,0.3,146c-0.9,12.6,2.5,26,9.1,36.8c6.4,10.6,16.3,20,27.7,25.2c4.1,1.8,8.3,3.3,12.5,4.3c0,5,0,9.9,0,14.9
			c0,22.7,0,45.4,0,68.1c0,27.4,0,54.9,0,82.3c0,23.8,0,47.6,0,71.4c0,11.5-0.2,23.1,0,34.6c0,0.2,0,0.3,0,0.5
			c0,8.3,7.3,16.2,15.9,15.8c8.7-0.4,15.9-7,15.9-15.8c0-9.5,0-19,0-28.4c0-22.7,0-45.4,0-68.1c0-27.4,0-54.9,0-82.3
			c0-23.8,0-47.6,0-71.4c0-7.1,0.1-14.2,0.1-21.3c28.6-6.7,48.9-33.8,49.2-62.7v-0.1C130.6,149.7,130.6,149.7,130.6,149.6
			C130.6,149.7,130.6,149.7,130.6,149.6L130.6,149.6z M86.7,123.8L86.7,123.8L86.7,123.8z M39.5,128.6L39.5,128.6L39.5,128.6z
			 M44.2,175.5L44.2,175.5L44.2,175.5z M91.5,170.7L91.5,170.7L91.5,170.7z M92.4,169.5c-0.1,0.1-0.2,0.2-0.3,0.4
			c-0.9,1.2-1.9,2.3-3,3.3c-0.9,0.9-1.9,1.8-2.9,2.6c0.2-0.1,0.4-0.2,0.6-0.4c-0.2,0.1-0.5,0.3-0.7,0.5c-0.1,0.1-0.2,0.2-0.3,0.3
			c-0.6,0.5-1.7,1.2-1.3,0.8c-1.9,1.2-3.8,2.3-5.8,3.3c-2.7,1-5.5,1.8-8.5,2.3c-3.1,0.3-6.2,0.3-9.4,0c-2.9-0.5-5.7-1.3-8.5-2.3
			c-2-1-4-2.1-5.8-3.3c-0.1-0.1-0.5-0.3-0.9-0.5c-0.1-0.1-0.2-0.2-0.4-0.3c-1.2-0.9-2.3-1.9-3.3-3c-0.9-0.9-1.8-1.9-2.6-2.9
			c0.1,0.2,0.2,0.4,0.4,0.6c-0.1-0.2-0.3-0.5-0.5-0.7c-0.1-0.1-0.2-0.2-0.3-0.3c-0.5-0.6-1.1-1.7-0.8-1.3c-1.2-1.9-2.3-3.8-3.3-5.8
			c-1-2.7-1.8-5.5-2.3-8.4c-0.3-3.1-0.3-6.2,0-9.3c0.5-2.9,1.3-5.7,2.3-8.4c1-2,2.1-4,3.3-5.8c0.1-0.1,0.3-0.5,0.5-0.9
			c0.1-0.1,0.2-0.2,0.3-0.4c0.9-1.2,1.9-2.3,3-3.3c0.9-0.9,1.9-1.8,2.9-2.6c-0.2,0.1-0.4,0.2-0.6,0.4c0.2-0.1,0.5-0.3,0.7-0.5
			c0.1-0.1,0.2-0.2,0.3-0.3c0.6-0.5,1.7-1.2,1.3-0.8c1.9-1.2,3.8-2.3,5.8-3.3c2.7-1,5.5-1.8,8.5-2.3c1.5-0.1,2.9-0.2,4.4-0.2
			c0.1,0,0.1,0,0.2,0h0.1c1.5,0,3.1,0.1,4.6,0.2c2.9,0.5,5.7,1.3,8.5,2.3c2,1,4,2.1,5.8,3.3c0.1,0.1,0.5,0.3,0.9,0.5
			c0.1,0.1,0.2,0.2,0.4,0.3c1.2,0.9,2.3,1.9,3.3,3c0.9,0.9,1.8,1.9,2.6,2.9c-0.1-0.2-0.2-0.4-0.4-0.6c0.1,0.2,0.3,0.5,0.5,0.7
			c0.1,0.1,0.2,0.2,0.3,0.3c0.5,0.6,1.2,1.7,0.8,1.3c1.2,1.9,2.3,3.8,3.3,5.8c1,2.7,1.8,5.6,2.3,8.5c0.1,1.5,0.2,3.1,0.2,4.6
			s-0.1,3-0.2,4.5c-0.5,2.9-1.3,5.7-2.3,8.5c-1,2-2.1,4-3.3,5.8C92.8,168.7,92.6,169,92.4,169.5z"/>
		<path d="M84.7,176.8c0.4-0.3,0.9-0.6,1.3-0.9l0.1-0.1c-1,0.7-1.5,1-1.7,1.2C84.5,176.9,84.6,176.8,84.7,176.8z"/>
		<path d="M46.2,122.5c-0.4,0.3-0.9,0.6-1.3,0.9l-0.1,0.1c1-0.7,1.5-1,1.7-1.2C46.4,122.4,46.3,122.5,46.2,122.5z"/>
		<path d="M231,333.2c-0.4,0.3-0.9,0.6-1.3,0.9l-0.1,0.1c1-0.7,1.5-1,1.7-1.2C231.2,333.1,231.1,333.1,231,333.2z"/>
		<path d="M222.9,379.4c0.3,0.4,0.6,0.9,0.9,1.3l0.1,0.1c-0.7-1-1-1.5-1.2-1.7C222.8,379.2,222.9,379.3,222.9,379.4z"/>
		<path d="M269.5,387.4c0.4-0.3,0.9-0.6,1.3-0.9l0.1-0.1c-1,0.7-1.5,1-1.7,1.2C269.3,387.6,269.4,387.5,269.5,387.4z"/>
		<path d="M315.4,360.3c-0.1-12.8-3.9-26-11.5-36.4c-8.4-11.5-19.1-19.8-32.5-24.6c-1.7-0.6-3.5-1.2-5.3-1.7c0-5.2,0-10.4,0-15.7
			c0-23.5,0-47,0-70.4c0-28.5,0-57.1,0-85.7c0-24.5,0-49.1,0-73.6c0-12,0.2-24,0-36c0-0.2,0-0.3,0-0.5c0-8.3-7.3-16.2-15.9-15.8
			c-8.7,0.4-15.9,7-15.9,15.8c0,9.8,0,19.7,0,29.5c0,23.5,0,47,0,70.4c0,28.5,0,57.1,0,85.7c0,24.5,0,49.1,0,73.6
			c0,7.6-0.1,15.1-0.1,22.7c-13.1,3.3-25.2,10.4-33.6,20.8c-9.2,11.2-14.4,23.9-15.5,38.3c-0.9,12.6,2.5,26,9.1,36.8
			c6.4,10.6,16.3,20,27.7,25.2c4.1,1.8,8.3,3.3,12.5,4.3c0,17.3,0,34.5,0,51.8c0,3.1,0,6.2,0,9.3c0,8.3,7.3,16.2,15.9,15.8
			c8.7-0.4,15.9-7,15.9-15.8c0-20.3,0-40.6,0-60.8c28.7-6.7,49-33.8,49.3-62.7v-0.1C315.4,360.4,315.4,360.4,315.4,360.3
			L315.4,360.3L315.4,360.3z M271.5,334.5L271.5,334.5L271.5,334.5z M224.2,339.2L224.2,339.2L224.2,339.2z M229.1,386.2
			L229.1,386.2L229.1,386.2z M276.3,381.4L276.3,381.4L276.3,381.4z M277.2,380.1c-0.1,0.1-0.2,0.2-0.3,0.4c-0.9,1.2-1.9,2.3-3,3.3
			c-0.9,0.9-1.9,1.8-2.9,2.6c0.2-0.1,0.4-0.2,0.6-0.4c-0.2,0.1-0.5,0.3-0.7,0.5c-0.1,0.1-0.2,0.2-0.3,0.3c-0.6,0.5-1.7,1.2-1.3,0.8
			c-1.9,1.2-3.8,2.3-5.8,3.3c-2.7,1-5.5,1.8-8.5,2.3c-3.1,0.3-6.2,0.3-9.4,0c-2.9-0.5-5.7-1.3-8.5-2.3c-2-1-4-2-5.8-3.3
			c-0.1-0.1-0.5-0.3-0.9-0.5c-0.1-0.1-0.2-0.2-0.4-0.3c-1.2-0.9-2.3-1.9-3.3-3c-0.9-0.9-1.8-1.9-2.6-2.9c0.1,0.2,0.2,0.4,0.4,0.6
			c-0.1-0.2-0.3-0.5-0.5-0.7c-0.1-0.1-0.2-0.2-0.3-0.3c-0.5-0.6-1.1-1.7-0.8-1.3c-1.2-1.9-2.3-3.8-3.3-5.8c-1-2.7-1.8-5.5-2.3-8.3
			c-0.3-3.1-0.3-6.2,0-9.3c0.5-2.9,1.3-5.7,2.3-8.4c1-2,2-4,3.3-5.8c0.1-0.1,0.3-0.5,0.5-0.9c0.1-0.1,0.2-0.2,0.3-0.4
			c0.9-1.2,1.9-2.3,3-3.3c0.9-0.9,1.9-1.8,2.9-2.6c-0.2,0.1-0.4,0.2-0.6,0.4c0.2-0.1,0.5-0.3,0.7-0.5c0.1-0.1,0.2-0.2,0.3-0.3
			c0.6-0.5,1.7-1.2,1.3-0.8c1.9-1.2,3.8-2.3,5.8-3.3c2.7-1,5.5-1.8,8.4-2.3c1.5-0.1,3-0.2,4.4-0.2c0.1,0,0.1,0,0.2,0h0.1
			c1.5,0,3.1,0.1,4.6,0.2c2.9,0.5,5.7,1.3,8.5,2.3c2,1,4,2.1,5.8,3.3c0.1,0.1,0.5,0.3,0.9,0.5c0.1,0.1,0.2,0.2,0.4,0.3
			c1.2,0.9,2.3,2,3.3,3c0.9,0.9,1.8,1.9,2.6,2.9c-0.1-0.2-0.2-0.4-0.4-0.6c0.1,0.2,0.3,0.5,0.5,0.7c0.1,0.1,0.2,0.2,0.3,0.3
			c0.5,0.6,1.1,1.7,0.8,1.3c1.2,1.9,2.3,3.8,3.3,5.8c1,2.7,1.8,5.6,2.3,8.5c0.1,1.5,0.2,3.1,0.2,4.6s-0.1,3-0.2,4.5
			c-0.5,2.9-1.3,5.7-2.3,8.5c-1,2-2.1,4-3.3,5.8C277.7,379.3,277.5,379.7,277.2,380.1z"/>
		<path d="M277.6,341.2c-0.3-0.4-0.6-0.9-0.9-1.3l-0.1-0.1c0.7,1,1,1.5,1.2,1.7C277.7,341.4,277.7,341.3,277.6,341.2z"/>
		<path d="M500.2,249.7L500.2,249.7L500.2,249.7c-0.1-12.8-3.9-26.1-11.5-36.5c-8.4-11.5-19.1-19.8-32.5-24.6
			c-1.7-0.6-3.5-1.2-5.3-1.7c0-1.5,0-3,0-4.5c0-14.7,0-29.4,0-44.2c0-17.8,0-35.7,0-53.5c0-15.4,0-30.9,0-46.2
			c0-7.5,0.2-15.1,0-22.5c0-0.1,0-0.2,0-0.3c0-8.3-7.3-16.2-15.9-15.8C426.3,0.4,419,7,419,15.8c0,6.1,0,12.3,0,18.4
			c0,14.7,0,29.4,0,44.2c0,17.8,0,35.7,0,53.5c0,15.4,0,30.9,0,46.2c0,3,0,6,0,9.1c-13.1,3.3-25.3,10.4-33.7,20.8
			c-9.2,11.2-14.4,23.9-15.5,38.3c-0.9,12.6,2.5,26,9.1,36.8c6.4,10.6,16.3,20,27.7,25.2c4.1,1.8,8.3,3.3,12.5,4.3
			c0,1.6,0,3.3,0,4.9c0,14.7,0,29.4,0,44.2c0,17.8,0,35.7,0,53.5c0,15.4,0,30.9,0,46.2c0,7.5-0.2,15.1,0,22.5c0,0.1,0,0.2,0,0.3
			c0,8.3,7.3,16.2,15.9,15.8c8.7-0.4,15.9-7,15.9-15.8c0-6.1,0-12.3,0-18.4c0-14.7,0-29.4,0-44.2c0-17.8,0-35.7,0-53.5
			c0-15.4,0-30.9,0-46.2c0-3.1,0-6.1,0-9.2c28.6-6.7,49-33.8,49.2-62.7C500.2,249.8,500.2,249.8,500.2,249.7
			C500.2,249.8,500.2,249.7,500.2,249.7z M456.3,223.9L456.3,223.9L456.3,223.9z M409.1,228.6L409.1,228.6L409.1,228.6z
			 M413.8,275.6L413.8,275.6L413.8,275.6z M461.1,270.8L461.1,270.8L461.1,270.8z M462,269.5c-0.1,0.1-0.2,0.2-0.3,0.4
			c-0.9,1.2-1.9,2.3-3,3.3c-0.9,0.9-1.9,1.8-2.9,2.6c0.2-0.1,0.4-0.2,0.6-0.4c-0.2,0.1-0.5,0.3-0.7,0.5c-0.1,0.1-0.2,0.2-0.3,0.3
			c-0.6,0.5-1.7,1.2-1.3,0.8c-1.9,1.2-3.8,2.3-5.8,3.3c-2.7,1-5.5,1.8-8.4,2.3c-3.1,0.3-6.2,0.3-9.5,0c-2.9-0.5-5.7-1.3-8.5-2.3
			c-2-1-4-2.1-5.8-3.3c-0.1-0.1-0.5-0.3-0.9-0.5c-0.1-0.1-0.2-0.2-0.4-0.3c-1.2-0.9-2.3-1.9-3.3-3c-0.9-0.9-1.8-1.9-2.6-2.9
			c0.1,0.2,0.2,0.4,0.4,0.6c-0.1-0.2-0.3-0.5-0.5-0.7c-0.1-0.1-0.2-0.2-0.3-0.3c-0.5-0.6-1.2-1.7-0.8-1.3c-1.2-1.9-2.3-3.8-3.3-5.8
			c-1-2.7-1.8-5.5-2.3-8.4c-0.3-3.1-0.3-6.2,0-9.3c0.5-2.9,1.3-5.7,2.3-8.4c1-2,2.1-4,3.3-5.8c0.1-0.1,0.3-0.5,0.5-0.9
			c0.1-0.1,0.2-0.2,0.3-0.4c0.9-1.2,1.9-2.3,3-3.3c0.9-0.9,1.9-1.8,2.9-2.6c-0.2,0.1-0.4,0.2-0.6,0.4c0.2-0.1,0.5-0.3,0.7-0.5
			c0.1-0.1,0.2-0.2,0.3-0.3c0.6-0.5,1.7-1.1,1.3-0.8c1.9-1.2,3.8-2.3,5.8-3.3c2.7-1,5.5-1.8,8.5-2.3c1.5-0.1,2.9-0.2,4.4-0.2
			c0.1,0,0.1,0,0.2,0h0.1c1.5,0,3.1,0.1,4.6,0.2c2.9,0.5,5.7,1.3,8.5,2.3c2,1,4,2.1,5.8,3.3c0.1,0.1,0.5,0.3,0.9,0.5
			c0.1,0.1,0.2,0.2,0.4,0.3c1.2,0.9,2.3,1.9,3.3,3c0.9,0.9,1.8,1.9,2.6,2.9c-0.1-0.2-0.2-0.4-0.4-0.6c0.1,0.2,0.3,0.5,0.5,0.7
			c0.1,0.1,0.2,0.2,0.3,0.3c0.5,0.6,1.1,1.7,0.8,1.3c1.2,1.9,2.3,3.8,3.3,5.8c1,2.7,1.8,5.6,2.3,8.5c0.1,1.5,0.2,3.1,0.2,4.6
			c0,1.5-0.1,3-0.2,4.5c-0.5,2.9-1.3,5.7-2.3,8.5c-1,2-2.1,4-3.3,5.8C462.4,268.7,462.2,269.1,462,269.5z"/>
		<path d="M415.8,222.6c-0.4,0.3-0.9,0.6-1.3,0.9l-0.1,0.1c1-0.7,1.5-1,1.7-1.2C416,222.5,415.9,222.5,415.8,222.6z"/>
		<path d="M454.3,276.8c0.4-0.3,0.9-0.6,1.3-0.9l0.1-0.1c-1,0.7-1.5,1-1.7,1.2C454.1,277,454.2,276.9,454.3,276.8z"/>
		<path d="M407.8,268.8c0.3,0.4,0.6,0.9,0.9,1.3l0.1,0.1c-0.7-1-1-1.5-1.2-1.7C407.7,268.6,407.7,268.7,407.8,268.8z"/>
		<path d="M462.3,230.6c-0.3-0.4-0.6-0.9-0.9-1.3l-0.1-0.1c0.7,1,1,1.5,1.2,1.7C462.5,230.8,462.4,230.7,462.3,230.6z"/>
	</g>
</g>
</svg>
