<?xml version="1.0" encoding="utf-8"?>
<!-- Generator: Adobe Illustrator 23.0.6, SVG Export Plug-In . SVG Version: 6.00 Build 0)  -->
<svg version="1.1" id="Слой_1" xmlns="http://www.w3.org/2000/svg" xmlns:xlink="http://www.w3.org/1999/xlink" x="0px" y="0px"
	 width="70px" height="118px" viewBox="0 0 70 118" enable-background="new 0 0 70 118" xml:space="preserve">
<path fill="#FFFFFF" d="M31,117.4c-6.5,0-12.1-1.1-16.7-3.2c-4.6-2.1-8.2-4.7-10.7-7.8c-2.4-3.2-3.6-6.4-3.6-9.6
	c0-2.9,0.9-5.5,2.7-7.8c1.8-2.3,4.3-3.5,7.4-3.6c2.5-0.1,4.4,0.4,5.8,1.5c1.4,1,2.4,2.3,3,3.8c0.6,1.5,0.9,3,0.9,4.4
	c0,0.8-0.1,1.8-0.5,3c-0.2,1.1-0.6,2.1-1.2,3.1c0.7,1.7,2.3,3.1,4.8,4.1s4.8,1.5,6.9,1.5c4,0,7.2-1.1,9.6-3.2
	c2.5-2.1,4.3-4.8,5.4-8.1c1.1-3.3,1.6-6.7,1.6-10.1c0-2.3-0.1-4.9-0.5-7.8c-0.3-2.9-1-5.8-2.3-8.6c-1.1-2.8-2.9-5.1-5.4-6.9
	c-2.4-1.8-5.7-2.7-9.9-2.7c-2.1,0-4.8,0.4-7.9,1.2s-6.6,2.3-10.1,4.4l-6.5-5L3.5,10h38.9c3.5,0,6.3-0.6,8.3-1.6
	c2.1-1.2,3.2-3.9,3.2-8.1h9.5l-1,24.3l-47.1,0.9v26.7c2.3-1,5.2-1.9,8.6-2.6c3.4-0.7,6.6-1,9.6-1c8.3,0,15.1,1.6,20.5,4.8
	c5.4,3.1,9.4,7.2,12,12.3c2.6,5.1,3.9,10.7,3.9,16.7c0,7.7-1.9,14.2-5.7,19.5c-3.7,5.2-8.5,9.1-14.4,11.7S37.5,117.4,31,117.4z"/>
</svg>
