<svg width="34" height="34" viewBox="0 0 34 34" fill="none" xmlns="http://www.w3.org/2000/svg">
<path d="M25.6062 22.7578C27.35 20.4472 28.3188 17.7516 28.3188 14.6708C28.3188 7.16149 22.3125 1 14.7562 1C7.2 1 1 7.16149 1 14.6708C1 22.1801 7.2 28.3416 14.7562 28.3416C17.8563 28.3416 20.7625 27.3789 22.8938 25.646L28.7063 31.4224C29.0938 31.8075 29.675 32 30.0625 32C30.45 32 31.0312 31.8075 31.4187 31.4224C32.1938 30.6522 32.1938 29.4969 31.4187 28.7267L25.6062 22.7578ZM14.7562 24.2981C9.33125 24.2981 4.875 20.0621 4.875 14.6708C4.875 9.2795 9.33125 4.85093 14.7562 4.85093C20.1812 4.85093 24.6375 9.2795 24.6375 14.6708C24.6375 20.0621 20.1812 24.2981 14.7562 24.2981Z" fill="#095540"/>
</svg>
