<?xml version="1.0" encoding="utf-8"?>
<!-- Generator: Adobe Illustrator 23.0.6, SVG Export Plug-In . SVG Version: 6.00 Build 0)  -->
<svg version="1.1" id="Слой_1" xmlns="http://www.w3.org/2000/svg" xmlns:xlink="http://www.w3.org/1999/xlink" x="0px" y="0px"
	 width="583.3px" height="500px" viewBox="0 0 583.3 500" enable-background="new 0 0 583.3 500" xml:space="preserve">
<path fill-rule="evenodd" clip-rule="evenodd" fill="#1E8A47" d="M291.7,67.1C324.5,21.6,365.8,0,420.5,0
	c89.9,0,162.8,77.9,162.8,173.9c0,88.7-64.4,143.9-128.8,196.6c-5.8,4.1-11,8.7-16.4,13.5c-2.6,2.3-5.2,4.6-7.9,6.9l-24.3,21.6
	c-60.8,55.2-82.6,74.3-94.8,81.5c-6.1,3.6-12.2,6-19.4,6c-6.1,0-13.4-2.4-19.4-6c-10.5-6.2-31.8-24.9-71.6-59.8
	c-6.4-5.6-13.3-11.7-20.7-18.1l-28-24c-7.3-7.2-15.8-14.4-23.1-20.4C65.6,317.7,0,261.4,0,173.9C0,77.9,72.9,0,162.8,1.2
	C217.5,1.2,258.9,22.8,291.7,67.1z M546.9,173.9C546.9,98.3,489.8,36,420.5,36c-51,0-79,24-98.4,51.6c-13.1,17.7-19.9,30.3-24.1,38
	c-3.2,5.8-4.7,8.8-6.3,8.8c-1.6,0-3.2-2.9-6.3-8.8c-4.1-7.7-11-20.3-24.1-38C241.8,60,213.9,36,162.8,36
	C93.6,36,36.5,98.3,36.5,173.9c0,73,56.5,121,118.1,173.3c7.2,6.1,14.4,12.3,21.7,18.5c10.6,9.4,20.8,18.4,30.3,26.9
	c42.9,38.1,74.2,65.8,85.1,72.7c9.2-5.5,31.7-25.4,71.7-60.9c12.8-11.3,27.3-24.2,43.7-38.7c8.2-7.2,16.5-14.3,24.7-21.3
	C491.4,293.1,546.9,245.6,546.9,173.9z"/>
</svg>
