<?xml version="1.0" encoding="utf-8"?>
<!-- Generator: Adobe Illustrator 23.0.6, SVG Export Plug-In . SVG Version: 6.00 Build 0)  -->
<svg version="1.1" id="Слой_1" xmlns="http://www.w3.org/2000/svg" xmlns:xlink="http://www.w3.org/1999/xlink" x="0px" y="0px"
	 width="500px" height="500px" viewBox="0 0 500 500" enable-background="new 0 0 500 500" xml:space="preserve">
<path id="Shape" fill-rule="evenodd" clip-rule="evenodd" fill="#FFFFFF" d="M362,500H138C61.9,500,0,438.1,0,362V138
	C0,61.9,61.9,0,138,0h224c76.1,0,138,61.9,138,138v224C500,438.1,438.1,500,362,500z M455.6,362V138c0-51.6-42-93.6-93.6-93.6H138
	c-51.6,0-93.6,42-93.6,93.6v224c0,51.6,42,93.6,93.6,93.6h224C413.6,455.6,455.6,413.6,455.6,362z M384.2,148.6
	c-8.5,0-16.9-3.5-23-9.5c-6.1-6.1-9.6-14.5-9.6-23s3.5-17,9.6-23c6-6.1,14.4-9.5,23-9.5c8.6,0,17,3.5,23,9.5c6.1,6,9.5,14.4,9.5,23
	s-3.5,17-9.5,23C401.2,145.1,392.8,148.6,384.2,148.6z M250,378.8c-71,0-128.8-57.8-128.8-128.8S179,121.2,250,121.2
	S378.8,179,378.8,250S321,378.8,250,378.8z M250,165.5c-46.6,0-84.5,37.9-84.5,84.5c0,46.6,37.9,84.5,84.5,84.5s84.5-37.9,84.5-84.5
	C334.5,203.4,296.6,165.5,250,165.5z"/>
</svg>
