<?xml version="1.0" encoding="utf-8"?>
<!-- Generator: Adobe Illustrator 23.0.6, SVG Export Plug-In . SVG Version: 6.00 Build 0)  -->
<svg version="1.1" id="Слой_1" xmlns="http://www.w3.org/2000/svg" xmlns:xlink="http://www.w3.org/1999/xlink" x="0px" y="0px"
	 width="3319.8px" height="500px" viewBox="0 0 3319.8 500" enable-background="new 0 0 3319.8 500" xml:space="preserve">
<g opacity="0.219">
	<path d="M185.5,315.8L134.7,370v120.2H0V9.6h134.7v199.6l186-199.6h149.6L274,222.4l206.6,267.8H322.7L185.5,315.8z"/>
	<path fill-rule="evenodd" clip-rule="evenodd" d="M457.4,378.2c23.1,38,55,67.8,95.5,89.3c40.5,21.5,86,32.2,136.8,32.2
		c50.8,0,96.3-10.7,136.8-32.2c40.5-21.5,72.3-51.2,95.5-89.3s34.7-81,34.7-128.5c0-47.9-11.6-90.5-34.7-128.5s-55-67.8-95.5-89.3
		C786,10.5,740.5-0.3,689.7-0.3c-50.8,0-96.3,10.7-136.8,32.2c-40.5,21.5-72.3,51.2-95.5,89.3c-23.1,38-34.7,81-34.7,128.5
		C422.7,297.6,434.3,340.2,457.4,378.2z M802.5,321.6c-11.6,20.7-26.9,36.8-46.7,48.3c-19.8,11.6-41.7,17.4-65.7,17.4
		c-24,0-45.9-5.8-65.7-17.4c-19.8-11.6-35.1-27.7-46.7-48.3c-11.6-21.1-17.4-45-17.4-71.9c0-27.3,5.8-51.2,17.4-71.9
		c11.6-20.7,26.9-36.8,46.7-48.3c19.4-11.6,41.3-17.4,65.7-17.4c24,0,45.9,5.8,65.7,17.4s35.1,27.7,46.7,48.3
		c11.6,21.1,17.4,45,17.4,71.9C819.8,277,814.1,300.9,802.5,321.6z"/>
	<path d="M1494.6,292.7v197.5h-154.1h-8.3l-212-256.2v256.2H987.2V9.6h112l212,256.2V9.6h178.1l-122.7,283.1H1494.6z"/>
	<path d="M1843,9.6v107.9h-146.7v372.7h-70.7h-124.4l120.2-283.1l-126.9,0.4V9.6H1843z"/>
	<path fill-rule="evenodd" clip-rule="evenodd" d="M1845.5,378.2c23.1,38,55,67.8,95.5,89.3c40.5,21.5,86,32.2,136.8,32.2
		s96.3-10.7,136.8-32.2c40.5-21.5,72.3-51.2,95.5-89.3c23.1-38,34.7-81,34.7-128.5c0-47.9-11.6-90.5-34.7-128.5
		c-23.1-38-55-67.8-95.5-89.3c-40.5-21.5-86-32.2-136.8-32.2s-96.3,10.7-136.8,32.2c-40.5,21.5-72.3,51.2-95.5,89.3
		c-23.1,38-34.7,81-34.7,128.5C1810.7,297.6,1822.3,340.2,1845.5,378.2z M2190.5,321.6c-11.6,20.7-26.9,36.8-46.7,48.3
		c-19.8,11.6-41.7,17.4-65.7,17.4c-24,0-45.9-5.8-65.7-17.4c-19.8-11.6-35.1-27.7-46.7-48.3c-11.6-21.1-17.4-45-17.4-71.9
		c0-27.3,5.8-51.2,17.4-71.9c11.6-20.7,26.9-36.8,46.7-48.3c19.4-11.6,41.3-17.4,65.7-17.4c24,0,45.9,5.8,65.7,17.4
		s35.1,27.7,46.7,48.3c11.6,21.1,17.4,45,17.4,71.9C2207.8,277,2202.1,300.9,2190.5,321.6z"/>
	<path fill-rule="evenodd" clip-rule="evenodd" d="M3119.8,9.6h-133.9l-195,441.3l-76.9-112c30.2-14.9,53.3-34.7,69.8-60.7
		c16.1-26,24.4-56.2,24.4-90.9c0-36-8.7-67.8-26-94.2c-17.4-26.9-42.1-47.5-74-62C2676,16.7,2638.4,9.6,2595,9.6h-219.8v480.6h135.9
		V362.5h74l87.2,127.7h240.1l38-93.4h203.3l37.6,93.4h141.3L3119.8,9.6z M2649.6,239.4c-14,12-35.1,18.2-63.2,18.2h-75.6V116.7h75.6
		c28.1,0,49.2,6.2,63.2,18.6s21.1,29.8,21.1,52.1C2671.1,210,2663.6,227.4,2649.6,239.4z M3052.1,143.1l-62,153.7h124L3052.1,143.1z
		"/>
</g>
</svg>
