<?xml version="1.0" encoding="utf-8"?>
<!-- Generator: Adobe Illustrator 23.0.6, SVG Export Plug-In . SVG Version: 6.00 Build 0)  -->
<svg version="1.1" id="Слой_1" xmlns="http://www.w3.org/2000/svg" xmlns:xlink="http://www.w3.org/1999/xlink" x="0px" y="0px"
	 width="500px" height="500px" viewBox="0 0 500 500" enable-background="new 0 0 500 500" xml:space="preserve">
<path fill-rule="evenodd" clip-rule="evenodd" fill="#FFFFFF" d="M0,250C0,111.5,111.5,0,250,0s250,111.5,250,250S388.5,500,250,500
	S0,388.5,0,250z M476.9,250C476.9,125,375,23.1,250,23.1C125,23.1,23.1,125,23.1,250S125,476.9,250,476.9S476.9,375,476.9,250z"/>
<g>
	<path fill="#FFFFFF" d="M228.6,248.2H161v62.7h75.3v18.8h-97.8V155.8h93.9v18.8H161v55h67.6V248.2z"/>
	<path fill="#FFFFFF" d="M264.7,238.7c0-12.9-0.3-23.5-1-33.8h20.1l1.3,20.6h0.5c6.2-11.9,20.6-23.5,41.3-23.5
		c17.3,0,44.1,10.3,44.1,53.1v74.6h-22.7v-72c0-20.1-7.5-36.9-28.9-36.9c-15,0-26.6,10.6-30.4,23.2c-1,2.8-1.5,6.7-1.5,10.6v75.1
		h-22.7V238.7z"/>
</g>
</svg>
