<?xml version="1.0" encoding="utf-8"?>
<!-- Generator: Adobe Illustrator 23.0.6, SVG Export Plug-In . SVG Version: 6.00 Build 0)  -->
<svg version="1.1" id="Слой_1" xmlns="http://www.w3.org/2000/svg" xmlns:xlink="http://www.w3.org/1999/xlink" x="0px" y="0px"
	 width="26px" height="26px" viewBox="0 0 26 26" enable-background="new 0 0 26 26" xml:space="preserve">
<path fill-rule="evenodd" clip-rule="evenodd" fill="#FFFFFF" d="M0,13C0,5.8,5.8,0,13,0c7.2,0,13,5.8,13,13c0,7.2-5.8,13-13,13
	C5.8,26,0,20.2,0,13z M24.8,13c0-6.5-5.3-11.8-11.8-11.8C6.5,1.2,1.2,6.5,1.2,13c0,6.5,5.3,11.8,11.8,11.8
	C19.5,24.8,24.8,19.5,24.8,13z"/>
<path fill="#FFFFFF" d="M7.8,13.4V17h-1V8.4h2.3c1.1,0,1.8,0.2,2.3,0.6c0.5,0.4,0.8,1,0.8,1.8c0,1.1-0.6,1.9-1.7,2.3l2.3,3.8h-1.2
	l-2.1-3.6H7.8z M7.8,12.6h1.4c0.7,0,1.2-0.1,1.5-0.4c0.3-0.3,0.5-0.7,0.5-1.3c0-0.6-0.2-1-0.5-1.2c-0.3-0.3-0.9-0.4-1.6-0.4H7.8
	V12.6z M15,10.6v4.2c0,0.5,0.1,0.9,0.4,1.2c0.2,0.3,0.6,0.4,1.1,0.4c0.7,0,1.2-0.2,1.5-0.6c0.3-0.4,0.5-1,0.5-1.8v-3.4h1V17h-0.8
	l-0.1-0.9h-0.1c-0.2,0.3-0.5,0.6-0.8,0.7c-0.4,0.2-0.8,0.3-1.2,0.3c-0.8,0-1.4-0.2-1.8-0.6c-0.4-0.4-0.6-1-0.6-1.8v-4.2H15z"/>
</svg>
