<?xml version="1.0" encoding="utf-8"?>
<!-- Generator: Adobe Illustrator 23.0.6, SVG Export Plug-In . SVG Version: 6.00 Build 0)  -->
<svg version="1.1" id="Слой_1" xmlns="http://www.w3.org/2000/svg" xmlns:xlink="http://www.w3.org/1999/xlink" x="0px" y="0px"
	 width="500px" height="500px" viewBox="0 0 500 500" enable-background="new 0 0 500 500" xml:space="preserve">
<path fill-rule="evenodd" clip-rule="evenodd" fill="#FFFFFF" d="M0,252C0,113.5,111.5,2,250,2s250,111.5,250,250S388.5,502,250,502
	S0,390.5,0,252z M476.9,252C476.9,127,375,25.1,250,25.1C125,25.1,23.1,127,23.1,252S125,478.9,250,478.9S476.9,377,476.9,252z"/>
<g>
	<path fill="#FFFFFF" d="M132.5,157.2c9.8-2.1,25.3-3.6,41-3.6c22.4,0,36.9,3.9,47.7,12.6c9,6.7,14.4,17,14.4,30.7
		c0,16.8-11.1,31.5-29.4,38.2v0.5c16.5,4.1,35.9,17.8,35.9,43.6c0,15-5.9,26.3-14.7,34.8c-12.1,11.1-31.7,16.3-60.1,16.3
		c-15.5,0-27.3-1-34.8-2.1V157.2z M155,228.4h20.4c23.7,0,37.7-12.4,37.7-29.2c0-20.4-15.5-28.4-38.2-28.4
		c-10.3,0-16.3,0.8-19.9,1.5V228.4z M155,311.7c4.4,0.8,10.8,1,18.8,1c23.2,0,44.6-8.5,44.6-33.8c0-23.7-20.4-33.5-44.9-33.5H155
		V311.7z"/>
	<path fill="#FFFFFF" d="M285.3,270.4c0.5,30.7,20.1,43.3,42.8,43.3c16.3,0,26.1-2.8,34.6-6.4l3.9,16.3c-8,3.6-21.7,7.7-41.5,7.7
		c-38.4,0-61.4-25.3-61.4-63s22.2-67.3,58.6-67.3c40.8,0,51.6,35.9,51.6,58.8c0,4.6-0.5,8.3-0.8,10.6H285.3z M351.8,254.2
		c0.3-14.4-5.9-36.9-31.5-36.9c-23,0-33,21.2-34.8,36.9H351.8z"/>
</g>
</svg>
