<?xml version="1.0" encoding="utf-8"?>
<!-- Generator: Adobe Illustrator 23.0.6, SVG Export Plug-In . SVG Version: 6.00 Build 0)  -->
<svg version="1.1" id="Слой_1" xmlns="http://www.w3.org/2000/svg" xmlns:xlink="http://www.w3.org/1999/xlink" x="0px" y="0px"
	 width="21px" height="18px" viewBox="0 0 21 18" enable-background="new 0 0 21 18" xml:space="preserve">
<path fill-rule="evenodd" clip-rule="evenodd" fill="#FFFFFF" d="M10.5,2.4C11.7,0.8,13.2,0,15.1,0C18.4,0,21,2.8,21,6.3
	c0,3.2-2.3,5.2-4.6,7.1c-0.2,0.1-0.4,0.3-0.6,0.5c-0.1,0.1-0.2,0.2-0.3,0.2l-0.9,0.8c-2.2,2-3,2.7-3.4,2.9C11,17.9,10.8,18,10.5,18
	c-0.2,0-0.5-0.1-0.7-0.2c-0.4-0.2-1.1-0.9-2.6-2.2C7,15.4,6.7,15.2,6.5,15l-1-0.9c-0.3-0.3-0.6-0.5-0.8-0.7C2.4,11.4,0,9.4,0,6.3
	C0,2.8,2.6,0,5.9,0C7.8,0,9.3,0.8,10.5,2.4z M19.7,6.3c0-2.7-2.1-5-4.6-5c-1.8,0-2.8,0.9-3.5,1.9c-0.5,0.6-0.7,1.1-0.9,1.4
	c-0.1,0.2-0.2,0.3-0.2,0.3s-0.1-0.1-0.2-0.3c-0.1-0.3-0.4-0.7-0.9-1.4c-0.7-1-1.7-1.9-3.5-1.9c-2.5,0-4.6,2.2-4.6,5
	c0,2.6,2,4.4,4.3,6.2c0.3,0.2,0.5,0.4,0.8,0.7c0.4,0.3,0.7,0.7,1.1,1c1.5,1.4,2.7,2.4,3.1,2.6c0.3-0.2,1.1-0.9,2.6-2.2
	c0.5-0.4,1-0.9,1.6-1.4c0.3-0.3,0.6-0.5,0.9-0.8C17.7,10.6,19.7,8.8,19.7,6.3z"/>
</svg>
