<?xml version="1.0" encoding="utf-8"?>
<!-- Generator: Adobe Illustrator 23.0.6, SVG Export Plug-In . SVG Version: 6.00 Build 0)  -->
<svg version="1.1" id="Слой_1" xmlns="http://www.w3.org/2000/svg" xmlns:xlink="http://www.w3.org/1999/xlink" x="0px" y="0px"
	 width="26px" height="26px" viewBox="0 0 26 26" enable-background="new 0 0 26 26" xml:space="preserve">
<path fill-rule="evenodd" clip-rule="evenodd" fill="#FFFFFF" d="M0,13C0,5.8,5.8,0,13,0c7.2,0,13,5.8,13,13c0,7.2-5.8,13-13,13
	C5.8,26,0,20.2,0,13z M24.8,13c0-6.5-5.3-11.8-11.8-11.8C6.5,1.2,1.2,6.5,1.2,13c0,6.5,5.3,11.8,11.8,11.8
	C19.5,24.8,24.8,19.5,24.8,13z M17.7,7.7c0,0-0.1,0-0.1,0L6.9,11.3c-0.2,0.1-0.4,0.3-0.4,0.5c0,0.2,0.1,0.5,0.4,0.6l4.8,2l2,4.8
	c0.1,0.2,0.3,0.4,0.6,0.4c0.2,0,0.5-0.2,0.5-0.4l3.5-10.6c0.1-0.2,0-0.4-0.1-0.6C18.1,7.7,17.9,7.7,17.7,7.7z M14.1,17.2l2.7-8
	l-8,2.7l3.6,1.5c0.1,0.1,0.3,0.2,0.3,0.3L14.1,17.2z"/>
</svg>
