<?xml version="1.0" encoding="utf-8"?>
<!-- Generator: Adobe Illustrator 23.0.6, SVG Export Plug-In . SVG Version: 6.00 Build 0)  -->
<svg version="1.1" id="Слой_1" xmlns="http://www.w3.org/2000/svg" xmlns:xlink="http://www.w3.org/1999/xlink" x="0px" y="0px"
	 width="21px" height="21px" viewBox="0 0 21 21" enable-background="new 0 0 21 21" xml:space="preserve">
<g>
	<g>
		<path fill-rule="evenodd" clip-rule="evenodd" fill="#FFFFFF" d="M8.7,17.3C3.9,17.3,0,13.4,0,8.6C0,3.9,3.9,0,8.7,0
			s8.7,3.9,8.7,8.6c0,2.2-0.8,4.1-2.1,5.7l5.4,5.4c0.3,0.3,0.3,0.6,0,0.9c-0.1,0.1-0.3,0.2-0.4,0.2s-0.3,0-0.5-0.2l-5.4-5.4
			C12.8,16.5,10.8,17.3,8.7,17.3z M8.7,1.3c-4.1,0-7.4,3.3-7.4,7.4S4.6,16,8.7,16c4.1,0,7.4-3.3,7.4-7.4S12.7,1.3,8.7,1.3z"/>
	</g>
</g>
</svg>
