<?xml version="1.0" encoding="utf-8"?>
<!-- Generator: Adobe Illustrator 23.0.6, SVG Export Plug-In . SVG Version: 6.00 Build 0)  -->
<svg version="1.1" id="Слой_1" xmlns="http://www.w3.org/2000/svg" xmlns:xlink="http://www.w3.org/1999/xlink" x="0px" y="0px"
	 width="398.8px" height="500px" viewBox="0 0 398.8 500" style="enable-background:new 0 0 398.8 500;" xml:space="preserve">
<style type="text/css">
	.st0{fill:#FFFFFF;}
</style>
<path class="st0" d="M346.7,298.9l-13.2-10.2l0,0L346.7,298.9z M208.2,479.5l11.8,11.8l0.8-0.8l0.7-0.9L208.2,479.5z M206.1,481.6
	l10,13.3l0.9-0.7l0.8-0.8L206.1,481.6z M191.9,479.5l13.3-10l-0.1-0.1L191.9,479.5z M53.3,298.9l13.2-10.1l0,0L53.3,298.9z
	 M185.7,262.3l3.6-16.3l-0.2,0L185.7,262.3z M129.7,179.1l-16.3-3.4L129.7,179.1z M213.2,262.3l-3.1-16.4l-0.3,0l-0.3,0.1
	L213.2,262.3z M269.3,179.1l-16.4,2.9l0,0.1L269.3,179.1z M213.2,123.2l3.5-16.3l-0.1,0L213.2,123.2z M200,0C90.6,0,0,86,0,193.3
	h33.3c0-87.6,74.4-160,166.7-160V0z M400,193.3C400,86,309.4,0,200,0v33.3c92.2,0,166.7,72.3,166.7,160H400z M359.9,309
	c25.5-33.2,40.1-73.3,40.1-115.7h-33.3c0,34.7-11.9,67.7-33.2,95.4L359.9,309z M221.4,489.7L359.9,309l-26.5-20.3L194.9,469.4
	L221.4,489.7z M217.9,493.4l2-2l-23.5-23.6l-2,2L217.9,493.4z M178.5,489.6c4.8,6.4,11.8,9.3,17.7,10.2c5.9,0.8,13.5,0,19.8-4.8
	l-20-26.7c2.3-1.7,4.2-1.6,4.8-1.5c0.6,0.1,2.5,0.5,4.2,2.8L178.5,489.6z M40.1,309l138.5,180.7l26.5-20.3L66.6,288.7L40.1,309z
	 M0,193.3c0,42.5,14.6,82.6,40.1,115.7l26.4-20.3C45.2,261,33.3,228,33.3,193.3H0z M189.2,246c-30.3-6.4-49.3-34.5-43.1-63.5
	l-32.6-6.9c-10.2,48.2,21.8,93.1,68.9,103L189.2,246z M209.6,246c-6.8,1.5-13.5,1.5-20.3,0l-7.2,32.5c11.5,2.6,23.2,2.6,34.7,0
	L209.6,246z M252.9,182.1c5.5,29.8-14.3,58.5-42.7,63.8l6.2,32.8c46.9-8.8,78.1-55.3,69.3-102.6L252.9,182.1z M209.8,139.5
	c22.6,4.8,39.3,21.4,43.1,42.5l32.8-5.9c-6.4-35.7-34.5-61.8-68.9-69.2L209.8,139.5z M146,182.5c6.4-30.1,34.6-49.1,63.8-43
	l6.8-32.6c-48.2-10.1-93.3,21.6-103.2,68.7L146,182.5z"/>
</svg>
