<?xml version="1.0" encoding="utf-8"?>
<!-- Generator: Adobe Illustrator 23.0.6, SVG Export Plug-In . SVG Version: 6.00 Build 0)  -->
<svg version="1.1" id="Слой_1" xmlns="http://www.w3.org/2000/svg" xmlns:xlink="http://www.w3.org/1999/xlink" x="0px" y="0px"
	 width="378.8px" height="500px" viewBox="0 0 378.8 500" enable-background="new 0 0 378.8 500" xml:space="preserve">
<path fill="#FFFFFF" d="M68.4,500H34.5c-18.2,0-33-14.8-33-33L1.4,33c0-18.2,14.8-33,33-33l33.9,0c18.2,0,33,14.8,33,33l0,433.9
	C101.4,485.2,86.7,500,68.4,500z"/>
<path fill="#FFFFFF" d="M345.8,500h-33.9c-18.2,0-33-14.8-33-33l0-433.9c0-18.2,14.8-33,33-33l33.9,0c18.2,0,33,14.8,33,33l0,433.9
	C378.8,485.2,364,500,345.8,500z"/>
</svg>
