<?xml version="1.0" encoding="utf-8"?>
<!-- Generator: Adobe Illustrator 23.0.6, SVG Export Plug-In . SVG Version: 6.00 Build 0)  -->
<svg version="1.1" id="Слой_1" xmlns="http://www.w3.org/2000/svg" xmlns:xlink="http://www.w3.org/1999/xlink" x="0px" y="0px"
	 width="320.4px" height="500px" viewBox="0 0 320.4 500" style="enable-background:new 0 0 320.4 500;" xml:space="preserve">
<style type="text/css">
	.st0{fill:#FFFFFF;}
</style>
<path class="st0" d="M146.3,499.8H10c-5.5,0-10-4.5-10-10V9.8c0-5.5,4.5-10,10-10h136.3c5.5,0,10,4.5,10,10v480
	C156.3,495.3,151.8,499.8,146.3,499.8z M20,479.8h116.2v-460H20V479.8z"/>
<path class="st0" d="M78.1,110.1c-18.6,0-33.8-15.1-33.8-33.8s15.1-33.8,33.8-33.8s33.8,15.1,33.8,33.8S96.7,110.1,78.1,110.1z
	 M78.1,62.6c-7.6,0-13.7,6.2-13.7,13.7c0,7.6,6.2,13.7,13.7,13.7c7.6,0,13.7-6.2,13.7-13.7C91.9,68.7,85.7,62.6,78.1,62.6z"/>
<path class="st0" d="M146.3,156.5h-37.9c-5.5,0-10-4.5-10-10s4.5-10,10-10h37.9c5.5,0,10,4.5,10,10S151.8,156.5,146.3,156.5z"/>
<path class="st0" d="M146.3,199.6h-25.4c-5.5,0-10-4.5-10-10c0-5.5,4.5-10,10-10h25.4c5.5,0,10,4.5,10,10
	C156.3,195.1,151.8,199.6,146.3,199.6z"/>
<path class="st0" d="M146.3,242.6h-37.9c-5.5,0-10-4.5-10-10s4.5-10,10-10h37.9c5.5,0,10,4.5,10,10S151.8,242.6,146.3,242.6z"/>
<path class="st0" d="M146.3,285.6h-25.4c-5.5,0-10-4.5-10-10c0-5.5,4.5-10,10-10h25.4c5.5,0,10,4.5,10,10
	C156.3,281.2,151.8,285.6,146.3,285.6z"/>
<path class="st0" d="M146.3,328.7h-37.9c-5.5,0-10-4.5-10-10c0-5.5,4.5-10,10-10h37.9c5.5,0,10,4.5,10,10
	C156.3,324.2,151.8,328.7,146.3,328.7z"/>
<path class="st0" d="M146.3,371.7h-25.4c-5.5,0-10-4.5-10-10s4.5-10,10-10h25.4c5.5,0,10,4.5,10,10S151.8,371.7,146.3,371.7z"/>
<path class="st0" d="M146.3,414.8h-37.9c-5.5,0-10-4.5-10-10c0-5.5,4.5-10,10-10h37.9c5.5,0,10,4.5,10,10
	C156.3,410.3,151.8,414.8,146.3,414.8z"/>
<path class="st0" d="M146.3,457.8h-25.4c-5.5,0-10-4.5-10-10c0-5.5,4.5-10,10-10h25.4c5.5,0,10,4.5,10,10
	C156.3,453.3,151.8,457.8,146.3,457.8z"/>
<path class="st0" d="M262.8,499.8c-3.5,0-6.8-1.8-8.6-4.9l-47.6-79.3c-1.8-3.1-1.9-6.9-0.1-10.1c1.8-3.1,5.1-5.1,8.7-5.1h95.2
	c3.6,0,6.9,1.9,8.7,5.1c1.8,3.1,1.7,7-0.1,10.1l-47.6,79.3C269.6,498,266.4,499.8,262.8,499.8z M232.9,420.5l29.9,49.8l29.9-49.8
	H232.9z"/>
<path class="st0" d="M310.4,420.5h-95.2c-5.5,0-10-4.5-10-10V87.3c0-5.5,4.5-10,10-10h95.2c5.5,0,10,4.5,10,10v323.2
	C320.4,416.1,316,420.5,310.4,420.5z M225.3,400.5h75.2V97.3h-75.2V400.5z"/>
<path class="st0" d="M310.4,97.3h-95.2c-5.5,0-10-4.5-10-10V35.6c0-19.8,16.1-35.8,35.8-35.8h43.5c19.8,0,35.8,16.1,35.8,35.8v51.7
	C320.4,92.8,316,97.3,310.4,97.3z M225.3,77.3h75.2V35.6c0-8.7-7.1-15.8-15.8-15.8h-43.5c-8.7,0-15.8,7.1-15.8,15.8V77.3z"/>
</svg>
