<svg width="21" height="20" viewBox="0 0 21 20" fill="none" xmlns="http://www.w3.org/2000/svg">
<path id="Shape" fill-rule="evenodd" clip-rule="evenodd" d="M0 4.64492C0.267892 3.17877 1.47513 1.62945 2.67195 0.4908V0.490708C3.57863 -0.118954 4.49873 -0.210215 5.43464 0.500554L8.157 3.08129C8.78757 3.70332 8.80065 4.80729 8.39899 5.662C8.12051 6.0409 7.82529 6.42288 7.53071 6.80402C7.35486 7.03155 7.17924 7.25877 7.00756 7.48486C6.88822 7.92237 7.10489 8.37637 7.4512 8.79917C7.89674 9.37039 8.56833 10.0037 9.18636 10.5864C9.29932 10.6929 9.4105 10.7978 9.51818 10.9002C10.203 11.5519 11.0554 12.3428 11.7969 12.8478C11.8195 12.8631 11.8432 12.8793 11.8679 12.8961C12.1876 13.1147 12.6697 13.4444 13.0976 13.2985L14.9326 12.013C15.8172 11.5914 16.9118 11.5605 17.7558 12.224L20.4883 14.8239C21.1433 15.4691 21.1973 16.727 20.4883 17.4047C19.4133 18.3687 17.6409 19.8081 16.2031 19.9567C14.574 20.192 12.8676 19.4434 11.1516 18.3257C9.43563 17.208 7.6966 15.6715 6.09003 14.1428C2.84605 11.0562 0.0403717 7.71828 0 4.64492ZM7.2395 3.95416L4.52722 1.36379L4.52724 1.36375C4.16862 1.19812 3.91629 1.12671 3.5593 1.38283C2.33649 2.61892 1.49254 3.75012 1.30075 4.68311C1.37004 6.99591 3.86855 10.2923 7.00763 13.2792C8.58821 14.7831 10.2802 16.2681 11.8776 17.3086C13.4704 18.346 14.9472 18.8956 16.0015 18.7476C16.9612 18.5679 17.8502 17.865 18.7093 17.1856C19.0062 16.9508 19.2995 16.7189 19.591 16.5123C19.7305 16.2081 19.7682 15.9835 19.5708 15.6872L16.8484 13.0969C16.4387 12.8951 16.0714 12.8879 15.6183 13.0585C15.4618 13.168 15.3052 13.2775 15.1486 13.387C14.7201 13.6866 14.2916 13.9861 13.8639 14.2867C13.0062 14.8276 11.856 14.4048 11.0407 13.855C10.2163 13.2935 9.40465 12.52 8.74083 11.8874C8.69681 11.8455 8.65344 11.8041 8.61076 11.7635C8.47431 11.6337 8.32889 11.4985 8.17842 11.3586C7.58876 10.8104 6.92159 10.1902 6.41271 9.53773C5.80011 8.74536 5.36878 7.76376 5.96906 6.75557L7.25966 5.07662C7.38838 4.68283 7.48172 4.32468 7.2395 3.95416Z" fill="white"/>
</svg>
