<?xml version="1.0" encoding="utf-8"?>
<!-- Generator: Adobe Illustrator 27.3.1, SVG Export Plug-In . SVG Version: 6.00 Build 0)  -->
<svg version="1.1" id="Слой_1" xmlns="http://www.w3.org/2000/svg" xmlns:xlink="http://www.w3.org/1999/xlink" x="0px" y="0px"
	 width="500px" height="500px" viewBox="0 0 500 500" enable-background="new 0 0 500 500" xml:space="preserve">
<g id="Shape_Copy_3">
	<g>
		<path fill-rule="evenodd" clip-rule="evenodd" fill="#1E8A47" d="M0,250C0,112.1,112.1,0,250,0s250,112.1,250,250
			S387.9,500,250,500S0,387.9,0,250z M477.3,250c0-125.7-101.6-227.3-227.3-227.3C124.3,22.7,22.7,124.3,22.7,250
			S124.3,477.3,250,477.3S477.3,375.7,477.3,250z M339.7,147.7c-0.8,0.1-1.6,0.3-2.3,0.5l-204.5,68.2c-4.5,1.5-7.6,5.7-7.8,10.4
			c-0.2,4.8,2.7,9.1,7.1,10.9l92.2,38l38,92.2c1.8,4.4,6.1,7.2,10.9,7.1c4.8-0.2,8.9-3.3,10.4-7.8l68.2-204.5
			c1.2-3.7,0.5-7.8-1.9-10.8C347.4,148.8,343.5,147.3,339.7,147.7z M271.5,331l51.3-154.1l-153.9,51.5l68.4,28.1
			c2.8,1.2,5.1,3.4,6.2,6.2L271.5,331z"/>
	</g>
</g>
</svg>
