<?xml version="1.0" encoding="utf-8"?>
<!-- Generator: Adobe Illustrator 27.3.1, SVG Export Plug-In . SVG Version: 6.00 Build 0)  -->
<svg version="1.1" id="Слой_1" xmlns="http://www.w3.org/2000/svg" xmlns:xlink="http://www.w3.org/1999/xlink" x="0px" y="0px"
	 width="500px" height="500px" viewBox="0 0 500 500" enable-background="new 0 0 500 500" xml:space="preserve">
<g>
	<g>
		<path fill-rule="evenodd" clip-rule="evenodd" fill="#1E8A47" d="M250,0C112.1,0,0,112.1,0,250s112.1,250,250,250
			s250-112.1,250-250S387.9,0,250,0z M250,477.3C124.3,477.3,22.7,375.7,22.7,250S124.3,22.7,250,22.7S477.3,124.3,477.3,250
			S375.7,477.3,250,477.3z"/>
		<path fill-rule="evenodd" clip-rule="evenodd" fill="#1E8A47" d="M339.7,147.7c-0.8,0.1-1.6,0.3-2.3,0.5l-204.5,68.2
			c-4.5,1.5-7.6,5.7-7.8,10.4c-0.2,4.8,2.7,9.1,7.1,10.9l92.2,38l38,92.2c1.8,4.4,6.1,7.2,10.9,7.1c4.8-0.2,8.9-3.3,10.4-7.8
			l68.2-204.5c1.2-3.7,0.5-7.8-1.9-10.8C347.4,148.8,343.5,147.3,339.7,147.7z M271.5,331l-28.1-68.4c-1.2-2.8-3.4-5.1-6.2-6.2
			l-68.4-28.1l153.9-51.5L271.5,331z"/>
	</g>
</g>
</svg>
