<?xml version="1.0" encoding="utf-8"?>
<!-- Generator: Adobe Illustrator 23.0.6, SVG Export Plug-In . SVG Version: 6.00 Build 0)  -->
<svg version="1.1" id="Слой_1" xmlns="http://www.w3.org/2000/svg" xmlns:xlink="http://www.w3.org/1999/xlink" x="0px" y="0px"
	 width="353.3px" height="500px" viewBox="0 0 353.3 500" enable-background="new 0 0 353.3 500" xml:space="preserve">
<polygon fill="#FFFFFF" points="327.5,224.1 301.6,250 301.6,250 327.5,224.1 301.6,198.2 275.7,172.3 155.1,51.8 129.2,25.9 
	103.3,0 77.5,25.9 103.3,51.8 103.3,51.8 77.5,25.9 25.7,77.7 51.6,103.6 51.6,103.6 25.7,77.7 -0.2,103.6 25.7,129.4 51.6,155.3 
	146.2,250 51.6,344.7 25.7,370.6 51.6,396.4 51.6,396.4 25.7,370.6 -0.2,396.4 25.7,422.3 77.5,474.1 103.3,448.2 103.3,448.2 
	77.5,474.1 103.3,500 129.2,474.1 155.1,448.2 275.7,327.7 301.6,301.8 327.5,275.9 353.3,250 "/>
</svg>
