<?xml version="1.0" encoding="utf-8"?>
<!-- Generator: Adobe Illustrator 27.3.1, SVG Export Plug-In . SVG Version: 6.00 Build 0)  -->
<svg version="1.1" id="Слой_1" xmlns="http://www.w3.org/2000/svg" xmlns:xlink="http://www.w3.org/1999/xlink" x="0px" y="0px"
	 width="500px" height="500px" viewBox="0 0 500 500" enable-background="new 0 0 500 500" xml:space="preserve">
<g>
	<g>
		<path fill-rule="evenodd" clip-rule="evenodd" fill="#999999" d="M427.1,72.7C380.1,25.8,317.6,0,251,0C113.8,0,2.1,111.1,2,247.7
			c0,43.7,11.5,86.3,33.2,123.9L-0.1,500l131.9-34.4c36.4,19.8,77.4,30.2,119.1,30.2c137.3,0,248.9-111.2,249-247.8
			C500,181.8,474.1,119.5,427.1,72.7z M250.9,453.9c-44.3-0.1-77.8-12.5-112.9-33.2l-78.3,20.5l20.9-76
			c-22.9-36.3-36.5-71-36.5-117.4c0-113.5,92.9-205.9,207-205.9C365.5,42,457.9,134.2,457.9,248
			C457.8,361.5,364.9,453.9,250.9,453.9z"/>
		<path fill-rule="evenodd" clip-rule="evenodd" fill="#999999" d="M367.9,301.3c-1.1-0.5-2.2-1.1-3.4-1.6
			c-6.2-3.1-36.8-18-42.5-20.1c-5.7-2.1-9.8-3.1-14,3.1c-4.1,6.2-16.1,20.2-19.7,24.3c-3.6,4.1-7.3,4.6-13.5,1.5
			c-1-0.6-2.4-1.2-4.1-1.9c-8.8-3.8-26-11.3-45.9-28.9c-18.5-16.4-31-36.7-34.6-42.9c-3.6-6.2-0.4-9.5,2.7-12.6c1.8-1.8,4-4.4,6.1-7
			c1.1-1.3,2.2-2.6,3.2-3.8c2.7-3,3.8-5.3,5.4-8.5c0.3-0.6,0.6-1.2,0.9-1.8c2.1-4.2,1.1-7.8-0.5-10.9c-1.1-2.2-7.4-17.4-12.9-30.7
			c-2.4-5.9-4.7-11.5-6.3-15.3c-4.5-10.6-9-10.6-12.6-10.6c-0.5,0-1,0-1.4,0l-11.9-0.2c-4.2,0-10.9,1.6-16.6,7.8
			c-0.4,0.4-0.8,0.8-1.3,1.3c-6.5,6.9-20.5,21.8-20.5,50.3c0,30.2,21.9,59.4,25.3,63.9l0.1,0.1c0.2,0.3,0.6,0.8,1.1,1.6
			c7.5,10.8,46.9,66.9,105.1,91.9c14.9,6.3,26.5,10.1,35.5,13c14.9,4.7,28.5,4.1,39.2,2.5c12-1.7,36.8-14.9,42-29.4
			s5.2-26.9,3.6-29.5C375.2,304.8,372.2,303.4,367.9,301.3z"/>
	</g>
</g>
</svg>
