<?xml version="1.0" encoding="UTF-8"?>
<svg xmlns="http://www.w3.org/2000/svg" width="500" height="500" version="1.1" viewBox="0 0 500 500">
  <!-- Generator: Adobe Illustrator 28.7.1, SVG Export Plug-In . SVG Version: 1.2.0 Build 142)  -->
  <g>
    <g id="_Слой_1" data-name="Слой_1">
      <path d="M304.1,256.2l-77.1-50.5c-2-1.3-4.4-1.3-6.3,0-2,1.3-3.2,3.6-3.2,6.2v101c0,2.6,1.2,4.9,3.2,6.2,1,.6,2.1,1,3.2,1s2.2-.3,3.2-1l77.1-50.5c2-1.3,3.2-3.7,3.2-6.2s-1.2-4.9-3.2-6.2Z" fill="#1e8a47"/>
      <path d="M-.4,249.6c0,137.9,112.1,250,250,250s250-112.1,250-250S387.4-.4,249.6-.4-.4,111.7-.4,249.6ZM24.3,249.6C24.3,125.3,125.3,24.3,249.6,24.3s225.3,101.1,225.3,225.3-101.1,225.3-225.3,225.3S24.3,373.9,24.3,249.6Z" fill="#1e8a47" fill-rule="evenodd"/>
    </g>
  </g>
</svg>