<?xml version="1.0" encoding="utf-8"?>
<!-- Generator: Adobe Illustrator 23.0.6, SVG Export Plug-In . SVG Version: 6.00 Build 0)  -->
<svg version="1.1" id="Слой_1" xmlns="http://www.w3.org/2000/svg" xmlns:xlink="http://www.w3.org/1999/xlink" x="0px" y="0px"
	 width="611px" height="500px" viewBox="0 0 611 500" enable-background="new 0 0 611 500" xml:space="preserve">
<path id="Path" fill-rule="evenodd" clip-rule="evenodd" fill="#FFFFFF" d="M298.9,430h36.5c0,0,11-1.3,16.7-7.5
	c5.2-5.8,5-16.6,5-16.6s-0.7-51.4,22-58.9c22.4-7.3,51.2,49.2,81.8,70.9c23.1,16.4,40.6,12.2,40.6,12.2l81.6,0.1
	c0,0,42.7-3.4,22.4-38.2c-1.7-2.8-11.8-25.8-60.7-72.8c-51.2-49.2-44.3-41.3,17.4-126.5c37.5-51.9,52.5-83.6,47.8-97.1
	c-4.4-12.9-31.8-10.7-31.8-10.7l-92.1,0c0,0-6.8-0.7-11.9,2.4c-4.9,3.1-8.1,11-8.1,11s-14.5,40.9-33.9,75
	c-40.9,72-57.3,75.9-63.9,71.4c-15.6-10.5-11.7-41.9-11.7-64.3c0-69.8,10.2-98.9-19.9-106.5c-10-2.5-17.4-4.1-42.9-4.4
	c-32.7-0.3-60.5,0.1-76.2,8.1C207.1,82.9,199,94.8,204,95.4c6.1,0.9,19.8,3.9,27.1,14.2c9.4,13.3,9.1,43.1,9.1,43.1
	s5.4,82.2-12.6,92.4c-12.4,7-29.4-7.3-65.8-72.6c-18.7-33.5-32.8-71.2-32.8-71.2s-2.7-6.9-7.6-10.6c-5.9-4.5-14.1-5.9-14.1-5.9
	l-87.3,0c0,0-13.1,0.4-17.9,6.3c-4.3,5.3-0.3,16.1-0.3,16.1S70,274.3,147.4,357.9C218.4,434.5,298.9,430,298.9,430z"/>
</svg>
