<?xml version="1.0" encoding="utf-8"?>
<!-- Generator: Adobe Illustrator 23.0.6, SVG Export Plug-In . SVG Version: 6.00 Build 0)  -->
<svg version="1.1" id="Слой_1" xmlns="http://www.w3.org/2000/svg" xmlns:xlink="http://www.w3.org/1999/xlink" x="0px" y="0px"
	 width="1247.1px" height="500px" viewBox="0 0 1247.1 500" enable-background="new 0 0 1247.1 500" xml:space="preserve">
<path fill="#1E8A47" d="M83.1,500c-25.1,0-45.4-5.4-60.8-16.1C7.4,473.2,0,457.9,0,437.8c0-16.3,4.4-30.5,13.3-42.6
	c9.3-12.6,24-18.9,44-18.9c16.3,0,28.2,4.4,35.6,13.3c7.4,8.8,11.2,19.6,11.2,32.1c0,7.9-1.9,14.4-5.6,19.6
	c2.3,1.4,5.8,2.1,10.5,2.1c8.4,0,18.9-10.5,31.4-31.4c12.6-20.9,24-54.2,34.2-99.9c10.2-45.6,16.3-105.4,18.2-179.5l2.1-81
	l-17.5,0.7l-62.8,1.4V0H500v46.1c-10.2,0.5-19.1,1.9-26.5,4.2C466,52.6,460.2,58,456,66.3c-3.7,7.9-5.6,21.4-5.6,40.5v267.5
	c0,12.6-0.2,24.7-0.7,36.3c-0.5,11.6-1.2,20.5-2.1,26.5c7.9-0.9,17.5-1.4,28.6-1.4c11.2-0.5,19.1-0.7,23.7-0.7v53.8H299.6v-46.1
	c10.7-0.5,19.6-1.9,26.5-4.2c7.4-2.3,13-7.7,16.8-16.1c4.2-8.4,6.3-21.9,6.3-40.5V52.4l-55.9,2.1c-15.8,0.5-27.5,3.7-34.9,9.8
	c-7.4,5.6-11.4,16.1-11.9,31.4c-1.4,75.4-7,139-16.8,190.6c-9.3,51.7-21.6,93.3-37,125c-14.9,31.2-31.9,53.8-51,67.7
	C123.1,493,103.6,500,83.1,500z M710.7,500c-34,0-64-7.4-90.1-22.3c-26.1-15.4-46.3-36.8-60.8-64.2c-14.4-27.9-21.6-60.8-21.6-98.5
	c0-32.6,7.2-63.1,21.6-91.5c14.4-28.4,34.7-51.2,60.8-68.4c26.5-17.7,57.3-26.5,92.2-26.5c19.6,0,38.6,2.8,57.3,8.4
	c18.6,5.1,35.4,14.2,50.3,27.2c15.4,13,27.5,30.7,36.3,53.1c9.3,22.3,13.7,50.3,13.3,83.8l-229.1,4.2c0,25.1,3,47.7,9.1,67.7
	c6.5,20,17,35.8,31.4,47.5c14.4,11.6,33.8,17.5,58,17.5c14,0,30.5-3.7,49.6-11.2c19.6-7.9,37.2-21.6,53.1-41.2l31.4,29.3
	c-16.8,23.7-34.7,41.9-53.8,54.5c-19.1,12.1-38.2,20.3-57.3,24.4C743.8,497.9,726.5,500,710.7,500z M645.1,256.3h128.5
	c-0.5-28.9-6.1-49.1-16.8-60.8c-10.7-12.1-24.2-18.2-40.5-18.2c-20.5,0-36.5,7.4-48.2,22.3C656.5,214.2,648.8,233,645.1,256.3z
	 M983.8,488.8v-45.4c19.6,0,31.4-5.6,35.6-16.8c4.2-11.6,6.3-26.8,6.3-45.4V252.1c0-6.5,0.2-15.1,0.7-25.8
	c0.5-11.2,0.9-21.9,1.4-32.1h-17.5c-20.9,0-36.5,5.4-46.8,16.1c-10.2,10.2-15.4,29.1-15.4,56.6h-45.4l2.8-127.1h338.7l2.8,127.1
	h-45.4c0-27.5-5.1-46.3-15.4-56.6c-10.2-10.7-25.8-16.1-46.8-16.1h-15.4v182.3c0,6.5-0.2,15.8-0.7,27.9c-0.5,11.6-1.2,22.8-2.1,33.5
	l45.4-2.1v53.1H983.8z"/>
</svg>
