<?xml version="1.0" encoding="utf-8"?>
<!-- Generator: Adobe Illustrator 23.0.6, SVG Export Plug-In . SVG Version: 6.00 Build 0)  -->
<svg version="1.1" id="Слой_1" xmlns="http://www.w3.org/2000/svg" xmlns:xlink="http://www.w3.org/1999/xlink" x="0px" y="0px"
	 width="625px" height="500px" viewBox="0 0 625 500" enable-background="new 0 0 625 500" xml:space="preserve">
<path fill-rule="evenodd" clip-rule="evenodd" fill="#1E8A47" d="M118.7,15.9C246.6-5.3,377.1-5.3,505,15.9
	c73.1,13.4,120,62.2,120,124.4v218.8c0,62.5-46.9,111.3-119.4,125C441.8,494.7,377.2,500,312.5,500c-64.5-0.1-128.9-5.5-192.5-16.3
	C45.6,467.8,0,421.2,0,358.7V140C0,78.4,45.6,31.2,118.7,15.9z M258.1,357.8l156.3-93.8v-0.9c4.6-2.9,7.4-8,7.4-13.4
	s-2.8-10.5-7.4-13.4l-156.3-93.8c-5-2.7-11-2.7-15.9,0c-4.8,2.9-7.8,8.1-7.8,13.8v187.5c-0.2,5.8,2.8,11.3,7.8,14.4
	c2.4,1.2,5.1,1.9,7.8,1.9C252.9,360.1,255.7,359.3,258.1,357.8z"/>
</svg>
