<?xml version="1.0" encoding="utf-8"?>
<!-- Generator: Adobe Illustrator 27.3.1, SVG Export Plug-In . SVG Version: 6.00 Build 0)  -->
<svg version="1.1" id="Слой_1" xmlns="http://www.w3.org/2000/svg" xmlns:xlink="http://www.w3.org/1999/xlink" x="0px" y="0px"
	 width="500px" height="500px" viewBox="0 0 500 500" enable-background="new 0 0 500 500" xml:space="preserve">
<g>
	<g>
		<path opacity="0.6488" fill="#CC1B1B" enable-background="new    " d="M408.6,5.1c-75.1-6.8-242.3-6.8-317.2,0
			C10.2,12.5,0.6,77.9,0,250c0.6,171.8,10.1,237.5,91.4,244.9c75,6.8,242.2,6.8,317.2,0c81.2-7.4,90.8-72.8,91.4-244.9
			C499.4,78.2,489.9,12.5,408.6,5.1z M446.5,421.8c-7.7,23.5-17,31-41.5,33.2c-34.1,3.1-92,4.9-154.9,4.9c-63,0-121-1.9-155.2-4.9
			c-24.5-2.2-33.8-9.7-41.5-33.3C42.6,388.4,40.3,331.3,40,250c0.3-81.4,2.6-138.5,13.5-171.8c7.7-23.5,17-31,41.5-33.2
			c34.1-3.1,92.2-5,155.2-5c62.9,0,120.8,1.9,154.9,5c24.5,2.2,33.8,9.7,41.5,33.3c10.8,33.3,13.2,90.4,13.5,171.7
			C459.7,331.4,457.4,388.5,446.5,421.8z"/>
		<polygon opacity="0.6488" fill="#CC1B1B" enable-background="new    " points="186.7,352.3 353.3,249.8 186.7,147.7 		"/>
	</g>
</g>
</svg>
